<svg xmlns="http://www.w3.org/2000/svg" width="351" height="1792.137" viewBox="0 0 351 1792.137">
  <g id="content-box-bg" transform="translate(275.439 -193.809)">
    <path id="Path_20" data-name="Path 20" d="M-111.7,205.925c35.941,11.3,66.178,18.018,106.462,15.852,25.717-1.385,56.789-7.741,74.936-20.919a35.96,35.96,0,0,0,5.86-5.376V1985.946h-351V201.029C-227.853,195.431-175.234,185.94-111.7,205.925Z" fill="#fff"/>
    <path id="Path_28" data-name="Path 28" d="M-254.085,209.56c6.249.268,31.075,2.157,45.395-9.24,2.48-1.68,7.238-5.865,9.83-1.9,1.973,3.017-.649,6.238-3.662,7.767C-202.524,206.191-216.512,215.675-254.085,209.56Z" transform="translate(207.689 -32.217) rotate(-10)" fill="#fff"/>
  </g>
</svg>
