<svg xmlns="http://www.w3.org/2000/svg" width="240.417" height="219.412" viewBox="0 0 240.417 219.412">
  <g id="gotop" transform="translate(-970.168 -253.353)">
    <g id="gotop-2" data-name="gotop" transform="translate(970.168 253.353)">
      <path id="Path_49" data-name="Path 49" d="M-86.923,317.74c-.686.411-14.019-34.283-14.019-34.283l-20.048-36.519-36.168-8.647-51.364.387s-40.484-9.655-40.719-9.771-11.492-6.868-11.492-6.868l-.965-2.055-2.9,2.306-8.466,11.487L-289.213,258.1l-13.239,22.7-9.008,17.6-3.957,11.973-5.477,17.438-1.064,18.6,7.98,18.6,12.762,16.737,16.578,8.511,23.617,8.421,13.086,2.709-.072-2.64a135.786,135.786,0,0,0,26.141,3.752c22.036,1.075,40.572-.107,55.755-2.672.186,1.131-.036,2.114-.963,2.248-.686.1,5.685.619,5.421.343s29.359-6.288,29.359-6.288l10.684-4.979,18.593-12.289L-88.1,360.847l5.232-19.513S-86.237,317.328-86.923,317.74Z" transform="translate(323.182 -186.294)" fill="#c5ce82"/>
      <path id="Path_50" data-name="Path 50" d="M-61.879,446.469" transform="translate(250.642 -249.464)" fill="#98bb70" stroke="#32190e" stroke-miterlimit="10" stroke-width="0.779"/>
      <path id="Path_51" data-name="Path 51" d="M-238.592,205.409l14.028-13.83,15.8-10.917,16.514-4.627,16.9,5,13.757,12.841,5.847,4.53,12.985-2.615,11.645-1.916,11.867,6.354,8.884,11.869,8.764,14.382,5.648,11.764-24.523-10.472-26.175-1.649-28.815.217-18.213-.188-22.084-5.331-16.192-7.495-7.247-6.257Z" transform="translate(300.099 -174.035)" fill="#a3d7db"/>
      <path id="Path_52" data-name="Path 52" d="M-309.988,330.657c-1.3-2.174-.092-1.048-1.444-3.207l-9.425,29.867-1.1,25.9,7.55,13.592s-1.706-5.911-3.849-20.316C-319.954,365.079-313.4,341.344-309.988,330.657Z" transform="translate(323.182 -216.267)" fill="#fff"/>
      <path id="Path_53" data-name="Path 53" d="M-213.975,175.086l-16.14,4.589-20.7,17.155-25.2,31.537-20.65,33.96-12.111,23.749a3.786,3.786,0,0,1,.539.2c1.191.565.379.541,1.364,1.414.356.315.256.1.563.464a36.818,36.818,0,0,1,2.028-4.188c4.309-7.55,16.536-27.2,20.9-34.461s14.506-23.741,22.951-34.256,15.685-18.69,23.14-24.272c3.683-2.757,7.178-5.544,16.634-9.278s19.359-1.891,19.359-1.891Z" transform="translate(319.506 -173.771)" fill="#fff"/>
      <g id="Group_75" data-name="Group 75" transform="translate(193.334 144.667)">
        <g id="Group_74" data-name="Group 74" transform="translate(0)">
          <path id="Path_54" data-name="Path 54" d="M-10.579,374.57c-.192,6.87-.426,13.913-1.951,20.635A40.375,40.375,0,0,1-22.5,413.7a74.186,74.186,0,0,1-15.794,12.7c-2.745,1.7-5.564,3.281-8.409,4.807-2.827,1.516-6.3,2.676-8.527,5.046-.642.685-.244,2.134.84,2.028,3.224-.317,6.114-2.251,8.936-3.74,3.391-1.789,6.723-3.687,9.95-5.759,6.237-4.006,12.229-8.673,16.9-14.475,9.051-11.245,11.627-25.844,9.392-39.919-.127-.8-1.343-.568-1.364.185Z" transform="translate(55.539 -373.886)" fill="#32190e"/>
        </g>
      </g>
      <g id="Group_77" data-name="Group 77" transform="translate(9.393)">
        <g id="Group_76" data-name="Group 76">
          <path id="Path_55" data-name="Path 55" d="M-310.143,289.454c19.293-28.322,34.936-63.659,58.563-88.886a98.3,98.3,0,0,1,17.928-15.433c7.457-4.838,17.667-9.139,26.658-7.166,9.592,2.1,16.526,8.065,22.662,15.382,3.359,4.006,7.884,8.3,13.546,6.975,6.708-1.573,12.329-4.681,19.513-4.363,8.918.4,14.917,9.667,19.144,16.446,16.857,27.031,13.765,12.305,3.691-2.158-4.159-5.971-8.2-13.372-14.576-17.077-6.21-3.607-14.214-2.38-20.78-.365-2.514.772-4.907,1.9-7.422,2.656-3.421,1.022-6.084-1.23-8.357-3.676-6.428-6.915-11.933-13.081-21.02-16.524-16.692-6.323-33.54,3.378-45.759,14.385-12.812,11.543-22.75,26.133-32.075,40.525-11.515,17.773-22.478,36.289-31.462,55.486-.179.382-.934,3.4-.694,3.05Z" transform="translate(310.629 -173.262)" fill="#32190e"/>
        </g>
      </g>
      <g id="Group_79" data-name="Group 79" transform="translate(47.448 59.818)">
        <g id="Group_78" data-name="Group 78">
          <path id="Path_56" data-name="Path 56" d="M-254.583,256.554a12.749,12.749,0,0,0-2.338,2.761c-.627.935-1.323,2.17-.67,3.257a1,1,0,0,0,.867.5c1.227-.054,1.816-1.1,2.412-2.041s1.263-1.891,1.795-2.881a1.322,1.322,0,0,0-2.066-1.594Z" transform="translate(257.854 -256.217)" fill="#32190e"/>
        </g>
      </g>
      <g id="Group_81" data-name="Group 81" transform="translate(39.175 73.087)">
        <g id="Group_80" data-name="Group 80">
          <path id="Path_57" data-name="Path 57" d="M-266.723,274.712c-1.578.957-3.424,3.5-2.214,5.371a.5.5,0,0,0,.775.1,5.061,5.061,0,0,0,1.152-2.124c.332-.846.737-1.7,1.112-2.523.233-.513-.266-1.163-.825-.825Z" transform="translate(269.328 -274.618)" fill="#32190e"/>
        </g>
      </g>
      <g id="Group_83" data-name="Group 83" transform="translate(47.752 71.991)">
        <g id="Group_82" data-name="Group 82">
          <path id="Path_58" data-name="Path 58" d="M-254.306,273.209a5.2,5.2,0,0,0-2.588,2.851,5.52,5.52,0,0,0-.37,3.559.724.724,0,0,0,1.191.314,13.413,13.413,0,0,0,1.969-2.476,10.849,10.849,0,0,0,1.6-2.866c.386-1.126-.914-1.762-1.8-1.382Z" transform="translate(257.432 -273.099)" fill="#32190e"/>
        </g>
      </g>
      <g id="Group_85" data-name="Group 85" transform="translate(29.658 88.948)">
        <g id="Group_84" data-name="Group 84">
          <path id="Path_59" data-name="Path 59" d="M-278.528,296.7a7.556,7.556,0,0,0-3.212,3.479c-.608,1.284-1.109,3.111-.532,4.482.133.318.608.587.885.234a16.672,16.672,0,0,0,1.723-3.5c.588-1.3,1.3-2.584,1.984-3.843a.626.626,0,0,0-.849-.85Z" transform="translate(282.526 -296.615)" fill="#32190e"/>
        </g>
      </g>
      <g id="Group_87" data-name="Group 87" transform="translate(37.822 89.486)">
        <g id="Group_86" data-name="Group 86">
          <path id="Path_60" data-name="Path 60" d="M-267.9,297.379c-.761.182-1.327,1.009-1.814,1.581a7.962,7.962,0,0,0-.787.966c-.241.4-.386.86-.607,1.271a.734.734,0,0,0,1.148.886c.306-.293.65-.539.954-.83a6.648,6.648,0,0,0,.827-1.109,4.223,4.223,0,0,0,1.042-2.183.612.612,0,0,0-.763-.582Z" transform="translate(271.204 -297.361)" fill="#32190e"/>
        </g>
      </g>
      <g id="Group_89" data-name="Group 89" transform="translate(19.686 107.531)">
        <g id="Group_88" data-name="Group 88">
          <path id="Path_61" data-name="Path 61" d="M-295.2,322.919a12.289,12.289,0,0,0-1.149,3.5.842.842,0,0,0,1.424.59,11.242,11.242,0,0,0,1.617-2.979,1.133,1.133,0,0,0-.393-1.5,1.1,1.1,0,0,0-1.5.394Z" transform="translate(296.355 -322.385)" fill="#32190e"/>
        </g>
      </g>
      <g id="Group_91" data-name="Group 91" transform="translate(230.273 161.893)">
        <g id="Group_90" data-name="Group 90" transform="translate(0)">
          <path id="Path_62" data-name="Path 62" d="M-2.359,397.936c-.779.6-1.024,1.819-1.377,2.694a5.757,5.757,0,0,0-.531,3,.791.791,0,0,0,1.154.469,4.464,4.464,0,0,0,1.721-2.841c.218-1,.538-2.287-.049-3.205a.6.6,0,0,0-.918-.118Z" transform="translate(4.312 -397.775)" fill="#32190e"/>
        </g>
      </g>
      <g id="Group_93" data-name="Group 93" transform="translate(222.81 176.194)">
        <g id="Group_92" data-name="Group 92" transform="translate(0)">
          <path id="Path_63" data-name="Path 63" d="M-12.176,417.767a4.322,4.322,0,0,0-1.935,1.855c-.265.645-.855,1.671-.361,2.339a.828.828,0,0,0,.908.369c.7-.26.729-.872,1.188-1.359a7.637,7.637,0,0,1,1.343-1.249,1.134,1.134,0,0,0-1.144-1.956Z" transform="translate(14.663 -417.608)" fill="#32190e"/>
        </g>
      </g>
      <g id="Group_95" data-name="Group 95" transform="translate(219.533 167.544)">
        <g id="Group_94" data-name="Group 94" transform="translate(0)">
          <path id="Path_64" data-name="Path 64" d="M-16.131,405.849a25.891,25.891,0,0,0-1.876,2.4A4.783,4.783,0,0,0-19.2,410.97a.984.984,0,0,0,1.457.836c.853-.384,1.374-1.553,1.777-2.364a25.694,25.694,0,0,0,1.179-2.811.809.809,0,0,0-1.343-.782Z" transform="translate(19.207 -405.612)" fill="#32190e"/>
        </g>
      </g>
      <g id="Group_97" data-name="Group 97" transform="translate(212.551 186.017)">
        <g id="Group_96" data-name="Group 96" transform="translate(0)">
          <path id="Path_65" data-name="Path 65" d="M-24.376,431.236a5.158,5.158,0,0,0-1.443.232,5.625,5.625,0,0,0-1.3.826,5.368,5.368,0,0,0-1.736,2.135.606.606,0,0,0,.581.763,5.5,5.5,0,0,0,2.633-.979,5.519,5.519,0,0,0,1.085-.862,5.187,5.187,0,0,0,.758-1.364.519.519,0,0,0-.578-.751Z" transform="translate(28.889 -431.23)" fill="#32190e"/>
        </g>
      </g>
      <g id="Group_99" data-name="Group 99" transform="translate(200.936 194.239)">
        <g id="Group_98" data-name="Group 98">
          <path id="Path_66" data-name="Path 66" d="M-41.617,442.876c-.73-.518-1.542-.113-2.194.329a2.18,2.18,0,0,0-1.179,1.834,1.018,1.018,0,0,0,.979.979c.748.088,1.345-.5,1.883-.88a2.033,2.033,0,0,0,.916-1.022,1.1,1.1,0,0,0-.405-1.24Z" transform="translate(44.997 -442.633)" fill="#32190e"/>
        </g>
      </g>
      <g id="Group_101" data-name="Group 101" transform="translate(188.758 37.134)">
        <g id="Group_100" data-name="Group 100" transform="translate(0)">
          <path id="Path_67" data-name="Path 67" d="M-61.821,225.946c3.025,7.248,7.511,14.027,11.361,20.874q6.123,10.893,11.884,21.982c5.562,10.726,10.449,21.854,16.288,32.426a1.229,1.229,0,0,0,2.237-.943,73.887,73.887,0,0,0-5.162-13.093q-4.678-10.008-9.788-19.8-5.747-11.078-11.873-21.953c-3.925-6.944-7.924-14.532-13.358-20.416-.609-.659-1.961.029-1.588.924Z" transform="translate(61.885 -224.76)" fill="#32190e"/>
        </g>
      </g>
      <g id="Group_103" data-name="Group 103" transform="translate(199.574 73.137)">
        <g id="Group_102" data-name="Group 102">
          <path id="Path_68" data-name="Path 68" d="M-46.885,275.527a7.411,7.411,0,0,0,1.249,3.7c.646,1.009,1.772,2.514,3.144,2.334a1.088,1.088,0,0,0,1.059-1.059c0-1.191-1.075-2.094-1.816-2.913-.77-.852-1.451-1.787-2.2-2.657a.848.848,0,0,0-1.434.594Z" transform="translate(46.886 -274.688)" fill="#32190e"/>
        </g>
      </g>
      <g id="Group_105" data-name="Group 105" transform="translate(194.44 79.676)">
        <g id="Group_104" data-name="Group 104">
          <path id="Path_69" data-name="Path 69" d="M-54.006,285.238a7.607,7.607,0,0,0,1.172,4.08c.664,1.02,2.088,2.085,3.391,1.751a.805.805,0,0,0,.548-.966,3.718,3.718,0,0,0-.523-1.059,11.715,11.715,0,0,0-.708-1.309,4.637,4.637,0,0,1-.81-2.5,1.536,1.536,0,0,0-3.07,0Z" transform="translate(54.006 -283.756)" fill="#32190e"/>
        </g>
      </g>
      <g id="Group_107" data-name="Group 107" transform="translate(204.75 89.281)">
        <g id="Group_106" data-name="Group 106" transform="translate(0)">
          <path id="Path_70" data-name="Path 70" d="M-39.705,298.31c-.05,1.3.574,4.727,2.537,4.161.875-.253.9-1.248.563-1.945a4.216,4.216,0,0,1-.542-2.217c.085-1.641-2.495-1.646-2.558,0Z" transform="translate(39.708 -297.077)" fill="#32190e"/>
        </g>
      </g>
      <g id="Group_109" data-name="Group 109" transform="translate(211.967 91.416)">
        <g id="Group_108" data-name="Group 108">
          <path id="Path_71" data-name="Path 71" d="M-29.566,302.21c.314.679.569,1.387.842,2.084a5.022,5.022,0,0,0,1.228,2.261,1.508,1.508,0,0,0,2.488-.657c.511-1.966-1.144-4.006-2.349-5.392-1.119-1.287-2.837.351-2.209,1.7Z" transform="translate(29.7 -300.038)" fill="#32190e"/>
        </g>
      </g>
      <g id="Group_111" data-name="Group 111" transform="translate(205.22 106.69)">
        <g id="Group_110" data-name="Group 110" transform="translate(0)">
          <path id="Path_72" data-name="Path 72" d="M-39.056,322.242a15.722,15.722,0,0,0,.226,2.555c.132.756.306,1.731,1.062,2.085a.862.862,0,0,0,1.15-.3,2.764,2.764,0,0,0-.016-2.094,14.891,14.891,0,0,1-.3-2.244,1.06,1.06,0,0,0-2.119,0Z" transform="translate(39.056 -321.219)" fill="#32190e"/>
        </g>
      </g>
      <g id="Group_113" data-name="Group 113" transform="translate(23.719 177.989)">
        <g id="Group_112" data-name="Group 112">
          <path id="Path_73" data-name="Path 73" d="M-290.734,420.155a.029.029,0,0,0,0-.058.029.029,0,0,0,0,.058Z" transform="translate(290.762 -420.097)" fill="#32190e"/>
        </g>
      </g>
      <g id="Group_126" data-name="Group 126" transform="translate(65.784 72.711)">
        <path id="Path_74" data-name="Path 74" d="M-225.182,294.313l7.168.892,4.312,2.273-.161,2.544-3.741,2.146-6.269.64-5.9-2.378.679-3.124Z" transform="translate(231.686 -279.736)" fill="#d9888a"/>
        <path id="Path_75" data-name="Path 75" d="M-101.377,296.838l7.168.892L-89.9,300l-.161,2.545-3.741,2.146-6.269.64-5.9-2.378.679-3.124Z" transform="translate(197.155 -280.441)" fill="#d9888a"/>
        <g id="Group_115" data-name="Group 115" transform="translate(44.51 17.895)">
          <g id="Group_114" data-name="Group 114">
            <path id="Path_76" data-name="Path 76" d="M-170.652,301.056c1.046,3.959,5.73,5.231,9.332,5.635a16.181,16.181,0,0,0,12.156-3.268c2.52-2.1-.691-5.461-3.281-4.252-2.972,1.387-5.658,2.436-9.019,2.01-2.7-.342-5.032-1.961-7.78-1.972a1.476,1.476,0,0,0-1.408,1.848Z" transform="translate(170.7 -298.915)" fill="#32190e"/>
          </g>
        </g>
        <g id="Group_117" data-name="Group 117" transform="translate(50.404 8.478)">
          <g id="Group_116" data-name="Group 116">
            <path id="Path_77" data-name="Path 77" d="M-161.152,290.9c.9-.911,1.414-2.222,2.832-2.457a2.759,2.759,0,0,1,3,2.292c.392,1.759,3.166,1.015,2.713-.748a5.356,5.356,0,0,0-5.639-4.106c-2.112.229-4.929,2.318-4.15,4.691a.751.751,0,0,0,1.242.328Z" transform="translate(162.526 -285.856)" fill="#32190e"/>
          </g>
        </g>
        <g id="Group_119" data-name="Group 119" transform="translate(20.928)">
          <g id="Group_118" data-name="Group 118">
            <path id="Path_78" data-name="Path 78" d="M-196.639,284.725c-.111-.121.1.463-.05-.033-.06-.2-.022-.514-.062-.73-.069-.359-.218-.692-.27-1.049a1.9,1.9,0,0,1,.175-1.477c.091-.149.505-.154.256-.133-.433.038.059.052.075.094,0,0-.275-.348-.3-.4-.241-.433.309-.339,0-.143.111-.071.261-.272.406-.366.387-.248.781.335.216-.057.429.3-.3-.306-.439-.388a4.759,4.759,0,0,0-2.479-.679,3.593,3.593,0,0,0-3.453,2.776A4.663,4.663,0,0,0-200.3,287.1c4.692,2.971,11.2-.438,11.058-6.117a7.144,7.144,0,0,0-11.544-5.338,7.135,7.135,0,0,0-2.4,7.249,5.472,5.472,0,0,0,2.444,3.2c1.2.766,2.077.485,3.354.446a1.076,1.076,0,0,0,.751-1.813Z" transform="translate(203.403 -274.098)" fill="#32190e"/>
          </g>
        </g>
        <g id="Group_121" data-name="Group 121" transform="translate(75.587 0.203)">
          <g id="Group_120" data-name="Group 120">
            <path id="Path_79" data-name="Path 79" d="M-120.876,282.484l-.159-.155.683,1.649c.064.49-.093.572.021.169a4.842,4.842,0,0,0,.045-1.85c.03.649.08-.967.11-.763-.1-.675.51-.312-.5.215a2.342,2.342,0,0,1-.562.146q.609.025.218-.009-.395-.052.218.082c-.474-.305.066.1.27.16.642.2-.228.064-.042-.074l-.086-.216a1.987,1.987,0,0,1,.631-2.155c0-.006.946-.527.105-.092.488-.252.412.141-.1-.041-.242-.014-.23-.012.036.007q.483.057-.125-.083l.355.151q-.517-.329-.157-.046c.657.467-.743-.505-.982-.721.524.47.04-.03-.154-.27a3.871,3.871,0,0,0-4.664-.6,3.942,3.942,0,0,0-1.768,4.347c1.1,4.286,5.813,6.347,9.908,5.129a6.829,6.829,0,0,0,4.779-4.844c.632-2.785-.965-5.407-3.243-6.9-3.574-2.337-9.172-1.736-10.748,2.692a8.088,8.088,0,0,0,.38,6.116,3.491,3.491,0,0,0,5.092,1.331,2.178,2.178,0,0,0,.436-3.376Z" transform="translate(127.602 -274.379)" fill="#32190e"/>
          </g>
        </g>
        <g id="Group_123" data-name="Group 123" transform="translate(90.097 15.599)">
          <g id="Group_122" data-name="Group 122">
            <path id="Path_80" data-name="Path 80" d="M-97.5,304.255c-1.758.152-5.686-.738-6.772-2.518-1.862-3.052,4.973-3.288,6.592-3.2,1.422.076,3.189.239,4.232,1.36,1.332,1.431.1,2.877-1.478,3.37-1.925.6-3.952.364-5.769,1.32a.648.648,0,0,0-.129,1c2.7,3.164,10.032,1.271,11.249-2.65,1.5-4.825-3.84-7.11-7.643-7.2-3.7-.085-10.438.206-10.258,5.5.151,4.436,6.813,6.225,10.272,5.2,1.157-.343,1-2.3-.3-2.189Z" transform="translate(107.48 -295.731)" fill="#32190e"/>
          </g>
        </g>
        <g id="Group_125" data-name="Group 125" transform="translate(0 13.649)">
          <g id="Group_124" data-name="Group 124">
            <path id="Path_81" data-name="Path 81" d="M-222.982,301.926c-1.773-.376-8.369-1.819-4.327-4.975,1.1-.862,4.54-.7,5.849-.622a8.163,8.163,0,0,1,3.631.91c2.188,1.3,1.328,2.828-.685,3.443-2.2.673-4.438.258-6.686.472-.976.093-1.893,1.442-.918,2.215,3.411,2.706,10.017,1.929,12.509-1.918,2.777-4.285-2.638-7.712-6.309-8.225-3.832-.535-10.715-.264-12.238,4.184-1.734,5.063,5.344,6.763,8.9,6.513,1.078-.076,1.459-1.746.27-2Z" transform="translate(232.426 -293.026)" fill="#32190e"/>
          </g>
        </g>
      </g>
      <g id="Group_128" data-name="Group 128" transform="translate(59.651 31.711)">
        <g id="Group_127" data-name="Group 127">
          <path id="Path_82" data-name="Path 82" d="M-240.6,219.484c1.824,2.139,3.14,4.1,5.425,5.87a47.19,47.19,0,0,0,7.715,4.726,87.929,87.929,0,0,0,17.2,6.273c13.381,3.524,26.553,4.4,40.348,3.68,13.391-.7,26.392-.994,39.745.5a79.464,79.464,0,0,1,18.081,3.763c5.947,2.135,10.807,6.1,16.518,8.582a2,2,0,0,0,2.413-3.128c-7.707-8.643-20.814-12.2-31.82-13.726a188.6,188.6,0,0,0-37.113-1.42c-14.366.841-28.279,1.609-42.455-1.437a99.243,99.243,0,0,1-18.665-5.75c-5.271-2.286-11.59-5.542-15.557-9.767-1.157-1.232-2.905.579-1.834,1.834Z" transform="translate(240.932 -217.239)" fill="#32190e"/>
        </g>
      </g>
      <g id="Group_130" data-name="Group 130" transform="translate(76.828 28.089)">
        <g id="Group_129" data-name="Group 129">
          <path id="Path_83" data-name="Path 83" d="M-216.839,213.841c4.633,4.169,10.091,6.484,16.06,8.06,6.9,1.823,13.848,3.46,20.75,5.279.572.151,1.148-.652.622-1.069-10.334-8.191-25.635-5.671-36.3-13.733-.844-.637-1.91.761-1.129,1.463Z" transform="translate(217.111 -212.216)" fill="#32190e"/>
        </g>
      </g>
      <g id="Group_132" data-name="Group 132" transform="translate(91.345 20.911)">
        <g id="Group_131" data-name="Group 131">
          <path id="Path_84" data-name="Path 84" d="M-196.752,203.88c2.693,3.339,7.633,5.163,11.526,6.622,6.393,2.4,13.318,2.761,19.992,3.913a47.549,47.549,0,0,1,11.452,3.2c3.162,1.421,6.072,3.336,9.257,4.713,6.682,2.888,13.828,4.213,20.927,2.365a1.01,1.01,0,0,0-.267-1.974c-7.624-.5-14.942-1.31-21.863-4.758-5.95-2.965-11.311-5.441-17.958-6.578-6.312-1.08-12.847-1.331-19.05-2.987-4.089-1.092-9.784-2.673-12.7-5.83-.829-.9-2.054.4-1.317,1.317Z" transform="translate(196.978 -202.261)" fill="#32190e"/>
        </g>
      </g>
      <g id="Group_134" data-name="Group 134" transform="translate(149.248 30.032)">
        <g id="Group_133" data-name="Group 133" transform="translate(0)">
          <path id="Path_85" data-name="Path 85" d="M-116.031,217.419c4.339,2.749,9.174,3.158,14.171,3.622a39.36,39.36,0,0,1,8.652,1.423c2.781.9,5.108,2.671,7.86,3.537a1.052,1.052,0,0,0,1.176-1.53c-7.029-10.154-21.148-4.482-30.494-9.386a1.353,1.353,0,0,0-1.365,2.335Z" transform="translate(116.678 -214.91)" fill="#32190e"/>
        </g>
      </g>
      <g id="Group_136" data-name="Group 136" transform="translate(96.36 9.576)">
        <g id="Group_135" data-name="Group 135">
          <path id="Path_86" data-name="Path 86" d="M-189.665,187.985c4.6,2.786,9.109,2.8,14.3,3.7,5.929,1.028,10.728,5.015,16.539,6.093.9.167,1.8-.963.978-1.679a36.381,36.381,0,0,0-14.788-7.112c-5.4-1.159-11.165-.665-16.434-2.406-.842-.278-1.32.961-.591,1.4Z" transform="translate(190.023 -186.542)" fill="#32190e"/>
        </g>
      </g>
      <path id="Path_87" data-name="Path 87" d="M-312.351,333.47a30.279,30.279,0,0,1,2.572-4.827,2.714,2.714,0,0,1,2.269-1.195s-2.724,3.594-5.623,13.776Z" transform="translate(320.721 -216.266)" fill="#32190e"/>
      <path id="Path_88" data-name="Path 88" d="M-12.052,321.219S.5,348.879,1.145,369.3l2.429-.924s.24-2.18-.66-8.681S-2.819,334.1-7.066,324.1Z" transform="translate(236.744 -214.529)" fill="#32190e"/>
      <g id="Group_138" data-name="Group 138" transform="translate(8.363 167.399)">
        <g id="Group_137" data-name="Group 137">
          <path id="Path_89" data-name="Path 89" d="M-311.815,405.748c-.606,1.054.07,2.4.472,3.433a5.85,5.85,0,0,0,2.25,2.864.609.609,0,0,0,.885-.361,5.868,5.868,0,0,0-.593-3.575c-.483-.967-1.061-2.431-2.229-2.681a.717.717,0,0,0-.785.319Z" transform="translate(312.057 -405.411)" fill="#32190e"/>
        </g>
      </g>
      <g id="Group_140" data-name="Group 140" transform="translate(16.535 179.055)">
        <g id="Group_139" data-name="Group 139">
          <path id="Path_90" data-name="Path 90" d="M-300.658,423.725a5.222,5.222,0,0,0,1.625,2.617,3.307,3.307,0,0,0,3.259.658,1.2,1.2,0,0,0,.284-2.171,3.016,3.016,0,0,1-.43-.418c-.23-.238-.705-.595-.81-.686a1.805,1.805,0,0,1-.58-.923,1.737,1.737,0,0,0-3.347.923Z" transform="translate(300.724 -421.576)" fill="#32190e"/>
        </g>
      </g>
      <g id="Group_142" data-name="Group 142" transform="translate(19.174 172.236)">
        <g id="Group_141" data-name="Group 141">
          <path id="Path_91" data-name="Path 91" d="M-296.62,414.787l.7.813a3.133,3.133,0,0,0,.922.864,1.327,1.327,0,0,0,1.3,0,1.267,1.267,0,0,0,.637-1.11,6.9,6.9,0,0,0-1.09-2.47,1.57,1.57,0,0,0-2.308-.441,1.579,1.579,0,0,0-.159,2.344Z" transform="translate(297.064 -412.119)" fill="#32190e"/>
        </g>
      </g>
      <path id="Path_92" data-name="Path 92" d="M-286,346.561s9.783,45.526,13.347,48.886,19.592,8.623,28.269,8,12.411,4.521,11.187,6.147-7.762,3.063-7.762,3.063,7.534,1.105,9.132,3.179a3.313,3.313,0,0,1-2.258,5.47s-2.63.337-.025,2.31,1.369,3.891,0,4.115,2.283,3.191,1.256,4.447-6,1.082-6,1.082.9,3.451-.44,3.451-41.965-12.638-49.042-17.547S-286,346.561-286,346.561Z" transform="translate(314.539 -221.598)" fill="#c5ce82"/>
      <g id="Group_144" data-name="Group 144" transform="translate(37.446 193.672)">
        <g id="Group_143" data-name="Group 143">
          <path id="Path_93" data-name="Path 93" d="M-271.237,444.888a5.609,5.609,0,0,0,4.594,1.9,1.7,1.7,0,0,0,1.578-1.2,1.64,1.64,0,0,0-.752-1.849,18.677,18.677,0,0,1-3.294-1.6c-1.669-1.136-3.515,1.374-2.126,2.755Z" transform="translate(271.726 -441.847)" fill="#32190e"/>
        </g>
      </g>
      <g id="Group_146" data-name="Group 146" transform="translate(0 111.422)">
        <g id="Group_145" data-name="Group 145">
          <path id="Path_94" data-name="Path 94" d="M-314.9,331.723c-7.694,17.589-13.046,43.144-4.066,61.11,3.822,7.648,9.974,13.892,16.739,18.995a106.4,106.4,0,0,0,12.142,7.825c3.864,2.165,22.906,9.151,27.286,10.012,1.069.21,12.585.73,11.355.371-3.884-1.136-31.837-10.674-35.266-12.554a126.032,126.032,0,0,1-10.836-6.583c-7.018-4.824-13.417-10.751-17.646-18.22-10.092-17.822-2.7-45.522,2.481-63.941.206-.733-.182-1.364-.5-.626Z" transform="translate(323.655 -327.782)" fill="#32190e"/>
        </g>
      </g>
      <g id="Group_148" data-name="Group 148" transform="translate(39.316 128.281)">
        <g id="Group_147" data-name="Group 147">
          <path id="Path_95" data-name="Path 95" d="M-262.909,431.279a164.731,164.731,0,0,0,29.355,8.007,1.358,1.358,0,0,0,1.694-1.29l-.1-4.25-1.355,1.355,6.007.557a1.386,1.386,0,0,0,1.379-1.38A8.041,8.041,0,0,0-230,427.41l-.711,2.625,5.889-.334a1.454,1.454,0,0,0,1.237-2.155,10.883,10.883,0,0,0-7.314-6.167v2.832c2.758-.866,8.342-1.283,8.225-5.177-.106-3.514-4.38-4.222-7.075-4.716a23.854,23.854,0,0,0-2.8-.506,10.157,10.157,0,0,1-1.16-.286q-.949-.428.035.958c1.2.143,4.226-1.41,5.349-1.979,2.366-1.2,3.458-3.566,1.754-5.935-2.358-3.278-7.126-3.848-10.8-3.936a85.277,85.277,0,0,1-17.6-1.835c-7.338-1.708-10.242-13.832-9.737-26.64.291-7.381,3.842-14.451,5.479-20.29.857-3.054-2.739-4.024-3.71-.258-2.091,8.118-10.915,19.11-2.835,41.506,3.132,8.683,15.508,10.678,24.563,10.829a47.934,47.934,0,0,1,7.146.226c1.094.184,2.938.471,3.75,1.341,2.139,2.292.081,2.372-1.371,2.892-1.641.586-4.91,1.218-5.278,3.352-.366,2.118,2.041,2.685,3.6,3.035,1.706.383,3.774.318,5.4,1l1.006.293q1.939,1.9-.585,1.961c-.948.737-3.016.974-4.127,1.333a1.481,1.481,0,0,0,0,2.832,8.218,8.218,0,0,1,5.622,4.78l1.237-2.155-5.889.381a1.421,1.421,0,0,0-.711,2.625,4.738,4.738,0,0,1,2.738,4.435l1.38-1.379-6.007-.507a1.365,1.365,0,0,0-1.356,1.355l.134,4.25,1.694-1.29a201.812,201.812,0,0,1-29.645-6.952c-.981-.314-1.363,1.179-.421,1.525Z" transform="translate(269.132 -351.163)" fill="#32190e"/>
        </g>
      </g>
      <path id="Path_96" data-name="Path 96" d="M-69.816,427.1s-19.27,4.487-22.809,4.03-10.73-2.669-10.958-1.049,1.6,4.474,0,5.159-12.214,1.447-12.443,3.064,7.983,4.232,7.983,4.232a5.017,5.017,0,0,1-2.846,2.292c-2.169.8-5.365,2.625-2.169,3.653s7.534.115,5.822,2.055-6.278,4.68-4.109,5.137,4.176-.009,3.424.969-3.479,3.625.114,3.6,19.516-4.566,27.623-6.507,16.609-7.682,16.609-7.682Z" transform="translate(265.746 -244.06)" fill="#c5ce82"/>
      <path id="Path_97" data-name="Path 97" d="M-64.727,411.264s24.481-1.285,10.666-40.525a3.035,3.035,0,0,1-.027-2.271,1.131,1.131,0,0,1,1.8-.589c1.94,1.116,17.554,40.063-10.971,47.3Z" transform="translate(251.436 -227.476)" fill="#32190e"/>
      <g id="Group_150" data-name="Group 150" transform="translate(147.59 183.036)">
        <g id="Group_149" data-name="Group 149" transform="translate(0)">
          <path id="Path_98" data-name="Path 98" d="M-67.294,447.464a171.1,171.1,0,0,1-25.126,8.09c-3.611.835-7.086,2.444-10.756,3.031-1.444.231-4.022.941-5.529.591-1.3-.3-.346-.073.511-1a3,3,0,0,0,.873-1.258c.764-2.915-1.765-1.378-2.983-2.575-.745-.732,1.666-.709,2.6-1.275a3.5,3.5,0,0,0,1.949-2.731c.279-2.982-2.62-3.29-4.831-3.356-.662-.02-4.562.13-2.261-.381.71-.158,1.5.04,2.226-.1a8.78,8.78,0,0,0,4.532-2.543,1.485,1.485,0,0,0-.648-2.457c-1.764-.531-3.522-1.088-5.293-1.593q-1.324-.4-2.669-.717-2.69-.345.02-.671c3.384-1.721,8.215-1.484,11.912-1.471a1.529,1.529,0,0,0,1.449-1.9c-.2-1.339-1.664-2.638-1.46-3.865.186-1.121.792-.508,1.813-.191a38.917,38.917,0,0,0,5.85,1.409c6.958,1.032,15.219.537,21.6-2.5a1.476,1.476,0,0,0-.74-2.731c-8.45.45-16.037,3.225-24.5.915-1.958-.535-4.748-1.836-6.64-.529-3.535,2.443.829,5.775,1.178,8.289l1.45-1.9a36.965,36.965,0,0,0-9.931,1.27c-1.659.439-5.164.96-6.04,2.8-2,4.2,9.1,5.62,11.219,6.228l-.649-2.457c-1.8,1.892-3.489,1.9-5.72,2.577a4.544,4.544,0,0,0-1.33.427,2.758,2.758,0,0,0-1.218,2.656,3.758,3.758,0,0,0,2.729,2.636c.939.3,1.888-.092,2.739.045.462.075-1.6.246-2.23.62-2.239,1.323-3.613,5.406-.392,6.527,1.072.373,3.7-.68,3.82-.2-.058-.243-1.552,1.753-1.546,1.733a2.137,2.137,0,0,0,.138,1.545,1.013,1.013,0,0,0,.951.724c6.765.263,13.873-1.519,20.362-2.885A140.249,140.249,0,0,0-69,452.353c1.1-.437,9.505-5.063,8.084-4.888Z" transform="translate(118.978 -427.096)" fill="#32190e"/>
        </g>
      </g>
      <path id="Path_99" data-name="Path 99" d="M-219.461,464.534s32.1,11.181,81.816,1.671l-.805,3.412s-34.541,9.67-79.556,0Z" transform="translate(294.594 -254.502)" fill="#32190e"/>
      <path id="Path_100" data-name="Path 100" d="M-105.968,206.7s13.48-6.889,22.666,3.343A28.771,28.771,0,0,0-105.968,206.7Z" transform="translate(262.939 -181.956)" fill="#fff"/>
      <path id="Path_101" data-name="Path 101" d="M19.151-18.748a3.512,3.512,0,0,1-2.623-1.093,3.594,3.594,0,0,1-1.062-2.592V-56.412q0-.437-.5-.437H6.284A3.512,3.512,0,0,1,3.66-57.943,3.594,3.594,0,0,1,2.6-60.535v-2.124A3.594,3.594,0,0,1,3.66-65.251a3.512,3.512,0,0,1,2.623-1.093H36.14a3.542,3.542,0,0,1,2.592,1.093,3.542,3.542,0,0,1,1.093,2.592v2.124a3.542,3.542,0,0,1-1.093,2.592,3.542,3.542,0,0,1-2.592,1.093H27.333a.386.386,0,0,0-.437.437v33.979A3.542,3.542,0,0,1,25.8-19.841a3.542,3.542,0,0,1-2.592,1.093Zm61.524-5.809q-6,6.683-15.834,6.683T49.007-24.557q-6-6.683-6-18.239,0-11.493,5.965-17.958t15.865-6.465q9.9,0,15.865,6.465T86.671-42.8Q86.671-31.24,80.675-24.557ZM57.44-31.74a8.422,8.422,0,0,0,7.4,4.06,8.481,8.481,0,0,0,7.433-4.091q2.717-4.091,2.717-11.024,0-6.871-2.717-10.775a8.585,8.585,0,0,0-7.433-3.9,8.507,8.507,0,0,0-7.4,3.9q-2.686,3.9-2.686,10.775Q54.754-35.8,57.44-31.74ZM99.1-18.748a3.542,3.542,0,0,1-2.592-1.093,3.542,3.542,0,0,1-1.093-2.592V-62.658a3.542,3.542,0,0,1,1.093-2.592A3.542,3.542,0,0,1,99.1-66.344h12.992a32.869,32.869,0,0,1,7.464.781,18.773,18.773,0,0,1,6.027,2.53,11.745,11.745,0,0,1,4.185,4.841,16.666,16.666,0,0,1,1.5,7.339,16.68,16.68,0,0,1-1.53,7.308,13.49,13.49,0,0,1-4.154,5.122,18.717,18.717,0,0,1-5.965,2.9,25.826,25.826,0,0,1-7.214.968h-5.059a.442.442,0,0,0-.5.5v11.618a3.594,3.594,0,0,1-1.062,2.592,3.512,3.512,0,0,1-2.623,1.093Zm7.745-25.3a.442.442,0,0,0,.5.5h4.5q8.245,0,8.245-7.308,0-3.5-2.124-4.966t-6.433-1.468h-4.185q-.5,0-.5.437Z" transform="translate(57.376 187.839)" fill="#32190e"/>
    </g>
  </g>
</svg>
