<svg xmlns="http://www.w3.org/2000/svg" width="73" height="73" viewBox="0 0 73 73">
  <g id="icon-account" transform="translate(-427 -504)">
    <path id="icon-account-2" data-name="icon-account" d="M25.08,0a25.078,25.078,0,1,0,25.08,25.078A25.08,25.08,0,0,0,25.08,0Zm0,7.5a8.3,8.3,0,1,1-8.294,8.3A8.3,8.3,0,0,1,25.08,7.5Zm-.006,36.1a18.406,18.406,0,0,1-11.986-4.42,3.535,3.535,0,0,1-1.24-2.687,8.366,8.366,0,0,1,8.406-8.364h9.652A8.354,8.354,0,0,1,38.3,36.494a3.526,3.526,0,0,1-1.239,2.686A18.4,18.4,0,0,1,25.074,43.6Z" transform="translate(438 514.999)" fill="#00ae42"/>
    <rect id="Rectangle_1" data-name="Rectangle 1" width="73" height="73" transform="translate(427 504)" fill="none"/>
  </g>
</svg>
