<svg xmlns="http://www.w3.org/2000/svg" width="73" height="73" viewBox="0 0 73 73">
  <g id="icon-password" transform="translate(-514 -504)">
    <path id="icon-password-2" data-name="icon-password" d="M101.917,19.5h-3.25V15.167a15.167,15.167,0,1,0-30.333,0V19.5h-3.25A1.083,1.083,0,0,0,64,20.583V47.667A4.338,4.338,0,0,0,68.333,52H98.667A4.338,4.338,0,0,0,103,47.667V20.583A1.083,1.083,0,0,0,101.917,19.5ZM86.744,42.13a1.084,1.084,0,0,1-1.077,1.2H81.333a1.084,1.084,0,0,1-1.077-1.2l.683-6.146A4.286,4.286,0,0,1,79.167,32.5a4.333,4.333,0,0,1,8.667,0,4.286,4.286,0,0,1-1.773,3.485ZM92.167,19.5H74.833V15.167a8.667,8.667,0,1,1,17.333,0Z" transform="translate(467 515)" fill="#00ae42"/>
    <rect id="Rectangle_2" data-name="Rectangle 2" width="73" height="73" transform="translate(514 504)" fill="none"/>
  </g>
</svg>
