<svg xmlns="http://www.w3.org/2000/svg" width="596.646" height="81.743" viewBox="0 0 596.646 81.743">
  <g id="logo" transform="translate(4.059 -163.292)">
    <g id="Group_4" data-name="Group 4" transform="translate(-4.059 163.292)">
      <circle id="Ellipse_1" data-name="Ellipse 1" cx="40.871" cy="40.871" r="40.871" transform="translate(0 0.001)" fill="#fff"/>
      <g id="Group_3" data-name="Group 3">
        <g id="Group_1" data-name="Group 1" transform="translate(0.92 45.796)">
          <path id="Path_1" data-name="Path 1" d="M32.031,189.685C18.317,184.1.826,189.445-3.6,190.979a39.552,39.552,0,0,0,1.524,5.267c6.872-1.993,21.038-5.015,32.557-.322C53.2,205.187,68,200.89,74.215,197.989a40.681,40.681,0,0,0,2.085-6.5C70.454,194.378,55.472,199.238,32.031,189.685Z" transform="translate(3.599 -187.196)" fill="#2d874d"/>
          <path id="Path_2" data-name="Path 2" d="M30.141,195.437c-11.129-4.533-24.745-1.863-31.849.12a40.541,40.541,0,0,0,3.185,5.079c7.5-1.584,18.111-2.633,27.114,1.034,14.424,5.886,25.627,6.29,33.495,5.071a41.7,41.7,0,0,0,6.294-7.25C60.6,201.646,47.76,202.619,30.141,195.437Z" transform="translate(5.489 -181.446)" fill="#2d874d"/>
          <path id="Path_3" data-name="Path 3" d="M1.928,199.662a41,41,0,0,0,48.364,7.1,71.181,71.181,0,0,1-23.785-5.568C18.483,197.92,9.174,198.4,1.928,199.662Z" transform="translate(9.123 -175.695)" fill="#2d874d"/>
        </g>
        <g id="Group_2" data-name="Group 2">
          <path id="Path_4" data-name="Path 4" d="M39.629,198.159a6.707,6.707,0,0,0,6.718-6.708,6.641,6.641,0,0,0-2.381-5.077,8.484,8.484,0,0,1,.19,1.743,8.3,8.3,0,0,1-1.48,4.745c-1.02,1.852-3.321,3.635-5.4,4.861A6.659,6.659,0,0,0,39.629,198.159Zm-2.717-33.867A40.969,40.969,0,0,0-4.059,205.265c0,1.278.064,2.539.174,3.785,5.382-2.819,20.622-8.41,44.9,1.494,15.824,6.45,36.686-1.672,36.7-1.678.1-1.19.162-2.383.162-3.6A40.972,40.972,0,0,0,36.912,164.292Zm.878,37.7A10.867,10.867,0,0,1,26.918,191.13c0-5.994,11.633-18.4,11.121-18.907-.238-.238,10.609,13.614,10.609,18.907A10.867,10.867,0,0,1,37.789,202Z" transform="translate(4.059 -164.292)" fill="#0085bd"/>
        </g>
      </g>
    </g>
    <path id="Path_5" data-name="Path 5" d="M28.063-24.37a1.221,1.221,0,0,1,.893.378,1.239,1.239,0,0,1,.378.908,1.19,1.19,0,0,1-.378.893,1.247,1.247,0,0,1-.893.363H13.956a1.232,1.232,0,0,1-.908-.363,1.214,1.214,0,0,1-.363-.893,1.265,1.265,0,0,1,.363-.908,1.207,1.207,0,0,1,.908-.378Zm.333,12.9a1.006,1.006,0,0,1,.121.893,1.1,1.1,0,0,1-.605.681,1.332,1.332,0,0,1-.545.121,1.536,1.536,0,0,1-.424-.061,1.459,1.459,0,0,1-.757-.636,36.994,36.994,0,0,0-2.452-3.572,2.41,2.41,0,0,1-.515-1.514,2.411,2.411,0,0,1,.424-1.362q1.09-1.635,1.847-3.027a1.742,1.742,0,0,1,.787-.7,1.6,1.6,0,0,1,.666-.151,1.439,1.439,0,0,1,.394.061.91.91,0,0,1,.636.56.871.871,0,0,1-.061.833q-1.09,1.756-2.422,3.663a.278.278,0,0,0,.03.363A37.267,37.267,0,0,1,28.4-11.474ZM20.223-19.92a1.752,1.752,0,0,1,.757-.727,1.6,1.6,0,0,1,.666-.151,2.8,2.8,0,0,1,.394.03.91.91,0,0,1,.636.56.871.871,0,0,1-.061.833q-1.06,1.786-2.331,3.693a.3.3,0,0,0,0,.363,36.658,36.658,0,0,1,2.694,3.875,1,1,0,0,1,.106.908,1.043,1.043,0,0,1-.651.666,1.075,1.075,0,0,1-.484.121,1.14,1.14,0,0,1-.454-.091,1.324,1.324,0,0,1-.727-.636,29.617,29.617,0,0,0-2.24-3.542,2.643,2.643,0,0,1-.484-1.544,2.543,2.543,0,0,1,.394-1.362Q19.466-18.558,20.223-19.92Zm-2.6,8.507a1.063,1.063,0,0,1,.061.923,1.091,1.091,0,0,1-.666.651,1.3,1.3,0,0,1-.454.091,1.454,1.454,0,0,1-.515-.091,1.462,1.462,0,0,1-.727-.666,26.648,26.648,0,0,0-2-3.451,2.915,2.915,0,0,1-.454-1.574,2.751,2.751,0,0,1,.394-1.423q.969-1.6,1.7-2.967a1.584,1.584,0,0,1,.727-.727,1.6,1.6,0,0,1,.666-.151,2.206,2.206,0,0,1,.363.03.961.961,0,0,1,.681.56.9.9,0,0,1-.045.863q-1.06,1.877-2.24,3.693a.3.3,0,0,0,0,.363A33.834,33.834,0,0,1,17.619-11.413ZM2.422-7.084a1.085,1.085,0,0,1,.454-.772,1.188,1.188,0,0,1,.878-.227,1.25,1.25,0,0,1,.817.5,1.1,1.1,0,0,1,.212.893,29.543,29.543,0,0,1-1.362,5.6,1,1,0,0,1-.636.605,1.108,1.108,0,0,1-.878-.061A1.227,1.227,0,0,1,1.3-1.211a1.106,1.106,0,0,1,0-.878A24.609,24.609,0,0,0,2.422-7.084Zm8.083-3.3a.261.261,0,0,0-.272-.212l-1.6.121a.22.22,0,0,0-.212.242V1.15a1.221,1.221,0,0,1-.378.893,1.239,1.239,0,0,1-.908.378,1.19,1.19,0,0,1-.893-.378,1.247,1.247,0,0,1-.363-.893V-10.021a.214.214,0,0,0-.242-.242Q5-10.2,3.92-10.142t-1.377.091H2.452a1.284,1.284,0,0,1-.848-.3,1.319,1.319,0,0,1-.484-1.029,1.163,1.163,0,0,1,.272-.757,1.156,1.156,0,0,1,.848-.424l.7-.03a.568.568,0,0,0,.363-.212q.848-1.09,1.393-1.877a.322.322,0,0,0,.03-.394A29.368,29.368,0,0,0,2-18.376a1.42,1.42,0,0,1-.394-1,1.461,1.461,0,0,1,.272-.848l.091-.121a.941.941,0,0,1,.681-.363.921.921,0,0,1,.711.242q.091.091.151,0a39.318,39.318,0,0,0,1.968-4.269,1.4,1.4,0,0,1,.727-.757,1.113,1.113,0,0,1,.545-.151,1.371,1.371,0,0,1,.484.091,1.185,1.185,0,0,1,.7.7,1.068,1.068,0,0,1,.091.424,1.113,1.113,0,0,1-.151.545q-1.635,3.148-2.785,4.9a.278.278,0,0,0,.03.363q.636.757,1.06,1.332a.205.205,0,0,0,.151.061.119.119,0,0,0,.121-.091q1.332-2.089,2.331-3.966a1.42,1.42,0,0,1,.787-.666,1.3,1.3,0,0,1,.454-.091,1.167,1.167,0,0,1,.575.151,1.1,1.1,0,0,1,.605.7,1.061,1.061,0,0,1,.061.333,1.068,1.068,0,0,1-.182.605q-2.725,4.238-5.146,7.326a.129.129,0,0,0,0,.121.1.1,0,0,0,.091.061l3.209-.212a.122.122,0,0,0,.121-.061.2.2,0,0,0,0-.151q-.212-.515-.545-1.15a.936.936,0,0,1-.061-.8,1.014,1.014,0,0,1,.545-.59,1.342,1.342,0,0,1,.908-.045,1.163,1.163,0,0,1,.7.56,28.488,28.488,0,0,1,1.968,4.3,1.536,1.536,0,0,1,.061.424,1.332,1.332,0,0,1-.121.545,1.306,1.306,0,0,1-.7.7.931.931,0,0,1-.848.015,1.054,1.054,0,0,1-.575-.651Q10.6-10.111,10.5-10.384Zm-1,3.633a.889.889,0,0,1-.061-.333,1.14,1.14,0,0,1,.091-.454,1.011,1.011,0,0,1,.605-.515,1.108,1.108,0,0,1,.878.061,1.11,1.11,0,0,1,.575.636,29.8,29.8,0,0,1,1,3.33,1.251,1.251,0,0,1-.167.908,1.287,1.287,0,0,1-.742.575.945.945,0,0,1-.8-.121,1.032,1.032,0,0,1-.469-.7A25.1,25.1,0,0,0,9.506-6.751Zm12.836,5.54q0,.212.242.212h5.9a1.256,1.256,0,0,1,.923.378A1.256,1.256,0,0,1,29.789.3a1.256,1.256,0,0,1-.378.923,1.256,1.256,0,0,1-.923.378H13.018a1.256,1.256,0,0,1-.923-.378A1.256,1.256,0,0,1,11.716.3a1.256,1.256,0,0,1,.378-.923A1.256,1.256,0,0,1,13.018-1h6.236a.187.187,0,0,0,.212-.212V-5.843q0-.242-.212-.242H14.895a1.232,1.232,0,0,1-.908-.363,1.214,1.214,0,0,1-.363-.893,1.265,1.265,0,0,1,.363-.908,1.207,1.207,0,0,1,.908-.378H27.246a1.221,1.221,0,0,1,.893.378,1.239,1.239,0,0,1,.378.908,1.19,1.19,0,0,1-.378.893,1.247,1.247,0,0,1-.893.363H22.584a.214.214,0,0,0-.242.242ZM38.871-23.583a1.233,1.233,0,0,1,.545.938.571.571,0,0,1,.03.182,1.365,1.365,0,0,1-.333.908,1.237,1.237,0,0,1-.908.515h-.151a1.4,1.4,0,0,1-.878-.3,24.154,24.154,0,0,0-2.543-1.665,1.147,1.147,0,0,1-.56-.772,1,1,0,0,1,.227-.893,1.59,1.59,0,0,1,.908-.605,2.206,2.206,0,0,1,.363-.03,1.434,1.434,0,0,1,.7.182A17.39,17.39,0,0,1,38.871-23.583ZM37.66-15.591a1.21,1.21,0,0,1,.575.938.889.889,0,0,1,.03.212,1.4,1.4,0,0,1-.3.878,1.34,1.34,0,0,1-.908.545h-.212A1.589,1.589,0,0,1,36-13.26a26.131,26.131,0,0,0-2.6-1.574,1.084,1.084,0,0,1-.605-.727,1.4,1.4,0,0,1-.03-.272A1,1,0,0,1,33-16.469a1.59,1.59,0,0,1,.908-.605,1.646,1.646,0,0,1,.454-.061,1.938,1.938,0,0,1,.666.121A24.2,24.2,0,0,1,37.66-15.591ZM35.965.666a1.18,1.18,0,0,1-.787.757,1.877,1.877,0,0,1-.454.061,1.38,1.38,0,0,1-.666-.182,1.49,1.49,0,0,1-.727-.908,1.991,1.991,0,0,1-.061-.484,1.664,1.664,0,0,1,.151-.7Q35-4.087,36.449-7.962a1.09,1.09,0,0,1,.7-.666,1.143,1.143,0,0,1,.363-.061,1.02,1.02,0,0,1,.575.182,1.609,1.609,0,0,1,.727.908,2,2,0,0,1,.091.575,2.1,2.1,0,0,1-.091.605Q37.448-2.725,35.965.666ZM45.38-5.025q-.03.212.212.212h9.082q.242,0,.242-.212V-6.751q0-.212-.242-.212H45.683q-.242,0-.242.212Q45.44-5.934,45.38-5.025ZM54.7-9.2a.187.187,0,0,0,.212-.212v-.272a1.368,1.368,0,0,1,.394-.984,1.292,1.292,0,0,1,.969-.409,1.341,1.341,0,0,1,.984.409,1.341,1.341,0,0,1,.409.984V1.029a1.341,1.341,0,0,1-.409.984,1.341,1.341,0,0,1-.984.409,1.292,1.292,0,0,1-.969-.409,1.368,1.368,0,0,1-.394-.984v-3.3a.214.214,0,0,0-.242-.242H45.168A.261.261,0,0,0,44.9-2.3a9.714,9.714,0,0,1-2.271,4.057,1.349,1.349,0,0,1-.938.394h-.03a1.686,1.686,0,0,1-1.029-.363.99.99,0,0,1-.439-.757,1.058,1.058,0,0,1,.288-.848q2.24-2.482,2.24-7.054V-9.718a1.332,1.332,0,0,1,.394-.954,1.292,1.292,0,0,1,.969-.409,1.292,1.292,0,0,1,.969.409,1.332,1.332,0,0,1,.394.954v.3a.187.187,0,0,0,.212.212ZM57.1-19.587a1.815,1.815,0,0,1,.848-.242,1.609,1.609,0,0,1,.969.333.738.738,0,0,1,.257.666.634.634,0,0,1-.378.545,5.042,5.042,0,0,1-.484.212.231.231,0,0,0-.121.3,10.257,10.257,0,0,0,1.907,4.026,1.39,1.39,0,0,1,.288.8,1.055,1.055,0,0,1-.288.772,1.069,1.069,0,0,1-.742.363.876.876,0,0,1-.742-.3,13.281,13.281,0,0,1-2.089-5q-.03-.212-.242-.151-.605.182-.969.3a.261.261,0,0,0-.212.272v2.573q0,.212.212.182l1.241-.182a.692.692,0,0,1,.59.151.8.8,0,0,1,.288.575.85.85,0,0,1-.2.621.92.92,0,0,1-.59.348q-.575.091-1.665.272t-1.544.272a1.022,1.022,0,0,1-.727-.151,1.065,1.065,0,0,1-.454-.575.771.771,0,0,1,.106-.651.793.793,0,0,1,.53-.348.828.828,0,0,0,.182-.03.143.143,0,0,0,.121-.151v-4.783a.07.07,0,0,0-.045-.076q-.045-.015-.076.045-.242.394-.454.727a1.034,1.034,0,0,1-.575.409,1.192,1.192,0,0,1-.727-.015q-.091-.061-.091.061V-12.2a1.087,1.087,0,0,1-.348.817,1.162,1.162,0,0,1-.833.333,1.111,1.111,0,0,1-.817-.333,1.111,1.111,0,0,1-.333-.817v-3.542A1.742,1.742,0,0,1,49.406-17a1.7,1.7,0,0,1,1.271-.53h.454v-.03a.545.545,0,0,1-.363-.348.616.616,0,0,1,.03-.5,24.369,24.369,0,0,0,1.12-2.422.137.137,0,0,0-.03-.151.174.174,0,0,0-.121-.061H48.316a.122.122,0,0,0-.121.061.1.1,0,0,0,.03.121,13.09,13.09,0,0,1,1.12,1.938.974.974,0,0,1,.03.787,1.016,1.016,0,0,1-.545.575.836.836,0,0,1-.727.03.921.921,0,0,1-.515-.515,1.673,1.673,0,0,0-.151-.333.027.027,0,0,0-.03-.03.027.027,0,0,0-.03.03v.061q-.091,3.027-.212,4.269a3.531,3.531,0,0,1-.424,1.635,1.879,1.879,0,0,1-1.271.666q-.333.03-.727.03a.9.9,0,0,1-.7-.242,1.267,1.267,0,0,1-.394-.7.711.711,0,0,1,.136-.575.553.553,0,0,1,.53-.242h.212a.641.641,0,0,0,.575-.272,12.9,12.9,0,0,0,.3-3.3.187.187,0,0,0-.212-.212H44.26a.237.237,0,0,0-.272.212,9.352,9.352,0,0,1-2.785,5.51.832.832,0,0,1-.711.212,1.056,1.056,0,0,1-.681-.394.821.821,0,0,1-.242-.605.9.9,0,0,1,.3-.7A6.7,6.7,0,0,0,41.959-17.1q.03-.151-.151-.151h-.333a.931.931,0,0,1-.681-.288.931.931,0,0,1-.288-.681.882.882,0,0,1,.288-.666.957.957,0,0,1,.681-.272h5.419q.151,0,.091-.151a1.1,1.1,0,0,1-.091-.908,1.1,1.1,0,0,1,.605-.7l.151-.061q.03,0,.015-.03a.048.048,0,0,0-.045-.03H41.232a1.136,1.136,0,0,1-.833-.348,1.136,1.136,0,0,1-.348-.833,1.136,1.136,0,0,1,.348-.833,1.136,1.136,0,0,1,.833-.348h7.145a.214.214,0,0,0,.242-.242v-.938a1.4,1.4,0,0,1,.424-1.029,1.4,1.4,0,0,1,1.029-.424,1.4,1.4,0,0,1,1.029.424,1.4,1.4,0,0,1,.424,1.029v.938q0,.242.212.242h7.6a1.136,1.136,0,0,1,.833.348,1.136,1.136,0,0,1,.348.833,1.136,1.136,0,0,1-.348.833,1.136,1.136,0,0,1-.833.348H52.827q-.03,0-.03.015t.03.045a1.183,1.183,0,0,1,.757.7,1.536,1.536,0,0,1,.061.424,1.068,1.068,0,0,1-.182.605.087.087,0,0,0-.03.061q-.121.151.061.212l1,.333a.517.517,0,0,0,.424,0Q56.188-19.133,57.1-19.587ZM77.561-22.8a1.173,1.173,0,0,1,.878.378,1.247,1.247,0,0,1,.363.893,1.2,1.2,0,0,1-.363.878,1.2,1.2,0,0,1-.878.363H65.33a1.2,1.2,0,0,1-.878-.363,1.2,1.2,0,0,1-.363-.878,1.247,1.247,0,0,1,.363-.893,1.173,1.173,0,0,1,.878-.378h4.48a.187.187,0,0,0,.212-.212v-1.453a1.341,1.341,0,0,1,.409-.984,1.341,1.341,0,0,1,.984-.409,1.341,1.341,0,0,1,.984.409,1.341,1.341,0,0,1,.409.984v1.453q0,.212.242.212Zm-1.847,7.3a1.191,1.191,0,0,1-.666.7,1.225,1.225,0,0,1-.605.151,1.143,1.143,0,0,1-.363-.061,1.01,1.01,0,0,1-.666-.53,1.069,1.069,0,0,1-.061-.863q.424-1.15.787-2.513a1.389,1.389,0,0,1,.666-.848,1.327,1.327,0,0,1,.727-.212,2.038,2.038,0,0,1,.333.03,1.1,1.1,0,0,1,.787.605,1.167,1.167,0,0,1,.151.575,1.068,1.068,0,0,1-.091.424Q76.017-16.227,75.714-15.5Zm-6.267-.848a1.54,1.54,0,0,1,.03.3,1.278,1.278,0,0,1-.212.7,1.326,1.326,0,0,1-.848.575,1.4,1.4,0,0,1-.272.03,1.136,1.136,0,0,1-.666-.212,1.231,1.231,0,0,1-.515-.817,20.475,20.475,0,0,0-.636-2.361,1.163,1.163,0,0,1,.106-.878,1.053,1.053,0,0,1,.681-.545,2.206,2.206,0,0,1,.363-.03,1.38,1.38,0,0,1,.666.182,1.324,1.324,0,0,1,.636.727A18.607,18.607,0,0,1,69.447-16.348Zm5.389,9.839q0-.212-.242-.212H68.176a.187.187,0,0,0-.212.212v4.541q0,.242.212.242h6.418a.214.214,0,0,0,.242-.242ZM67.57,2.059a1.3,1.3,0,0,1-.954.394,1.249,1.249,0,0,1-.938-.394A1.307,1.307,0,0,1,65.3,1.12v-8.6a1.727,1.727,0,0,1,.515-1.271,1.727,1.727,0,0,1,1.271-.515h8.779a1.727,1.727,0,0,1,1.271.515,1.727,1.727,0,0,1,.515,1.271V.908a1.377,1.377,0,0,1-.409,1.014,1.341,1.341,0,0,1-.984.409H76.2a1.307,1.307,0,0,1-.954-.409,1.341,1.341,0,0,1-.409-.984q0-.151-.182-.151H68.146a.161.161,0,0,0-.182.182V1.12A1.281,1.281,0,0,1,67.57,2.059ZM64.664-11.655a1.281,1.281,0,0,1-.938-.394,1.281,1.281,0,0,1-.394-.938,1.232,1.232,0,0,1,.394-.923,1.307,1.307,0,0,1,.938-.378H77.894a1.256,1.256,0,0,1,.923.378,1.256,1.256,0,0,1,.378.923,1.307,1.307,0,0,1-.378.938,1.232,1.232,0,0,1-.923.394ZM89.276-24.219a1.126,1.126,0,0,1,.272-.03.908.908,0,0,1,.484.151l.727.424a1.6,1.6,0,0,1,.636.817,1.877,1.877,0,0,1,.061.454,1.55,1.55,0,0,1-.121.575q-2.089,5.086-3.451,7.841a.313.313,0,0,0,.061.363q3.391,3.421,3.391,7.175,0,3.239-1.6,4.269a5.045,5.045,0,0,1-2.059.757,7.7,7.7,0,0,1-1.06.061h-.03a1.576,1.576,0,0,1-1.06-.424,2.27,2.27,0,0,1-.636-1.06,1.045,1.045,0,0,1,.167-.893.9.9,0,0,1,.772-.409h.636A2.845,2.845,0,0,0,87.7-4.48q.848-.515.848-2.3a8.124,8.124,0,0,0-2.422-5.389,2.976,2.976,0,0,1-.666-1.362,2.376,2.376,0,0,1-.061-.515,2.823,2.823,0,0,1,.182-1q1.06-2.482,2.422-6.267a.123.123,0,0,0-.03-.136.164.164,0,0,0-.121-.076h-4.48a.214.214,0,0,0-.242.242V1.029a1.377,1.377,0,0,1-.409,1.014,1.425,1.425,0,0,1-2,0,1.377,1.377,0,0,1-.409-1.014V-22.433a1.717,1.717,0,0,1,.53-1.256,1.717,1.717,0,0,1,1.256-.53h7.175Zm14.107,5.237a1.647,1.647,0,0,1,.938.03l.545.182a1.13,1.13,0,0,1,.636.545,1.228,1.228,0,0,1,.121.848,32.374,32.374,0,0,1-3.36,9.445,22.185,22.185,0,0,1-4.632,5.843,1.6,1.6,0,0,1-1.029.363.571.571,0,0,1-.182-.03,1.876,1.876,0,0,1-1.181-.575,1.27,1.27,0,0,1-.424-.969A1.263,1.263,0,0,1,95.3-4.329a18.248,18.248,0,0,0,3.724-4.178,24.588,24.588,0,0,0,3.179-7.356.137.137,0,0,0-.03-.151.205.205,0,0,0-.151-.061H96.27A1.4,1.4,0,0,1,95.24-16.5a1.4,1.4,0,0,1-.424-1.029,1.4,1.4,0,0,1,.424-1.029,1.4,1.4,0,0,1,1.029-.424h7.114Zm14.955-1.544a1.653,1.653,0,0,1,1.09-.605,1.4,1.4,0,0,1,.272-.03,1.716,1.716,0,0,1,.969.3,1.32,1.32,0,0,1,.605,1.029v.151a1.281,1.281,0,0,1-.394.938,62.453,62.453,0,0,1-6.963,6.448.227.227,0,0,0-.061.333A21.425,21.425,0,0,0,121.518-4a1.3,1.3,0,0,1,.636.908v.242a1.4,1.4,0,0,1-.3.878,2.262,2.262,0,0,1-1.181.757,1.536,1.536,0,0,1-.424.061,1.752,1.752,0,0,1-.908-.272q-5.722-3.724-9.143-11.958a.087.087,0,0,0-.061-.03.027.027,0,0,0-.03.03V-2.149A5.093,5.093,0,0,1,109.741,0a2.409,2.409,0,0,1-1.211,1.15,13.563,13.563,0,0,1-4.208.575h-.061a1.968,1.968,0,0,1-1.241-.424A2.457,2.457,0,0,1,102.2.121a1.068,1.068,0,0,1-.091-.424,1.092,1.092,0,0,1,.212-.636.99.99,0,0,1,.878-.454h1.241q.484.03.848.03a8.277,8.277,0,0,0,.908-.03q.878,0,.878-.757V-25.157a1.462,1.462,0,0,1,.439-1.075,1.462,1.462,0,0,1,1.075-.439,1.462,1.462,0,0,1,1.075.439,1.462,1.462,0,0,1,.439,1.075v3.784a1.536,1.536,0,0,0,.061.424,40.019,40.019,0,0,0,2.24,6.236q.091.212.272.061A52.49,52.49,0,0,0,118.339-20.525ZM134.868-22.1a.27.27,0,0,0-.242.272v4.753a.214.214,0,0,0,.242.242h4.057a1.281,1.281,0,0,1,.938.394,1.281,1.281,0,0,1,.394.938,1.281,1.281,0,0,1-.394.938,1.281,1.281,0,0,1-.938.394h-4.057a.214.214,0,0,0-.242.242v1.574a.407.407,0,0,0,.182.363q1.483,1.09,4.329,3.542a1.557,1.557,0,0,1,.545,1.06.889.889,0,0,1,.03.212,1.578,1.578,0,0,1-.3.938,1.037,1.037,0,0,1-.848.484h-.121a1.066,1.066,0,0,1-.817-.363q-1.393-1.453-2.815-2.846a.171.171,0,0,0-.121-.015.072.072,0,0,0-.061.076V.969a1.377,1.377,0,0,1-.409,1.014,1.425,1.425,0,0,1-2,0,1.377,1.377,0,0,1-.409-1.014V-9.687q0-.061-.045-.061t-.045.03a36.815,36.815,0,0,1-4.208,6.9.98.98,0,0,1-.757.333h-.182a1.1,1.1,0,0,1-.817-.575,2.238,2.238,0,0,1-.272-1.06v-.242a2.223,2.223,0,0,1,.545-1.211,28.262,28.262,0,0,0,2.815-3.905,33.678,33.678,0,0,0,2.3-4.48.136.136,0,0,0-.015-.136.149.149,0,0,0-.136-.076h-4.057a1.281,1.281,0,0,1-.938-.394,1.281,1.281,0,0,1-.394-.938,1.281,1.281,0,0,1,.394-.938,1.281,1.281,0,0,1,.938-.394H131.6q.212,0,.212-.242v-4.147q0-.242-.212-.182-2.149.424-4.208.7h-.182a1.481,1.481,0,0,1-.757-.212,1.667,1.667,0,0,1-.605-.787.966.966,0,0,1,.045-.8.872.872,0,0,1,.621-.469,60.587,60.587,0,0,0,10.021-2.331,2.258,2.258,0,0,1,.817-.151,2.376,2.376,0,0,1,.515.061,2.153,2.153,0,0,1,1.12.636.975.975,0,0,1,.272.666,1.4,1.4,0,0,1-.03.272.927.927,0,0,1-.636.7Q136.987-22.614,134.868-22.1Zm7.614.2a1.341,1.341,0,0,1,.984-.409,1.341,1.341,0,0,1,.984.409,1.341,1.341,0,0,1,.409.984V-6.66a1.341,1.341,0,0,1-.409.984,1.341,1.341,0,0,1-.984.409,1.341,1.341,0,0,1-.984-.409,1.341,1.341,0,0,1-.409-.984V-20.919A1.341,1.341,0,0,1,142.482-21.9Zm7.008-2.074a1.4,1.4,0,0,1,.424-1.029,1.384,1.384,0,0,1,1.014-.424,1.384,1.384,0,0,1,1.014.424,1.4,1.4,0,0,1,.424,1.029V-1.211a4.774,4.774,0,0,1-.348,2.043,2.259,2.259,0,0,1-1.166,1.075,13.259,13.259,0,0,1-4.269.515h-.03a1.891,1.891,0,0,1-1.181-.394,2.382,2.382,0,0,1-.787-1.09,1.439,1.439,0,0,1-.061-.394.923.923,0,0,1,.212-.575.937.937,0,0,1,.817-.454h.03q1.15.03,1.968.03h1.12a.942.942,0,0,0,.636-.167.779.779,0,0,0,.182-.59Zm21.464,11.534a.214.214,0,0,0,.242.242h2.21a.848.848,0,0,0,.424-.121q1.635-.938,2.815-1.756a.069.069,0,0,0,.015-.076.07.07,0,0,0-.076-.045H171.2a.214.214,0,0,0-.242.242Zm7.538,8.083q.212,0,.212-.242V-5.812q0-.242-.212-.242H166.08a.214.214,0,0,0-.242.242V-4.6a.214.214,0,0,0,.242.242ZM165.838-.848a.214.214,0,0,0,.242.242h12.412q.212,0,.212-.242V-2.24q0-.242-.212-.242H166.08a.214.214,0,0,0-.242.242Zm-.484-19.5a.187.187,0,0,0,.212-.212v-2.059q0-.242-.212-.242h-3.845q-.212,0-.212.242v2.059a.187.187,0,0,0,.212.212Zm3.088-2.513a.214.214,0,0,0-.242.242v2.059q0,.212.242.212h3.966q.242,0,.242-.212v-2.059a.214.214,0,0,0-.242-.242Zm7.054,0q-.212,0-.212.242v2.059a.187.187,0,0,0,.212.212h4.087a.187.187,0,0,0,.212-.212v-2.059q0-.242-.212-.242Zm8.371,10.989a1.087,1.087,0,0,1,.348.817,1.087,1.087,0,0,1-.348.817,1.162,1.162,0,0,1-.833.333h-8.2a.746.746,0,0,0-.424.121q-1.786.908-3.179,1.544-.03,0-.015.045t.045.045h8.477a1.742,1.742,0,0,1,1.256.515,1.7,1.7,0,0,1,.53,1.271V.908a1.341,1.341,0,0,1-.409.984A1.377,1.377,0,0,1,180.1,2.3h-.666a.724.724,0,0,1-.727-.727.08.08,0,0,0-.091-.091H165.959a.107.107,0,0,0-.121.121.777.777,0,0,1-.227.545.737.737,0,0,1-.56.242h-.545A1.281,1.281,0,0,1,163.567,2a1.281,1.281,0,0,1-.394-.938V-5a.174.174,0,0,0-.061-.121.137.137,0,0,0-.151-.03q-2,.666-4.026,1.181a1.877,1.877,0,0,1-.454.061,1.612,1.612,0,0,1-.727-.182,1.94,1.94,0,0,1-.878-.787,1.27,1.27,0,0,1-.121-.515,1.237,1.237,0,0,1,.061-.394.914.914,0,0,1,.7-.575,68.414,68.414,0,0,0,11.08-3.451q.03,0,.015-.045t-.045-.045H158a1.162,1.162,0,0,1-.833-.333,1.087,1.087,0,0,1-.348-.817,1.087,1.087,0,0,1,.348-.817A1.162,1.162,0,0,1,158-12.2h9.96q.212,0,.212-.242v-1.514q0-.242-.212-.242h-6.812a1.076,1.076,0,0,1-.787-.333,1.094,1.094,0,0,1-.333-.8,1.094,1.094,0,0,1,.333-.8,1.076,1.076,0,0,1,.787-.333h6.812a.187.187,0,0,0,.212-.212v-1.393a.187.187,0,0,0-.212-.212h-7.6a1.7,1.7,0,0,1-1.271-.53,1.742,1.742,0,0,1-.515-1.256V-23.1a1.727,1.727,0,0,1,.515-1.271,1.727,1.727,0,0,1,1.271-.515h20.5a1.727,1.727,0,0,1,1.271.515,1.727,1.727,0,0,1,.515,1.271v3.027a1.742,1.742,0,0,1-.515,1.256,1.7,1.7,0,0,1-1.271.53H171.2q-.242,0-.242.212v1.393q0,.212.242.212h4.935a1.462,1.462,0,0,1,1.075.439,1.426,1.426,0,0,1,.439,1.044.1.1,0,0,0,.045.091q.045.03.076,0,1.06-.817,1.938-1.574a1.644,1.644,0,0,1,1.029-.484h.212a1.747,1.747,0,0,1,.878.242,1.013,1.013,0,0,1,.515.938.948.948,0,0,1-.333.727,27.25,27.25,0,0,1-3.391,2.694.09.09,0,0,0-.015.091.072.072,0,0,0,.076.061h4.359A1.162,1.162,0,0,1,183.866-11.867ZM204.951-7.78a.027.027,0,0,0-.03-.03h-5.449a.488.488,0,0,0-.394.182q-.545.605-1.029,1.09a.06.06,0,0,0-.03.091.1.1,0,0,0,.091.061h8.355q.03,0,.045-.045t-.045-.045a12.025,12.025,0,0,0-1.453-.7.332.332,0,0,1-.2-.288A.35.35,0,0,1,204.951-7.78ZM203.1-1.6q-.242,0-.242.212v.908a.214.214,0,0,0,.242.242h10.868a.966.966,0,0,1,.711.288.966.966,0,0,1,.288.711.966.966,0,0,1-.288.711.966.966,0,0,1-.711.288H189.088a.966.966,0,0,1-.711-.288.966.966,0,0,1-.288-.711.966.966,0,0,1,.288-.711.966.966,0,0,1,.711-.288h10.626a.214.214,0,0,0,.242-.242v-.908q0-.212-.242-.212h-7.72a.857.857,0,0,1-.651-.272.9.9,0,0,1-.257-.636.9.9,0,0,1,.257-.636.857.857,0,0,1,.651-.272h7.72q.242,0,.242-.212V-4.45q0-.242-.242-.212-.545,0-8.386.061a.988.988,0,0,1-.681-.257.938.938,0,0,1-.318-.651.927.927,0,0,1,.242-.636.81.81,0,0,1,.636-.272l3.391.03a.446.446,0,0,0,.378-.182q.136-.182.424-.53l.439-.53a.129.129,0,0,0,0-.121.1.1,0,0,0-.091-.061h-3.33a.837.837,0,0,1-.59-.242.78.78,0,0,1-.257-.59.78.78,0,0,1,.257-.59.837.837,0,0,1,.59-.242H210.4a.837.837,0,0,1,.59.242.78.78,0,0,1,.257.59.78.78,0,0,1-.257.59.837.837,0,0,1-.59.242h-1.968q-.061,0-.061.045t.03.045A35.321,35.321,0,0,1,212.1-5.661a.848.848,0,0,1,.394.681.8.8,0,0,1-.3.711,1.3,1.3,0,0,1-.863.348,1.582,1.582,0,0,1-.923-.257q-.363-.272-.757-.545a.848.848,0,0,0-.424-.121q-2.059.061-6.115.121a.214.214,0,0,0-.242.242v.848q0,.212.242.212h8.234a.823.823,0,0,1,.621.272.9.9,0,0,1,.257.636.9.9,0,0,1-.257.636.823.823,0,0,1-.621.272Zm-12.4-6.8a1.256,1.256,0,0,1-.923.378,1.256,1.256,0,0,1-.923-.378,1.256,1.256,0,0,1-.378-.923v-1.393A1.742,1.742,0,0,1,189-11.973a1.7,1.7,0,0,1,1.271-.53h22.493a1.7,1.7,0,0,1,1.271.53,1.742,1.742,0,0,1,.515,1.256v1.332a1.332,1.332,0,0,1-.394.954,1.292,1.292,0,0,1-.969.409,1.292,1.292,0,0,1-.969-.409,1.332,1.332,0,0,1-.394-.954v-1q0-.212-.242-.212H191.3a.187.187,0,0,0-.212.212v1.06A1.256,1.256,0,0,1,190.708-8.4Zm17.755-6.766q.242,0,.242-.212v-1.029a.214.214,0,0,0-.242-.242H194.537a.214.214,0,0,0-.242.242v1.029q0,.212.242.212ZM191.6-16.378a1.7,1.7,0,0,1,.53-1.271,1.742,1.742,0,0,1,1.256-.515h16.348a1.742,1.742,0,0,1,1.256.515,1.7,1.7,0,0,1,.53,1.271v.969a1.7,1.7,0,0,1-.53,1.271,1.742,1.742,0,0,1-1.256.515H193.387a1.742,1.742,0,0,1-1.256-.515,1.7,1.7,0,0,1-.53-1.271Zm11.262-8.113q0,.182.212.182h11.02a.906.906,0,0,1,.666.272.906.906,0,0,1,.272.666.957.957,0,0,1-.272.681.882.882,0,0,1-.666.288H203.1q-.242,0-.242.212v.878a.214.214,0,0,0,.242.242h8.688a.882.882,0,0,1,.651.257.846.846,0,0,1,.257.621.846.846,0,0,1-.257.621.882.882,0,0,1-.651.257H191.237a.882.882,0,0,1-.651-.257.846.846,0,0,1-.257-.621.846.846,0,0,1,.257-.621.882.882,0,0,1,.651-.257h8.477a.214.214,0,0,0,.242-.242v-.878q0-.212-.242-.212H188.967a.882.882,0,0,1-.666-.288.957.957,0,0,1-.272-.681.906.906,0,0,1,.272-.666.906.906,0,0,1,.666-.272h10.777q.212,0,.212-.182v-.091a1.4,1.4,0,0,1,.424-1.029,1.4,1.4,0,0,1,1.029-.424,1.4,1.4,0,0,1,1.029.424,1.4,1.4,0,0,1,.424,1.029Zm23.583,6.055q.212,0,.212-.242v-5.3a1.426,1.426,0,0,1,.439-1.044,1.444,1.444,0,0,1,1.06-.439,1.444,1.444,0,0,1,1.06.439,1.426,1.426,0,0,1,.439,1.044V.666a1.426,1.426,0,0,1-.439,1.044,1.5,1.5,0,0,1-2.119,0,1.426,1.426,0,0,1-.439-1.044v-5a.159.159,0,0,0-.061-.136.108.108,0,0,0-.121-.015q-4.026,1.756-5.661,2.452a1.62,1.62,0,0,1-.605.121,1.62,1.62,0,0,1-.605-.121,1.567,1.567,0,0,1-.908-.848,1.584,1.584,0,0,1-.121-.59,1.584,1.584,0,0,1,.121-.59,1.472,1.472,0,0,1,.878-.787q2.906-1.029,6.872-2.513a.311.311,0,0,0,.212-.3v-7.689a.187.187,0,0,0-.212-.212h-5.964a1.352,1.352,0,0,1-1.014-.424A1.41,1.41,0,0,1,219.059-17a1.41,1.41,0,0,1,.409-1.014,1.352,1.352,0,0,1,1.014-.424ZM238.706-1.029h3.936a1.207,1.207,0,0,0,1.2-.969,17.875,17.875,0,0,0,.469-3.845.83.83,0,0,1,.484-.742A1,1,0,0,1,245.7-6.6a2.649,2.649,0,0,1,1,.878,1.831,1.831,0,0,1,.333,1.06,9.424,9.424,0,0,1-1.15,5.056,3.263,3.263,0,0,1-3,1.393h-4.6A4.059,4.059,0,0,1,235.088.772q-.863-1.014-.863-3.8V-23.946a1.462,1.462,0,0,1,.439-1.075,1.462,1.462,0,0,1,1.075-.439,1.462,1.462,0,0,1,1.075.439,1.462,1.462,0,0,1,.439,1.075v8.022a.122.122,0,0,0,.061.121.129.129,0,0,0,.121,0A57.129,57.129,0,0,0,243-19.738a1.728,1.728,0,0,1,1.06-.363h.151a1.566,1.566,0,0,1,1.12.575,1.446,1.446,0,0,1,.363.969.889.889,0,0,1-.03.212,1.41,1.41,0,0,1-.636,1.029q-3.058,2.089-7.6,4.571a.338.338,0,0,0-.182.333v9.445a3.1,3.1,0,0,0,.257,1.589Q237.768-1.029,238.706-1.029Zm19.678-17.952a1.647,1.647,0,0,1,.938.03l.545.182a1.13,1.13,0,0,1,.636.545,1.228,1.228,0,0,1,.121.848,32.374,32.374,0,0,1-3.36,9.445,22.185,22.185,0,0,1-4.632,5.843,1.6,1.6,0,0,1-1.029.363.571.571,0,0,1-.182-.03,1.876,1.876,0,0,1-1.181-.575,1.27,1.27,0,0,1-.424-.969,1.263,1.263,0,0,1,.484-1.029,18.248,18.248,0,0,0,3.724-4.178,24.588,24.588,0,0,0,3.179-7.356.137.137,0,0,0-.03-.151.205.205,0,0,0-.151-.061H251.27a1.4,1.4,0,0,1-1.029-.424,1.4,1.4,0,0,1-.424-1.029,1.4,1.4,0,0,1,.424-1.029,1.4,1.4,0,0,1,1.029-.424h7.114Zm14.955-1.544a1.653,1.653,0,0,1,1.09-.605,1.4,1.4,0,0,1,.272-.03,1.716,1.716,0,0,1,.969.3,1.32,1.32,0,0,1,.605,1.029v.151a1.281,1.281,0,0,1-.394.938,62.453,62.453,0,0,1-6.963,6.448.227.227,0,0,0-.061.333A21.425,21.425,0,0,0,276.518-4a1.3,1.3,0,0,1,.636.908v.242a1.4,1.4,0,0,1-.3.878,2.262,2.262,0,0,1-1.181.757,1.536,1.536,0,0,1-.424.061,1.752,1.752,0,0,1-.908-.272q-5.722-3.724-9.143-11.958a.087.087,0,0,0-.061-.03.027.027,0,0,0-.03.03V-2.149A5.093,5.093,0,0,1,264.741,0a2.409,2.409,0,0,1-1.211,1.15,13.563,13.563,0,0,1-4.208.575h-.061a1.968,1.968,0,0,1-1.241-.424A2.457,2.457,0,0,1,257.2.121a1.068,1.068,0,0,1-.091-.424,1.092,1.092,0,0,1,.212-.636.99.99,0,0,1,.878-.454h1.241q.484.03.848.03a8.277,8.277,0,0,0,.908-.03q.878,0,.878-.757V-25.157a1.462,1.462,0,0,1,.439-1.075,1.462,1.462,0,0,1,1.075-.439,1.462,1.462,0,0,1,1.075.439,1.462,1.462,0,0,1,.439,1.075v3.784a1.536,1.536,0,0,0,.061.424,40.018,40.018,0,0,0,2.24,6.236q.091.212.272.061A52.49,52.49,0,0,0,273.339-20.525Zm14.047-2.967a1.327,1.327,0,0,1,.545.969v.182a1.448,1.448,0,0,1-.3.908,1.337,1.337,0,0,1-.938.515.337.337,0,0,1-.151.03,1.326,1.326,0,0,1-.878-.333,32.428,32.428,0,0,0-2.815-1.847,1.052,1.052,0,0,1-.56-.742,1.124,1.124,0,0,1,.2-.923,1.584,1.584,0,0,1,.938-.575,1.143,1.143,0,0,1,.363-.061,1.612,1.612,0,0,1,.727.182A24.113,24.113,0,0,1,287.386-23.492Zm-1.544,8.083a1.327,1.327,0,0,1,.575.938,1,1,0,0,1,.03.242,1.492,1.492,0,0,1-.3.878,1.238,1.238,0,0,1-.908.515.571.571,0,0,1-.182.03,1.4,1.4,0,0,1-.878-.3,22.688,22.688,0,0,0-2.785-1.726,1.2,1.2,0,0,1-.605-.727,1.4,1.4,0,0,1-.03-.272,1,1,0,0,1,.242-.636,1.544,1.544,0,0,1,.908-.636,1.536,1.536,0,0,1,.424-.061,1.38,1.38,0,0,1,.666.182A23.092,23.092,0,0,1,285.842-15.409Zm-1.09,7.235a1.01,1.01,0,0,1,.727-.666,1.7,1.7,0,0,1,.333-.03,1.068,1.068,0,0,1,.605.182,1.78,1.78,0,0,1,.7.969,1.454,1.454,0,0,1,.091.515,1.7,1.7,0,0,1-.121.636Q285.6-2.815,284,.636a1.266,1.266,0,0,1-.848.727,1.068,1.068,0,0,1-.424.091,1.278,1.278,0,0,1-.7-.212,1.487,1.487,0,0,1-.7-.938,1.3,1.3,0,0,1-.091-.454,1.612,1.612,0,0,1,.182-.727Q283.238-4.42,284.752-8.174ZM294.076-5.3a1.394,1.394,0,0,1,.727-.787,1.38,1.38,0,0,1,.666-.182,1.439,1.439,0,0,1,.394.061,1.092,1.092,0,0,1,.757.605,1.075,1.075,0,0,1,.121.484,1.14,1.14,0,0,1-.091.454,23.88,23.88,0,0,1-2.513,4.39,1.238,1.238,0,0,1-.908.515.889.889,0,0,1-.212.03A1.328,1.328,0,0,1,292.2,0a1.1,1.1,0,0,1-.515-.817.572.572,0,0,1-.03-.182,1.123,1.123,0,0,1,.272-.727A17.3,17.3,0,0,0,294.076-5.3Zm2.452-7.175a.214.214,0,0,0-.242.242v1.877q0,.212.242.212h7.9q.242,0,.242-.212V-12.23a.214.214,0,0,0-.242-.242Zm0-4.238a.214.214,0,0,0-.242.242v1.756a.214.214,0,0,0,.242.242h7.9a.214.214,0,0,0,.242-.242v-1.756a.214.214,0,0,0-.242-.242Zm10.868,6.9a1.717,1.717,0,0,1-.53,1.256,1.717,1.717,0,0,1-1.256.53h-3.693a.187.187,0,0,0-.212.212V-.394a4.015,4.015,0,0,1-.242,1.574,1.708,1.708,0,0,1-.908.848,8.332,8.332,0,0,1-3,.394,1.543,1.543,0,0,1-.984-.348,1.861,1.861,0,0,1-.621-.923.826.826,0,0,1,.121-.8A.852.852,0,0,1,296.8-.03h1.665a.53.53,0,0,0,.378-.106.479.479,0,0,0,.106-.348V-7.811a.187.187,0,0,0-.212-.212H295.5a1.717,1.717,0,0,1-1.256-.53,1.717,1.717,0,0,1-.53-1.256v-7.266a1.717,1.717,0,0,1,.53-1.256,1.717,1.717,0,0,1,1.256-.53h2.755a.22.22,0,0,0,.242-.212q.333-1.7.454-2.543.061-.242-.182-.242h-6.3a.214.214,0,0,0-.242.242v5.6q0,11.322-3.421,17.2a1.12,1.12,0,0,1-.848.575,1.4,1.4,0,0,1-.272.03,1.391,1.391,0,0,1-.787-.242A1.3,1.3,0,0,1,286.3.7a1.143,1.143,0,0,1-.061-.363,1.434,1.434,0,0,1,.182-.7,17.777,17.777,0,0,0,1.635-3.724,23.932,23.932,0,0,0,.908-4.238q.272-2.21.363-3.89t.091-3.8v-6.66a1.717,1.717,0,0,1,.53-1.256,1.717,1.717,0,0,1,1.256-.53h15.924a1.256,1.256,0,0,1,.923.378,1.256,1.256,0,0,1,.378.923,1.256,1.256,0,0,1-.378.923,1.256,1.256,0,0,1-.923.378h-4.632a.28.28,0,0,0-.3.212q-.151.454-.424,1.317t-.394,1.256a.157.157,0,0,0,.015.151.159.159,0,0,0,.136.061h4.087a1.717,1.717,0,0,1,1.256.53,1.717,1.717,0,0,1,.53,1.256Zm-3.421,5.116a1.168,1.168,0,0,1-.182-.605,1.06,1.06,0,0,1,.061-.333,1,1,0,0,1,.636-.7,1.4,1.4,0,0,1,.636-.151,1.3,1.3,0,0,1,.454.091,1.544,1.544,0,0,1,.908.636,35.85,35.85,0,0,1,2.059,3.633,1.343,1.343,0,0,1,.151.605,1.27,1.27,0,0,1-.121.515,1.49,1.49,0,0,1-.787.817,1.332,1.332,0,0,1-.545.121,1.135,1.135,0,0,1-.515-.121,1.381,1.381,0,0,1-.787-.757A33.971,33.971,0,0,0,303.976-4.692Zm20.707-.848a1,1,0,0,1-.257-.863.978.978,0,0,1,.5-.742,1.441,1.441,0,0,1,.817-.242h.212a1.47,1.47,0,0,1,.938.484,25.481,25.481,0,0,1,2.21,2.694,1.327,1.327,0,0,1,.212.727,1.541,1.541,0,0,1-.03.3,1.287,1.287,0,0,1-.636.878,1.136,1.136,0,0,1-.666.212,1.54,1.54,0,0,1-.3-.03,1.45,1.45,0,0,1-.848-.605A21.314,21.314,0,0,0,324.683-5.54ZM339.3-16.56a1.281,1.281,0,0,1,.394.938,1.281,1.281,0,0,1-.394.938,1.281,1.281,0,0,1-.938.394h-2.059q-.242,0-.242.212V-11.2a.214.214,0,0,0,.242.242h1.816a1.307,1.307,0,0,1,.938.378,1.249,1.249,0,0,1,.394.938,1.3,1.3,0,0,1-.394.954,1.281,1.281,0,0,1-.938.394h-1.816q-.242,0-.242.212V-.938a4.546,4.546,0,0,1-.3,1.862,2.245,2.245,0,0,1-1.09,1.044,11.911,11.911,0,0,1-3.6.424h-.03A1.725,1.725,0,0,1,329.92,2a2.094,2.094,0,0,1-.727-1.06,2.039,2.039,0,0,1-.03-.333A1.068,1.068,0,0,1,329.345,0a.954.954,0,0,1,.817-.424h2.392a.83.83,0,0,0,.53-.121A.6.6,0,0,0,333.22-1V-8.083q0-.212-.242-.212H323.9a1.377,1.377,0,0,1-1.029-.439,1.452,1.452,0,0,1-.424-1.044.131.131,0,0,0-.061-.106.108.108,0,0,0-.121-.015l-2.6.817a.28.28,0,0,0-.212.3V1.09a1.307,1.307,0,0,1-.378.938,1.249,1.249,0,0,1-.938.394,1.3,1.3,0,0,1-.954-.394,1.281,1.281,0,0,1-.394-.938V-7.962a.159.159,0,0,0-.061-.136.157.157,0,0,0-.151-.015q-.848.242-3.3.969a1.536,1.536,0,0,1-.424.061,1.38,1.38,0,0,1-.666-.182,1.288,1.288,0,0,1-.666-.848,1.143,1.143,0,0,1-.061-.363,1.278,1.278,0,0,1,.212-.7,1.394,1.394,0,0,1,.878-.666q1.816-.454,4.026-1.09a.311.311,0,0,0,.212-.3v-5.782a.187.187,0,0,0-.212-.212h-2.059a.237.237,0,0,0-.272.212q-.424,1.7-.817,2.876a.8.8,0,0,1-.575.59.944.944,0,0,1-.848-.136,1.459,1.459,0,0,1-.636-.757,1.63,1.63,0,0,1-.091-.515,1.371,1.371,0,0,1,.091-.484,37.8,37.8,0,0,0,1.393-7.689,1.092,1.092,0,0,1,.439-.833,1.075,1.075,0,0,1,.893-.227,1.345,1.345,0,0,1,.848.515,1.285,1.285,0,0,1,.272.787.572.572,0,0,1-.03.182q-.182,1.514-.363,2.513-.03.242.182.242h1.574q.212,0,.212-.242v-4.48a1.281,1.281,0,0,1,.394-.938,1.3,1.3,0,0,1,.954-.394,1.249,1.249,0,0,1,.938.394,1.307,1.307,0,0,1,.378.938v4.48a.214.214,0,0,0,.242.242h1.271a1.368,1.368,0,0,1,.984.394,1.275,1.275,0,0,1,.409.954,1.324,1.324,0,0,1-.409.969,1.341,1.341,0,0,1-.984.409h-1.271q-.242,0-.242.212v5.025a.186.186,0,0,0,.076.151.167.167,0,0,0,.167.03l1.544-.454a1.237,1.237,0,0,1,.394-.061,1.278,1.278,0,0,1,.7.212,1.3,1.3,0,0,1,.605.938.22.22,0,0,0,.242.212h9.809a.214.214,0,0,0,.242-.242v-2.876q0-.212-.242-.212h-9.809a1.281,1.281,0,0,1-.938-.394,1.281,1.281,0,0,1-.394-.938,1.281,1.281,0,0,1,.394-.938,1.281,1.281,0,0,1,.938-.394h6.085q.212,0,.212-.242V-20.1q0-.242-.212-.242h-4.269a1.256,1.256,0,0,1-.923-.378,1.256,1.256,0,0,1-.378-.923,1.256,1.256,0,0,1,.378-.923,1.256,1.256,0,0,1,.923-.378h4.269a.187.187,0,0,0,.212-.212v-1.453a1.352,1.352,0,0,1,.424-1.014,1.41,1.41,0,0,1,1.014-.409,1.359,1.359,0,0,1,1,.409,1.377,1.377,0,0,1,.409,1.014v1.453q0,.212.242.212H337a1.256,1.256,0,0,1,.923.378,1.256,1.256,0,0,1,.378.923,1.256,1.256,0,0,1-.378.923,1.256,1.256,0,0,1-.923.378h-4.45a.214.214,0,0,0-.242.242V-17.2a.214.214,0,0,0,.242.242h5.813A1.281,1.281,0,0,1,339.3-16.56Zm7.326-3.36q-.242,0-.242.212v2.755a1.377,1.377,0,0,1-.409,1.014,1.359,1.359,0,0,1-1,.409,1.359,1.359,0,0,1-1-.409,1.377,1.377,0,0,1-.409-1.014v-3.936a1.717,1.717,0,0,1,.53-1.256,1.717,1.717,0,0,1,1.256-.53h9.324q.242,0,.242-.212v-1.544a1.512,1.512,0,0,1,.439-1.09,1.437,1.437,0,0,1,1.075-.454,1.486,1.486,0,0,1,1.09.454,1.486,1.486,0,0,1,.454,1.09v1.544q0,.212.242.212h9.445a1.717,1.717,0,0,1,1.256.53,1.717,1.717,0,0,1,.53,1.256v3.875a1.452,1.452,0,0,1-.424,1.044,1.4,1.4,0,0,1-1.044.439,1.4,1.4,0,0,1-1.044-.439,1.452,1.452,0,0,1-.424-1.044v-2.694q0-.212-.242-.212ZM358.2-6.66q-.242,0-.242.212V-1.3q0,.212.242.242a33.494,33.494,0,0,0,4.147.242q4.45,0,6.721-.03a.937.937,0,0,1,.817.454,1.113,1.113,0,0,1,.151.545,1.438,1.438,0,0,1-.061.394,2.382,2.382,0,0,1-.787,1.09,1.925,1.925,0,0,1-1.211.424h-5.812a32.213,32.213,0,0,1-4.208-.242A18.071,18.071,0,0,1,354.4.969a9.524,9.524,0,0,1-3.088-1.756,11.649,11.649,0,0,1-2.376-2.846.108.108,0,0,0-.106-.061.108.108,0,0,0-.106.061,16.291,16.291,0,0,1-3.148,5.146,1.442,1.442,0,0,1-1.09.484h-.03a1.914,1.914,0,0,1-1.15-.454,1.18,1.18,0,0,1-.484-1,1.238,1.238,0,0,1,.424-.938q3.209-3.209,4.238-9.809a1.69,1.69,0,0,1,.605-1.029,1.483,1.483,0,0,1,.938-.333.337.337,0,0,1,.151.03,1.261,1.261,0,0,1,1,.515,1.364,1.364,0,0,1,.3.848,1,1,0,0,1-.03.242q-.212,1.241-.454,2.361a.617.617,0,0,0,.03.424,9,9,0,0,0,4.753,5.177.136.136,0,0,0,.136-.015.149.149,0,0,0,.076-.136V-13.684a.214.214,0,0,0-.242-.242H349.2a1.368,1.368,0,0,1-.984-.394,1.292,1.292,0,0,1-.409-.969,1.341,1.341,0,0,1,.409-.984,1.341,1.341,0,0,1,.984-.409h14.683a1.341,1.341,0,0,1,.984.409,1.341,1.341,0,0,1,.409.984,1.292,1.292,0,0,1-.409.969,1.368,1.368,0,0,1-.984.394H358.2a.214.214,0,0,0-.242.242V-9.6a.214.214,0,0,0,.242.242h7.266a1.317,1.317,0,0,1,.969.394,1.3,1.3,0,0,1,.394.954,1.3,1.3,0,0,1-.394.954,1.317,1.317,0,0,1-.969.394Zm42.08,5.116a1.256,1.256,0,0,1,.923.378,1.256,1.256,0,0,1,.378.923,1.256,1.256,0,0,1-.378.923,1.256,1.256,0,0,1-.923.378H377.843q-.182,0-.182.151a1.2,1.2,0,0,1-.363.878,1.162,1.162,0,0,1-.848.363h-.182a1.341,1.341,0,0,1-.984-.409,1.341,1.341,0,0,1-.409-.984V-23.008a1.7,1.7,0,0,1,.53-1.271,1.742,1.742,0,0,1,1.256-.515h22.8a1.232,1.232,0,0,1,.908.363,1.214,1.214,0,0,1,.363.893,1.265,1.265,0,0,1-.363.908,1.207,1.207,0,0,1-.908.378H377.9q-.242,0-.242.212V-1.786a.214.214,0,0,0,.242.242Zm-8.355-13.8q.242,0,.242-.212v-2.694q0-.212-.242-.212h-5.752a.187.187,0,0,0-.212.212v2.694a.187.187,0,0,0,.212.212Zm1.3-5.086a1.717,1.717,0,0,1,1.256.53,1.717,1.717,0,0,1,.53,1.256v3.512a1.717,1.717,0,0,1-.53,1.256,1.717,1.717,0,0,1-1.256.53h-8.144a1.7,1.7,0,0,1-1.271-.53,1.742,1.742,0,0,1-.515-1.256v-3.512a1.742,1.742,0,0,1,.515-1.256,1.7,1.7,0,0,1,1.271-.53ZM382.6-9.566q-.242,0-.242.212v3.572a.214.214,0,0,0,.242.242H385.5a.214.214,0,0,0,.242-.242V-9.354q0-.212-.242-.212Zm-.817,6.024a1.742,1.742,0,0,1-1.256-.515,1.7,1.7,0,0,1-.53-1.271V-9.839a1.717,1.717,0,0,1,.53-1.256,1.717,1.717,0,0,1,1.256-.53h4.692a1.717,1.717,0,0,1,1.256.53,1.717,1.717,0,0,1,.53,1.256v4.511a1.7,1.7,0,0,1-.53,1.271,1.742,1.742,0,0,1-1.256.515Zm13.956-2a.214.214,0,0,0,.242-.242V-9.354q0-.212-.242-.212h-3.088a.187.187,0,0,0-.212.212v3.572q0,.242.212.242Zm1-6.085a1.717,1.717,0,0,1,1.256.53,1.717,1.717,0,0,1,.53,1.256v4.511a1.7,1.7,0,0,1-.53,1.271,1.742,1.742,0,0,1-1.256.515H391.8a1.742,1.742,0,0,1-1.256-.515,1.7,1.7,0,0,1-.53-1.271V-9.839a1.717,1.717,0,0,1,.53-1.256,1.717,1.717,0,0,1,1.256-.53Zm29.607,8.719a.187.187,0,0,0-.212-.212H413.081a.187.187,0,0,0-.212.212v2a.187.187,0,0,0,.212.212h13.048a.187.187,0,0,0,.212-.212ZM424.191-11.2q0-.242-.212-.242h-10.9q-.212,0-.212.242v1.726q0,.242.212.242h10.9q.212,0,.212-.242Zm-11.11,4.117a.187.187,0,0,0-.212.212V-5.54q0,.242.212.242h14.35a1.727,1.727,0,0,1,1.271.515,1.727,1.727,0,0,1,.515,1.271V.969A1.4,1.4,0,0,1,428.793,2a1.367,1.367,0,0,1-1,.424h-.666a.753.753,0,0,1-.545-.242.753.753,0,0,1-.242-.545q0-.121-.091-.121H412.96q-.091,0-.091.121a.812.812,0,0,1-.257.59.846.846,0,0,1-.621.257h-.484a1.317,1.317,0,0,1-.969-.394,1.317,1.317,0,0,1-.394-.969V-11.807a1.742,1.742,0,0,1,.515-1.256,1.7,1.7,0,0,1,1.271-.53h13.381a1.717,1.717,0,0,1,1.256.53,1.717,1.717,0,0,1,.53,1.256V-8.87a1.717,1.717,0,0,1-.53,1.256,1.717,1.717,0,0,1-1.256.53Zm18.346-16.681a1.162,1.162,0,0,1,.833.333,1.1,1.1,0,0,1,.348.833,1.1,1.1,0,0,1-.348.833,1.162,1.162,0,0,1-.833.333h-4.6a.118.118,0,0,0-.121.076.117.117,0,0,0,.03.136q.394.515.636.908a.977.977,0,0,1,.182.545,1.068,1.068,0,0,1-.091.424,1.189,1.189,0,0,1-.727.666,1.877,1.877,0,0,1-.454.061,1.6,1.6,0,0,1-.666-.151,1.992,1.992,0,0,1-.878-.757q-.484-.787-1.181-1.726a.407.407,0,0,0-.363-.182h-1.726a.407.407,0,0,0-.363.182,15.889,15.889,0,0,1-1.362,1.544.054.054,0,0,1,.061.061v1.968q0,.212.242.212h9.9a1.7,1.7,0,0,1,1.271.53,1.742,1.742,0,0,1,.515,1.256v2.725a1.377,1.377,0,0,1-.409,1.014,1.359,1.359,0,0,1-1,.409,1.359,1.359,0,0,1-1-.409,1.377,1.377,0,0,1-.409-1.014v-2q0-.242-.212-.242H408.479a.214.214,0,0,0-.242.242v2.089a1.281,1.281,0,0,1-.394.938,1.3,1.3,0,0,1-.954.394,1.3,1.3,0,0,1-.954-.394,1.281,1.281,0,0,1-.394-.938v-2.815a1.717,1.717,0,0,1,.53-1.256,1.717,1.717,0,0,1,1.256-.53H416.8q.242,0,.242-.212v-1.907a.107.107,0,0,1,.121-.121v-.03a.232.232,0,0,1-.091-.03.569.569,0,0,1-.333-.484.659.659,0,0,1,.242-.575,4.887,4.887,0,0,0,.515-.454.06.06,0,0,0,.03-.091.1.1,0,0,0-.091-.061H413.2a.128.128,0,0,0-.106.076.136.136,0,0,0-.015.136q.272.484.484.878a1.075,1.075,0,0,1,.121.484,1.075,1.075,0,0,1-.121.484,1.189,1.189,0,0,1-.757.636,1.536,1.536,0,0,1-.424.061,1.343,1.343,0,0,1-.605-.151,1.535,1.535,0,0,1-.757-.757q-.333-.727-.848-1.635a.37.37,0,0,0-.333-.212h-.515a.439.439,0,0,0-.363.212,20.563,20.563,0,0,1-1.453,1.907,1.36,1.36,0,0,1-1,.484h-.151a1.625,1.625,0,0,1-.969-.3,1.057,1.057,0,0,1-.515-.938,1.076,1.076,0,0,1,.333-.787,16.592,16.592,0,0,0,2.876-4.057,1.782,1.782,0,0,1,.817-.817,1.809,1.809,0,0,1,.7-.151,2.994,2.994,0,0,1,.424.03,1.1,1.1,0,0,1,.757.636,1.075,1.075,0,0,1,.121.484,1.136,1.136,0,0,1-.121.515,1.591,1.591,0,0,0-.151.242.157.157,0,0,0,.015.151.131.131,0,0,0,.106.061h5.57a1.718,1.718,0,0,1,1.241.5,1.642,1.642,0,0,1,.515,1.226q0,.03.061.061t.091,0a14.586,14.586,0,0,0,2.059-2.906,1.912,1.912,0,0,1,.848-.848,1.672,1.672,0,0,1,.757-.182,1.439,1.439,0,0,1,.394.061,1.093,1.093,0,0,1,.787.636,1.075,1.075,0,0,1,.121.484,1.065,1.065,0,0,1-.151.515l-.121.242a.16.16,0,0,0,0,.136.118.118,0,0,0,.121.076ZM443.748-6.176a1.439,1.439,0,0,1,.394-.061,1.168,1.168,0,0,1,.605.182,1.1,1.1,0,0,1,.575.817,1.541,1.541,0,0,1,.03.3,1.391,1.391,0,0,1-.242.787,1.491,1.491,0,0,1-.848.727q-3.693,1.271-7.023,2.361a1.3,1.3,0,0,1-.454.091,1.232,1.232,0,0,1-.666-.212,1.3,1.3,0,0,1-.666-.878,2.207,2.207,0,0,1-.03-.363,1.535,1.535,0,0,1,.212-.787,1.608,1.608,0,0,1,.938-.727q1.271-.363,2.3-.666a.311.311,0,0,0,.212-.3v-7.417a.214.214,0,0,0-.242-.242h-1.786a1.281,1.281,0,0,1-.938-.394,1.281,1.281,0,0,1-.394-.938,1.281,1.281,0,0,1,.394-.938,1.281,1.281,0,0,1,.938-.394h1.786q.242,0,.242-.212v-5.722a.214.214,0,0,0-.242-.242h-2.089a1.307,1.307,0,0,1-.938-.378,1.249,1.249,0,0,1-.394-.938,1.3,1.3,0,0,1,.394-.954,1.281,1.281,0,0,1,.938-.394h7.205a1.281,1.281,0,0,1,.938.394,1.3,1.3,0,0,1,.394.954,1.249,1.249,0,0,1-.394.938,1.307,1.307,0,0,1-.938.378h-1.877a.214.214,0,0,0-.242.242v5.722q0,.212.242.212h1.362a1.267,1.267,0,0,1,.954.394,1.307,1.307,0,0,1,.378.938,1.307,1.307,0,0,1-.378.938,1.267,1.267,0,0,1-.954.394h-1.362a.214.214,0,0,0-.242.242v6.539a.149.149,0,0,0,.076.136.136.136,0,0,0,.136.015q.212-.061.8-.242T443.748-6.176Zm5.722-10.354q-.212,0-.212.242v2.937q0,.242.212.242h3.6a.214.214,0,0,0,.242-.242v-2.937a.214.214,0,0,0-.242-.242Zm0-5.631a.187.187,0,0,0-.212.212v2.906a.187.187,0,0,0,.212.212h3.6q.242,0,.242-.212v-2.906q0-.212-.242-.212Zm10.021,3.33q.242,0,.242-.212v-2.906q0-.212-.242-.212h-3.512a.187.187,0,0,0-.212.212v2.906a.187.187,0,0,0,.212.212Zm0,5.722a.214.214,0,0,0,.242-.242v-2.937a.214.214,0,0,0-.242-.242h-3.512q-.212,0-.212.242v2.937q0,.242.212.242ZM456.009-1.393q0,.212.242.212h6.327a1.232,1.232,0,0,1,.923.394,1.307,1.307,0,0,1,.378.938,1.256,1.256,0,0,1-.378.923,1.256,1.256,0,0,1-.923.378h-17.2a1.256,1.256,0,0,1-.923-.378,1.256,1.256,0,0,1-.378-.923,1.307,1.307,0,0,1,.378-.938,1.232,1.232,0,0,1,.923-.394h7.447q.242,0,.242-.212V-4.632a.214.214,0,0,0-.242-.242h-5.177a1.256,1.256,0,0,1-.923-.378,1.256,1.256,0,0,1-.378-.923,1.256,1.256,0,0,1,.378-.923,1.256,1.256,0,0,1,.923-.378h5.177q.242,0,.242-.212v-2.755q0-.212-.242-.212h-4.42a1.7,1.7,0,0,1-1.271-.53,1.742,1.742,0,0,1-.515-1.256V-22.826a1.742,1.742,0,0,1,.515-1.256,1.7,1.7,0,0,1,1.271-.53H460.7a1.717,1.717,0,0,1,1.256.53,1.717,1.717,0,0,1,.53,1.256v10.384a1.717,1.717,0,0,1-.53,1.256,1.717,1.717,0,0,1-1.256.53h-4.45q-.242,0-.242.212v2.755q0,.212.242.212h5.328a1.256,1.256,0,0,1,.923.378,1.256,1.256,0,0,1,.378.923,1.256,1.256,0,0,1-.378.923,1.256,1.256,0,0,1-.923.378h-5.328a.214.214,0,0,0-.242.242ZM483.77-6.63q0-.212-.242-.212h-6.085q-.242,0-.242.212v3.118q0,.212.242.212h6.085q.242,0,.242-.212Zm2.694,3.875a1.7,1.7,0,0,1-.53,1.271,1.742,1.742,0,0,1-1.256.515h-7.266a.187.187,0,0,0-.212.212v.272a1.307,1.307,0,0,1-.378.938,1.249,1.249,0,0,1-.938.394,1.3,1.3,0,0,1-.954-.394,1.281,1.281,0,0,1-.394-.938V-7.356a1.7,1.7,0,0,1,.53-1.271,1.742,1.742,0,0,1,1.256-.515h8.355a1.742,1.742,0,0,1,1.256.515,1.7,1.7,0,0,1,.53,1.271Zm1.816-19.072a.187.187,0,0,0-.212-.212H472.75a.187.187,0,0,0-.212.212v2.937q0,.242.212.242h15.318q.212,0,.212-.242Zm-15.8,7.75a.187.187,0,0,0,.212.212H491.58a1.646,1.646,0,0,1,1.241.545,1.572,1.572,0,0,1,.484,1.15,85.319,85.319,0,0,1-.605,9.688,8.417,8.417,0,0,1-.969,3.663,3.171,3.171,0,0,1-2.24,1.12,18.064,18.064,0,0,1-2.089.091h-.484a1.5,1.5,0,0,1-1.029-.409,2.174,2.174,0,0,1-.636-1.044.876.876,0,0,1,.121-.833.782.782,0,0,1,.727-.348q.848.03,1.423.03h.636a1.209,1.209,0,0,0,1-.454q.848-.938,1.211-10.414.03-.242-.212-.242H472.508q-.212,0-.242.242A29.441,29.441,0,0,1,469.057.394a1.123,1.123,0,0,1-.878.545.571.571,0,0,1-.182.03,1.364,1.364,0,0,1-.848-.3,1.664,1.664,0,0,1-.605-.969,2.207,2.207,0,0,1-.03-.363,1.647,1.647,0,0,1,.212-.787A19.91,19.91,0,0,0,468.3-5.192a25.309,25.309,0,0,0,.923-4.238q.288-2.195.378-3.89t.091-3.754v-5.631a1.742,1.742,0,0,1,.515-1.256,1.7,1.7,0,0,1,1.271-.53H489.37a1.7,1.7,0,0,1,1.271.53,1.742,1.742,0,0,1,.515,1.256v4.723a1.727,1.727,0,0,1-.515,1.271,1.727,1.727,0,0,1-1.271.515H472.75q-.212,0-.212.242Q472.538-15.318,472.478-14.077ZM7.313,30a1.318,1.318,0,0,1-.984-.41,1.349,1.349,0,0,1-.4-.973V14.836q0-.164-.187-.164H1.9a1.1,1.1,0,0,1-.809-.34,1.188,1.188,0,0,1,0-1.664,1.1,1.1,0,0,1,.809-.34H12.75a1.172,1.172,0,1,1,0,2.344H8.883a.145.145,0,0,0-.164.164V28.617A1.4,1.4,0,0,1,7.336,30Zm12.939.3a3.885,3.885,0,0,1-2.8-1.043,3.907,3.907,0,0,1,.75-6.023A14.67,14.67,0,0,1,24.1,21.609q.164,0,.164-.187-.117-2.7-2.508-2.7a6.38,6.38,0,0,0-2.906.8.983.983,0,0,1-.516.141.885.885,0,0,1-.281-.047,1.007,1.007,0,0,1-.633-.492,1.068,1.068,0,0,1-.141-.516,1.856,1.856,0,0,1,.023-.3,1,1,0,0,1,.516-.656,9.354,9.354,0,0,1,4.406-1.2,4.4,4.4,0,0,1,3.609,1.453,6.372,6.372,0,0,1,1.2,4.148v6.82A1.12,1.12,0,0,1,25.9,30a1.3,1.3,0,0,1-.867-.316,1.255,1.255,0,0,1-.445-.809l-.047-.352q-.023-.047-.059-.047t-.059.047A6.515,6.515,0,0,1,20.251,30.3Zm.844-2.18a4.792,4.792,0,0,0,3.047-1.406.412.412,0,0,0,.117-.3V23.531q0-.164-.141-.164H24.1a10.431,10.431,0,0,0-3.9,1.066,2.131,2.131,0,0,0-1.16,1.863A1.656,1.656,0,0,0,19.6,27.68,2.349,2.349,0,0,0,21.1,28.125ZM35.323,29.6a1.386,1.386,0,0,1-1.945,0,1.31,1.31,0,0,1-.4-.961V18.164a1.31,1.31,0,0,1,.4-.961,1.386,1.386,0,0,1,1.945,0,1.31,1.31,0,0,1,.4.961V28.641A1.31,1.31,0,0,1,35.323,29.6Zm.293-15.738a1.813,1.813,0,0,1-1.266.457,1.77,1.77,0,0,1-1.254-.457A1.514,1.514,0,0,1,32.6,12.7,1.541,1.541,0,0,1,33.1,11.52a1.77,1.77,0,0,1,1.254-.457,1.813,1.813,0,0,1,1.266.457,1.524,1.524,0,0,1,.5,1.184A1.5,1.5,0,0,1,35.616,13.863Zm8.638,21.152a1.386,1.386,0,0,1-1.945,0,1.337,1.337,0,0,1-.4-.984V17.977a1.12,1.12,0,0,1,1.125-1.125,1.261,1.261,0,0,1,.855.316,1.276,1.276,0,0,1,.434.809l.047.281q.023.047.059.047a.079.079,0,0,0,.059-.023,6.428,6.428,0,0,1,4.031-1.758,4.551,4.551,0,0,1,3.855,1.816,7.964,7.964,0,0,1,1.371,4.91,9.259,9.259,0,0,1-.469,3.012,6.369,6.369,0,0,1-1.266,2.25A5.9,5.9,0,0,1,50.2,29.883a4.872,4.872,0,0,1-2.145.492,5.219,5.219,0,0,1-3.328-1.383.1.1,0,0,0-.094,0,.075.075,0,0,0-.047.07l.07,2.086v2.883A1.337,1.337,0,0,1,44.255,35.016ZM47.536,28.1a2.872,2.872,0,0,0,2.414-1.277,5.857,5.857,0,0,0,.938-3.527q0-4.477-3.094-4.477a4.645,4.645,0,0,0-3.023,1.5.384.384,0,0,0-.117.281v6.117A.384.384,0,0,0,44.77,27,4.373,4.373,0,0,0,47.536,28.1ZM64.6,30.3a6.217,6.217,0,0,1-4.617-1.852,6.859,6.859,0,0,1-1.828-5.039,8.1,8.1,0,0,1,.5-2.883,6.422,6.422,0,0,1,1.348-2.215,6.236,6.236,0,0,1,1.922-1.371,5.358,5.358,0,0,1,2.25-.492,4.881,4.881,0,0,1,3.984,1.7,6.966,6.966,0,0,1,1.406,4.582v.023a1.323,1.323,0,0,1-.469.961,1.529,1.529,0,0,1-1.055.4H61.037q-.164,0-.141.188a4.324,4.324,0,0,0,1.277,2.824,3.9,3.9,0,0,0,2.777,1.02,5.517,5.517,0,0,0,2.273-.492,1.04,1.04,0,0,1,.469-.117.885.885,0,0,1,.281.047,1.022,1.022,0,0,1,.609.469,1.087,1.087,0,0,1,.117.492,1.708,1.708,0,0,1-.023.281.921.921,0,0,1-.492.586A7.664,7.664,0,0,1,64.6,30.3Zm-3.727-8.227a.124.124,0,0,0,.141.141h6a.145.145,0,0,0,.164-.164h0a4.009,4.009,0,0,0-.8-2.531,2.661,2.661,0,0,0-2.156-.891,3.067,3.067,0,0,0-2.18.891A3.509,3.509,0,0,0,60.873,22.078ZM77.047,29.6a1.386,1.386,0,0,1-1.945,0,1.31,1.31,0,0,1-.4-.961V18.164a1.31,1.31,0,0,1,.4-.961,1.386,1.386,0,0,1,1.945,0,1.31,1.31,0,0,1,.4.961V28.641A1.31,1.31,0,0,1,77.047,29.6Zm.293-15.738a1.813,1.813,0,0,1-1.266.457,1.77,1.77,0,0,1-1.254-.457,1.514,1.514,0,0,1-.492-1.16,1.541,1.541,0,0,1,.492-1.184,1.77,1.77,0,0,1,1.254-.457,1.813,1.813,0,0,1,1.266.457,1.524,1.524,0,0,1,.5,1.184A1.5,1.5,0,0,1,77.34,13.863ZM94.534,30a1.7,1.7,0,0,1-1.664-1.359L89.8,13.688a1.192,1.192,0,0,1-.023-.234,1.057,1.057,0,0,1,.258-.7,1.11,1.11,0,0,1,.891-.422h.094a1.6,1.6,0,0,1,1.066.387,1.669,1.669,0,0,1,.574.973l1.406,7.852.938,5.6a.041.041,0,0,0,.047.047.075.075,0,0,0,.07-.047q.445-2.2,1.172-5.6l1.992-8.016a1.622,1.622,0,0,1,.563-.855,1.528,1.528,0,0,1,1.922,0,1.622,1.622,0,0,1,.563.855l1.992,8.016q.258,1.078.7,3.211t.492,2.391a.084.084,0,0,0,.082.047q.059,0,.059-.047.164-1.125.492-3.141t.4-2.461l1.43-7.9a1.518,1.518,0,0,1,.539-.937,1.553,1.553,0,0,1,1.031-.375,1.044,1.044,0,0,1,.844.4,1.026,1.026,0,0,1,.258.68,1.192,1.192,0,0,1-.023.234l-2.953,15A1.7,1.7,0,0,1,105.011,30h-.656a1.725,1.725,0,0,1-1.09-.375,1.687,1.687,0,0,1-.621-.961L100.6,20.18q-.445-1.992-.82-3.984,0-.07-.059-.07t-.082.07q-.141.773-.8,3.984l-2.016,8.484A1.758,1.758,0,0,1,95.143,30Zm22.853.3a3.885,3.885,0,0,1-2.8-1.043,3.907,3.907,0,0,1,.75-6.023,14.67,14.67,0,0,1,5.895-1.629q.164,0,.164-.187-.117-2.7-2.508-2.7a6.38,6.38,0,0,0-2.906.8.983.983,0,0,1-.516.141.885.885,0,0,1-.281-.047,1.007,1.007,0,0,1-.633-.492,1.068,1.068,0,0,1-.141-.516,1.856,1.856,0,0,1,.023-.3,1,1,0,0,1,.516-.656,9.354,9.354,0,0,1,4.406-1.2,4.4,4.4,0,0,1,3.609,1.453,6.372,6.372,0,0,1,1.2,4.148v6.82A1.12,1.12,0,0,1,123.035,30a1.3,1.3,0,0,1-.867-.316,1.255,1.255,0,0,1-.445-.809l-.047-.352q-.023-.047-.059-.047t-.059.047A6.515,6.515,0,0,1,117.387,30.3Zm.844-2.18a4.792,4.792,0,0,0,3.047-1.406.412.412,0,0,0,.117-.3V23.531q0-.164-.141-.164h-.023a10.431,10.431,0,0,0-3.9,1.066,2.131,2.131,0,0,0-1.16,1.863,1.656,1.656,0,0,0,.563,1.383A2.349,2.349,0,0,0,118.231,28.125Zm16.337,2.18A3.65,3.65,0,0,1,131.5,29.1a5.449,5.449,0,0,1-.937-3.41V19.2a.166.166,0,0,0-.187-.187h-.7a.981.981,0,0,1-.738-.3,1.012,1.012,0,0,1-.293-.727,1.082,1.082,0,0,1,.293-.762,1.042,1.042,0,0,1,.738-.34l.82-.07a.166.166,0,0,0,.188-.187l.211-2.3a1.269,1.269,0,0,1,.41-.832,1.211,1.211,0,0,1,.855-.34,1.1,1.1,0,0,1,.809.34,1.132,1.132,0,0,1,.34.832v2.3a.166.166,0,0,0,.188.188h2.156a1.078,1.078,0,0,1,.773.316,1.033,1.033,0,0,1,.328.773,1.071,1.071,0,0,1-.328.785,1.058,1.058,0,0,1-.773.328H133.49a.166.166,0,0,0-.187.188v6.516a2.929,2.929,0,0,0,.457,1.793,1.727,1.727,0,0,0,1.465.6q.188,0,.422-.023a.771.771,0,0,1,.188-.023,1.188,1.188,0,0,1,.609.164.855.855,0,0,1,.445.586.885.885,0,0,1,.047.281,1.111,1.111,0,0,1-.141.539.989.989,0,0,1-.656.492A7.266,7.266,0,0,1,134.568,30.3Zm12.376,0a6.217,6.217,0,0,1-4.617-1.852,6.859,6.859,0,0,1-1.828-5.039,8.1,8.1,0,0,1,.5-2.883,6.422,6.422,0,0,1,1.348-2.215,6.236,6.236,0,0,1,1.922-1.371,5.358,5.358,0,0,1,2.25-.492,4.881,4.881,0,0,1,3.984,1.7,6.966,6.966,0,0,1,1.406,4.582v.023a1.323,1.323,0,0,1-.469.961,1.529,1.529,0,0,1-1.055.4h-7.008q-.164,0-.141.188a4.324,4.324,0,0,0,1.277,2.824,3.9,3.9,0,0,0,2.777,1.02,5.517,5.517,0,0,0,2.273-.492,1.04,1.04,0,0,1,.469-.117.885.885,0,0,1,.281.047,1.022,1.022,0,0,1,.609.469,1.087,1.087,0,0,1,.117.492,1.708,1.708,0,0,1-.023.281.921.921,0,0,1-.492.586A7.664,7.664,0,0,1,146.945,30.3Zm-3.727-8.227a.124.124,0,0,0,.141.141h6a.145.145,0,0,0,.164-.164h0a4.009,4.009,0,0,0-.8-2.531,2.661,2.661,0,0,0-2.156-.891,3.067,3.067,0,0,0-2.18.891A3.509,3.509,0,0,0,143.218,22.078ZM159.391,29.6a1.386,1.386,0,0,1-1.945,0,1.31,1.31,0,0,1-.4-.961V17.93a1.12,1.12,0,0,1,1.125-1.125,1.218,1.218,0,0,1,.844.316,1.2,1.2,0,0,1,.4.809l.094,1.219a.079.079,0,0,0,.059.023q.035,0,.035-.023a5.985,5.985,0,0,1,1.688-1.98,3.427,3.427,0,0,1,2.039-.715,1.856,1.856,0,0,1,.3.023.946.946,0,0,1,.8.469,1.394,1.394,0,0,1,.188.7,1.114,1.114,0,0,1-.047.3,1.067,1.067,0,0,1-.516.727,1.6,1.6,0,0,1-.891.258H163a2.8,2.8,0,0,0-1.711.645,4.877,4.877,0,0,0-1.43,2.027.827.827,0,0,0-.07.328v6.7A1.31,1.31,0,0,1,159.391,29.6Zm19.351.035a1.2,1.2,0,0,1-.879.363,1.236,1.236,0,0,1-.891-.363,1.179,1.179,0,0,1-.375-.879V13.711a1.4,1.4,0,0,1,1.383-1.383h.445a1.913,1.913,0,0,1,1.125.363,1.941,1.941,0,0,1,.727.949l2.766,7.617q.211.633.6,1.816t.551,1.7q.023.07.082.07t.082-.07q.188-.539.551-1.723t.574-1.793l2.742-7.617a1.81,1.81,0,0,1,.7-.949,1.913,1.913,0,0,1,1.125-.363h.469a1.4,1.4,0,0,1,1.383,1.383v15a1.225,1.225,0,0,1-.387.914,1.283,1.283,0,0,1-.926.375,1.28,1.28,0,0,1-1.289-1.289V21.258q0-1.453.352-5.414a.047.047,0,0,0-.094,0l-1.406,4.031-2.789,7.617a1.1,1.1,0,0,1-.445.574,1.247,1.247,0,0,1-.715.223,1.194,1.194,0,0,1-.7-.223,1.264,1.264,0,0,1-.457-.574l-2.789-7.617-1.383-4.031q0-.047-.059-.047t-.035.047q.328,4.43.328,5.414v7.5A1.2,1.2,0,0,1,178.742,29.637Zm22.7.668a3.885,3.885,0,0,1-2.8-1.043,3.907,3.907,0,0,1,.75-6.023,14.67,14.67,0,0,1,5.895-1.629q.164,0,.164-.187-.117-2.7-2.508-2.7a6.38,6.38,0,0,0-2.906.8.983.983,0,0,1-.516.141.885.885,0,0,1-.281-.047,1.007,1.007,0,0,1-.633-.492,1.068,1.068,0,0,1-.141-.516,1.856,1.856,0,0,1,.023-.3,1,1,0,0,1,.516-.656,9.354,9.354,0,0,1,4.406-1.2,4.4,4.4,0,0,1,3.609,1.453,6.372,6.372,0,0,1,1.2,4.148v6.82A1.12,1.12,0,0,1,207.091,30a1.3,1.3,0,0,1-.867-.316,1.255,1.255,0,0,1-.445-.809l-.047-.352q-.023-.047-.059-.047t-.059.047A6.515,6.515,0,0,1,201.443,30.3Zm.844-2.18a4.792,4.792,0,0,0,3.047-1.406.412.412,0,0,0,.117-.3V23.531q0-.164-.141-.164h-.023a10.431,10.431,0,0,0-3.9,1.066,2.131,2.131,0,0,0-1.16,1.863,1.656,1.656,0,0,0,.563,1.383A2.349,2.349,0,0,0,202.287,28.125ZM216.515,29.6a1.386,1.386,0,0,1-1.945,0,1.31,1.31,0,0,1-.4-.961V17.93A1.12,1.12,0,0,1,215.3,16.8a1.261,1.261,0,0,1,.855.316,1.182,1.182,0,0,1,.41.809l.07.656q.023.047.059.047a.079.079,0,0,0,.059-.023,9.776,9.776,0,0,1,2.074-1.594,4.6,4.6,0,0,1,2.262-.562q4.055,0,4.055,5.25v6.914a1.337,1.337,0,0,1-.4.984,1.323,1.323,0,0,1-.973.4,1.362,1.362,0,0,1-.984-.4,1.318,1.318,0,0,1-.41-.984V22.031a4.33,4.33,0,0,0-.527-2.449,1.944,1.944,0,0,0-1.7-.738,3.026,3.026,0,0,0-1.523.387,8.363,8.363,0,0,0-1.594,1.277.467.467,0,0,0-.117.3v7.828A1.31,1.31,0,0,1,216.515,29.6Zm17.791.7a3.885,3.885,0,0,1-2.8-1.043,3.907,3.907,0,0,1,.75-6.023,14.67,14.67,0,0,1,5.895-1.629q.164,0,.164-.187-.117-2.7-2.508-2.7a6.38,6.38,0,0,0-2.906.8.983.983,0,0,1-.516.141.885.885,0,0,1-.281-.047,1.007,1.007,0,0,1-.633-.492,1.068,1.068,0,0,1-.141-.516,1.856,1.856,0,0,1,.023-.3,1,1,0,0,1,.516-.656,9.354,9.354,0,0,1,4.406-1.2,4.4,4.4,0,0,1,3.609,1.453,6.372,6.372,0,0,1,1.2,4.148v6.82A1.12,1.12,0,0,1,239.954,30a1.3,1.3,0,0,1-.867-.316,1.255,1.255,0,0,1-.445-.809l-.047-.352q-.023-.047-.059-.047t-.059.047A6.515,6.515,0,0,1,234.305,30.3Zm.844-2.18a4.792,4.792,0,0,0,3.047-1.406.412.412,0,0,0,.117-.3V23.531q0-.164-.141-.164h-.023a10.431,10.431,0,0,0-3.9,1.066,2.131,2.131,0,0,0-1.16,1.863,1.656,1.656,0,0,0,.563,1.383A2.349,2.349,0,0,0,235.149,28.125ZM251.557,36a7.69,7.69,0,0,1-3.973-.9,2.855,2.855,0,0,1-1.512-2.59,2.729,2.729,0,0,1,.492-1.535,4.535,4.535,0,0,1,1.383-1.3.084.084,0,0,0,.047-.082.146.146,0,0,0-.047-.105,2.388,2.388,0,0,1-1.148-2.156,3.04,3.04,0,0,1,1.43-2.414.117.117,0,0,0,0-.141,4.71,4.71,0,0,1-1.207-1.5,4.216,4.216,0,0,1-.48-1.992,4.345,4.345,0,0,1,1.477-3.445,5.328,5.328,0,0,1,3.633-1.289,5.982,5.982,0,0,1,1.758.258.827.827,0,0,0,.328.07h3.469a.981.981,0,0,1,.738.3,1.047,1.047,0,0,1,0,1.453.981.981,0,0,1-.738.3h-1.312a.075.075,0,0,0-.07.047.046.046,0,0,0,.023.07,3.5,3.5,0,0,1,.75,2.3,4.175,4.175,0,0,1-1.406,3.328A5.21,5.21,0,0,1,251.65,25.9a4.244,4.244,0,0,1-1.687-.352.317.317,0,0,0-.3.07,1.717,1.717,0,0,0-.586,1.266,1.075,1.075,0,0,0,.5.961,3.259,3.259,0,0,0,1.7.328h2.438a6.626,6.626,0,0,1,3.562.773,2.692,2.692,0,0,1,1.2,2.438,3.906,3.906,0,0,1-1.91,3.293A8.612,8.612,0,0,1,251.557,36Zm-1.687-12.656a2.349,2.349,0,0,0,1.781.773,2.313,2.313,0,0,0,1.77-.773,2.919,2.919,0,0,0,.715-2.062,2.9,2.9,0,0,0-.7-2.051,2.319,2.319,0,0,0-1.781-.762,2.373,2.373,0,0,0-1.793.75,2.867,2.867,0,0,0-.715,2.063A2.89,2.89,0,0,0,249.869,23.344Zm2.086,10.828a4.975,4.975,0,0,0,2.766-.7,1.984,1.984,0,0,0,1.078-1.641,1.171,1.171,0,0,0-.609-1.125,4.109,4.109,0,0,0-1.875-.328h-1.992a9.154,9.154,0,0,1-1.594-.141.208.208,0,0,0-.094-.023.291.291,0,0,0-.211.094,2.242,2.242,0,0,0-1.008,1.8,1.684,1.684,0,0,0,.949,1.512A5.165,5.165,0,0,0,251.955,34.172ZM268.082,30.3a6.217,6.217,0,0,1-4.617-1.852,6.859,6.859,0,0,1-1.828-5.039,8.1,8.1,0,0,1,.5-2.883,6.422,6.422,0,0,1,1.348-2.215,6.236,6.236,0,0,1,1.922-1.371,5.358,5.358,0,0,1,2.25-.492,4.881,4.881,0,0,1,3.984,1.7,6.966,6.966,0,0,1,1.406,4.582v.023a1.323,1.323,0,0,1-.469.961,1.529,1.529,0,0,1-1.055.4h-7.008q-.164,0-.141.188a4.324,4.324,0,0,0,1.277,2.824,3.9,3.9,0,0,0,2.777,1.02,5.517,5.517,0,0,0,2.273-.492,1.04,1.04,0,0,1,.469-.117.885.885,0,0,1,.281.047,1.022,1.022,0,0,1,.609.469,1.087,1.087,0,0,1,.117.492,1.708,1.708,0,0,1-.023.281.921.921,0,0,1-.492.586A7.664,7.664,0,0,1,268.082,30.3Zm-3.727-8.227a.124.124,0,0,0,.141.141h6a.145.145,0,0,0,.164-.164h0a4.009,4.009,0,0,0-.8-2.531,2.661,2.661,0,0,0-2.156-.891,3.067,3.067,0,0,0-2.18.891A3.509,3.509,0,0,0,264.355,22.078ZM280.528,29.6a1.386,1.386,0,0,1-1.945,0,1.31,1.31,0,0,1-.4-.961V17.93A1.12,1.12,0,0,1,279.31,16.8a1.261,1.261,0,0,1,.855.316,1.182,1.182,0,0,1,.41.809l.07.68q.023.047.059.047a.079.079,0,0,0,.059-.023,5.723,5.723,0,0,1,4.055-2.18,3.557,3.557,0,0,1,3.586,2.273q.047.164.188.023a9.474,9.474,0,0,1,2.039-1.7,4.116,4.116,0,0,1,2.133-.6q4.055,0,4.055,5.25v6.914a1.318,1.318,0,0,1-.41.984,1.362,1.362,0,0,1-.984.4,1.323,1.323,0,0,1-.973-.4,1.337,1.337,0,0,1-.4-.984V22.031a4.262,4.262,0,0,0-.539-2.437,1.911,1.911,0,0,0-1.664-.75,4.278,4.278,0,0,0-2.859,1.664.467.467,0,0,0-.117.3v7.8a1.318,1.318,0,0,1-.41.984,1.362,1.362,0,0,1-.984.4,1.323,1.323,0,0,1-.973-.4,1.337,1.337,0,0,1-.4-.984V22.031a4.338,4.338,0,0,0-.527-2.437,1.906,1.906,0,0,0-1.676-.75,4.278,4.278,0,0,0-2.859,1.664.467.467,0,0,0-.117.3v7.828A1.31,1.31,0,0,1,280.528,29.6Zm27.822.7a6.217,6.217,0,0,1-4.617-1.852,6.859,6.859,0,0,1-1.828-5.039,8.1,8.1,0,0,1,.5-2.883,6.422,6.422,0,0,1,1.348-2.215,6.236,6.236,0,0,1,1.922-1.371,5.358,5.358,0,0,1,2.25-.492,4.881,4.881,0,0,1,3.984,1.7,6.966,6.966,0,0,1,1.406,4.582v.023a1.323,1.323,0,0,1-.469.961,1.529,1.529,0,0,1-1.055.4h-7.008q-.164,0-.141.188a4.324,4.324,0,0,0,1.277,2.824,3.9,3.9,0,0,0,2.777,1.02,5.517,5.517,0,0,0,2.273-.492,1.04,1.04,0,0,1,.469-.117.885.885,0,0,1,.281.047,1.022,1.022,0,0,1,.609.469,1.087,1.087,0,0,1,.117.492,1.708,1.708,0,0,1-.023.281.921.921,0,0,1-.492.586A7.664,7.664,0,0,1,308.35,30.3Zm-3.727-8.227a.124.124,0,0,0,.141.141h6a.145.145,0,0,0,.164-.164h0a4.009,4.009,0,0,0-.8-2.531,2.661,2.661,0,0,0-2.156-.891,3.067,3.067,0,0,0-2.18.891A3.509,3.509,0,0,0,304.624,22.078ZM320.8,29.6a1.386,1.386,0,0,1-1.945,0,1.31,1.31,0,0,1-.4-.961V17.93a1.12,1.12,0,0,1,1.125-1.125,1.261,1.261,0,0,1,.855.316,1.182,1.182,0,0,1,.41.809l.07.656q.023.047.059.047a.079.079,0,0,0,.059-.023,9.776,9.776,0,0,1,2.074-1.594,4.6,4.6,0,0,1,2.262-.562q4.055,0,4.055,5.25v6.914a1.337,1.337,0,0,1-.4.984,1.323,1.323,0,0,1-.973.4,1.362,1.362,0,0,1-.984-.4,1.318,1.318,0,0,1-.41-.984V22.031a4.33,4.33,0,0,0-.527-2.449,1.944,1.944,0,0,0-1.7-.738,3.026,3.026,0,0,0-1.523.387,8.363,8.363,0,0,0-1.594,1.277.467.467,0,0,0-.117.3v7.828A1.31,1.31,0,0,1,320.8,29.6Zm19.126.7a3.65,3.65,0,0,1-3.07-1.207,5.449,5.449,0,0,1-.937-3.41V19.2a.166.166,0,0,0-.187-.187h-.7a.981.981,0,0,1-.738-.3,1.012,1.012,0,0,1-.293-.727,1.082,1.082,0,0,1,.293-.762,1.042,1.042,0,0,1,.738-.34l.82-.07a.166.166,0,0,0,.188-.187l.211-2.3a1.269,1.269,0,0,1,.41-.832,1.211,1.211,0,0,1,.855-.34,1.1,1.1,0,0,1,.809.34,1.132,1.132,0,0,1,.34.832v2.3a.166.166,0,0,0,.188.188H341a1.078,1.078,0,0,1,.773.316,1.033,1.033,0,0,1,.328.773,1.071,1.071,0,0,1-.328.785,1.058,1.058,0,0,1-.773.328h-2.156a.166.166,0,0,0-.187.188v6.516a2.929,2.929,0,0,0,.457,1.793,1.727,1.727,0,0,0,1.465.6q.188,0,.422-.023a.771.771,0,0,1,.188-.023,1.188,1.188,0,0,1,.609.164.855.855,0,0,1,.445.586.885.885,0,0,1,.047.281,1.111,1.111,0,0,1-.141.539.989.989,0,0,1-.656.492A7.266,7.266,0,0,1,339.924,30.3Zm27.1-2.5a7.468,7.468,0,0,1-11.145,0,10.027,10.027,0,0,1-2.121-6.715,9.8,9.8,0,0,1,2.121-6.656,7.576,7.576,0,0,1,11.145.012,9.769,9.769,0,0,1,2.133,6.645A9.991,9.991,0,0,1,367.02,27.809Zm-9.094-1.758a4.29,4.29,0,0,0,7.043,0,8.323,8.323,0,0,0,1.324-4.957,8.061,8.061,0,0,0-1.324-4.887,4.355,4.355,0,0,0-7.043,0,8.115,8.115,0,0,0-1.312,4.887A8.378,8.378,0,0,0,357.927,26.051ZM382.866,16.8q.164,0,.164-.187V15.141a5.028,5.028,0,0,1,1.031-3.352,3.915,3.915,0,0,1,3.164-1.219,7.585,7.585,0,0,1,1.336.117.907.907,0,0,1,.633.516,1.068,1.068,0,0,1,.141.516,1.189,1.189,0,0,1-.047.328.918.918,0,0,1-.469.609,1.344,1.344,0,0,1-.609.141,1.086,1.086,0,0,1-.211-.023q-.234-.023-.445-.023-1.758,0-1.758,2.367v1.5a.166.166,0,0,0,.188.188h1.383a1.078,1.078,0,0,1,.773.316,1.033,1.033,0,0,1,.328.773,1.071,1.071,0,0,1-.328.785,1.058,1.058,0,0,1-.773.328h-1.383a.166.166,0,0,0-.187.188v9.422a1.337,1.337,0,0,1-.4.984,1.323,1.323,0,0,1-.973.4,1.362,1.362,0,0,1-.984-.4,1.318,1.318,0,0,1-.41-.984V19.2q0-.187-.164-.187h-4.828a.166.166,0,0,0-.187.188v9.422a1.337,1.337,0,0,1-.4.984,1.386,1.386,0,0,1-1.945,0,1.337,1.337,0,0,1-.4-.984V19.2a.166.166,0,0,0-.187-.187h-.586a1.04,1.04,0,0,1-1.031-1.031,1.082,1.082,0,0,1,.293-.762,1.134,1.134,0,0,1,.738-.363l.586-.047a.166.166,0,0,0,.188-.187V15.4a4.857,4.857,0,0,1,1.09-3.34,4.14,4.14,0,0,1,3.27-1.23,7.108,7.108,0,0,1,1.523.164.923.923,0,0,1,.656.492,1.07,1.07,0,0,1,.094.844,1,1,0,0,1-.492.609,1.294,1.294,0,0,1-.586.141,1.192,1.192,0,0,1-.234-.023,4.493,4.493,0,0,0-.68-.047,1.7,1.7,0,0,0-1.395.621,2.785,2.785,0,0,0-.5,1.793v1.2a.166.166,0,0,0,.188.188Zm10.652-2.941a1.981,1.981,0,0,1-2.531,0,1.5,1.5,0,0,1-.5-1.16,1.524,1.524,0,0,1,.5-1.184,1.981,1.981,0,0,1,2.531,0,1.524,1.524,0,0,1,.5,1.184A1.5,1.5,0,0,1,393.518,13.863ZM392.241,30a1.4,1.4,0,0,1-1.383-1.383V18.188a1.318,1.318,0,0,1,.41-.984,1.349,1.349,0,0,1,.973-.4h.023a1.361,1.361,0,0,1,1.383,1.383v10.43a1.349,1.349,0,0,1-.4.973,1.318,1.318,0,0,1-.984.41Zm12.962.3a6.026,6.026,0,0,1-4.523-1.84,6.955,6.955,0,0,1-1.781-5.051,7.911,7.911,0,0,1,.527-2.93,6.117,6.117,0,0,1,1.43-2.2,6.593,6.593,0,0,1,4.582-1.828,5.5,5.5,0,0,1,2.953.844.937.937,0,0,1,.445.727.519.519,0,0,1,.023.164,1.026,1.026,0,0,1-.258.68,1.054,1.054,0,0,1-.727.422h-.187a1.5,1.5,0,0,1-.68-.164,3.051,3.051,0,0,0-1.453-.375,3.386,3.386,0,0,0-2.73,1.289,5.123,5.123,0,0,0-1.066,3.375,5.191,5.191,0,0,0,1.031,3.363,3.3,3.3,0,0,0,2.7,1.277,3.858,3.858,0,0,0,1.992-.586,1.147,1.147,0,0,1,.586-.164,1.086,1.086,0,0,1,.211.023,1.027,1.027,0,0,1,.656.445,1.115,1.115,0,0,1,.188.633,1.086,1.086,0,0,1-.023.211.936.936,0,0,1-.469.7A6.32,6.32,0,0,1,405.2,30.3Zm14.017,0a6.217,6.217,0,0,1-4.617-1.852,6.859,6.859,0,0,1-1.828-5.039,8.1,8.1,0,0,1,.5-2.883,6.422,6.422,0,0,1,1.348-2.215,6.236,6.236,0,0,1,1.922-1.371,5.358,5.358,0,0,1,2.25-.492,4.881,4.881,0,0,1,3.984,1.7,6.966,6.966,0,0,1,1.406,4.582v.023a1.323,1.323,0,0,1-.469.961,1.529,1.529,0,0,1-1.055.4h-7.008q-.164,0-.141.188a4.324,4.324,0,0,0,1.277,2.824,3.9,3.9,0,0,0,2.777,1.02,5.517,5.517,0,0,0,2.273-.492,1.04,1.04,0,0,1,.469-.117.885.885,0,0,1,.281.047,1.022,1.022,0,0,1,.609.469,1.087,1.087,0,0,1,.117.492,1.708,1.708,0,0,1-.023.281.921.921,0,0,1-.492.586A7.664,7.664,0,0,1,419.22,30.3Zm-3.727-8.227a.124.124,0,0,0,.141.141h6a.145.145,0,0,0,.164-.164h0a4.009,4.009,0,0,0-.8-2.531,2.661,2.661,0,0,0-2.156-.891,3.067,3.067,0,0,0-2.18.891A3.509,3.509,0,0,0,415.494,22.078ZM429.909,34.5a.7.7,0,0,1-.352.094.624.624,0,0,1-.281-.07.776.776,0,0,1-.445-.469.672.672,0,0,1-.07-.3.827.827,0,0,1,.07-.328.977.977,0,0,1,.422-.516,3.452,3.452,0,0,0,1.875-2.742q0-.141-.164-.141h-.094a1.892,1.892,0,0,1-1.324-.48,1.673,1.673,0,0,1-.527-1.3,1.647,1.647,0,0,1,.551-1.289,1.982,1.982,0,0,1,1.371-.492,1.814,1.814,0,0,1,1.57.8,3.721,3.721,0,0,1,.563,2.18,5.425,5.425,0,0,1-.832,2.988A5.914,5.914,0,0,1,429.909,34.5ZM449.436,30a1.7,1.7,0,0,1-1.664-1.359L444.7,13.688a1.192,1.192,0,0,1-.023-.234,1.057,1.057,0,0,1,.258-.7,1.11,1.11,0,0,1,.891-.422h.094a1.6,1.6,0,0,1,1.066.387,1.669,1.669,0,0,1,.574.973l1.406,7.852.938,5.6a.041.041,0,0,0,.047.047.075.075,0,0,0,.07-.047q.445-2.2,1.172-5.6l1.992-8.016a1.622,1.622,0,0,1,.563-.855,1.528,1.528,0,0,1,1.922,0,1.622,1.622,0,0,1,.563.855l1.992,8.016q.258,1.078.7,3.211t.492,2.391a.084.084,0,0,0,.082.047q.059,0,.059-.047.164-1.125.492-3.141t.4-2.461l1.43-7.9a1.518,1.518,0,0,1,.539-.937,1.553,1.553,0,0,1,1.031-.375,1.044,1.044,0,0,1,.844.4,1.026,1.026,0,0,1,.258.68,1.192,1.192,0,0,1-.023.234l-2.953,15A1.7,1.7,0,0,1,459.912,30h-.656a1.725,1.725,0,0,1-1.09-.375,1.687,1.687,0,0,1-.621-.961l-2.039-8.484q-.445-1.992-.82-3.984,0-.07-.059-.07t-.082.07q-.141.773-.8,3.984l-2.016,8.484A1.758,1.758,0,0,1,450.045,30ZM472.71,14.578q-.187,0-.187.164v5.719a.166.166,0,0,0,.188.188h2.484q3.961,0,3.961-3.211a2.45,2.45,0,0,0-.984-2.2,5.423,5.423,0,0,0-2.977-.656ZM481.851,28.8a.72.72,0,0,1,.117.387.843.843,0,0,1-.117.41.764.764,0,0,1-.7.4h-.375a2.335,2.335,0,0,1-1.2-.328,2.31,2.31,0,0,1-.867-.867l-3.234-5.789a.315.315,0,0,0-.281-.141H472.71q-.187,0-.187.164v5.578a1.349,1.349,0,0,1-.4.973,1.318,1.318,0,0,1-.984.41h-.023a1.4,1.4,0,0,1-1.383-1.383V13.711a1.4,1.4,0,0,1,1.383-1.383h4.406q6.375,0,6.375,5.109a5.245,5.245,0,0,1-.926,3.2,5.172,5.172,0,0,1-2.59,1.816q-.164.07-.07.211Zm8.134-6.187a.1.1,0,0,0,.023.105.127.127,0,0,0,.094.059h4.477a.115.115,0,0,0,.105-.059.21.21,0,0,0,.035-.105l-.656-2.227q-.445-1.43-1.664-5.812a.075.075,0,0,0-.07-.047.041.041,0,0,0-.047.047q-.656,2.6-1.617,5.813ZM498.306,30a1.81,1.81,0,0,1-1.1-.363,1.85,1.85,0,0,1-.68-.973l-1.031-3.539a.241.241,0,0,0-.234-.164H489.47a.217.217,0,0,0-.234.164l-1.055,3.539a1.85,1.85,0,0,1-.68.973,1.81,1.81,0,0,1-1.1.363h-.07a.961.961,0,0,1-.82-.422.936.936,0,0,1-.187-.562.827.827,0,0,1,.07-.328l4.969-15.047a1.991,1.991,0,0,1,.7-.949,1.845,1.845,0,0,1,1.125-.363h.445a1.861,1.861,0,0,1,1.113.363,1.965,1.965,0,0,1,.715.949l4.969,15.047a.827.827,0,0,1,.07.328.87.87,0,0,1-.211.563.9.9,0,0,1-.8.422Z" transform="translate(93.086 199.443)" fill="#fff"/>
  </g>
</svg>
