<svg xmlns="http://www.w3.org/2000/svg" xmlns:xlink="http://www.w3.org/1999/xlink" width="795.313" height="117.46" viewBox="0 0 795.313 117.46">
  <defs>
    <linearGradient id="linear-gradient" x1="0.5" y1="-0.947" x2="0.5" y2="1.874" gradientUnits="objectBoundingBox">
      <stop offset="0" stop-color="#00a12f"/>
      <stop offset="0.12" stop-color="#008b4c"/>
      <stop offset="0.287" stop-color="#00726e"/>
      <stop offset="0.458" stop-color="#005e88"/>
      <stop offset="0.632" stop-color="#00509b"/>
      <stop offset="0.81" stop-color="#0047a7"/>
      <stop offset="1" stop-color="#0045ab"/>
    </linearGradient>
    <linearGradient id="linear-gradient-2" x1="0.5" y1="-1.263" x2="0.5" y2="2.554" xlink:href="#linear-gradient"/>
    <linearGradient id="linear-gradient-3" x1="0.5" y1="0.257" x2="0.5" y2="2.882" xlink:href="#linear-gradient"/>
    <linearGradient id="linear-gradient-4" x1="0.5" y1="-0.443" x2="0.5" y2="9.751" xlink:href="#linear-gradient"/>
    <linearGradient id="linear-gradient-5" x1="0.5" y1="-0.104" x2="0.5" y2="0.968" xlink:href="#linear-gradient"/>
  </defs>
  <g id="logo-ga" transform="translate(52.119 -96.745)">
    <path id="Path_1" data-name="Path 1" d="M215.577,159.3s6.875-12.855,18.562-8.239S238.264,164.3,252.7,159.3c0,0-8.937,11.554-18.562,6.028S223.139,156.735,215.577,159.3Z" fill="#0045ab"/>
    <g id="Group_1" data-name="Group 1">
      <path id="Path_2" data-name="Path 2" d="M174.651,181.116v-8.365q.02-9.294-.026-18.564c-.026-6.493-3.679-10.869-9.992-12.044a37.6,37.6,0,0,0-6.493-.594c-4.7-.052-9.4-.039-14.11-.026h-5.809l1.807-11.8h37.618v-9.475H102.81v9.591h27.265l-1.846,11.709h-24.27v9.669H126.68l-4.7,30.015h-20.1v9.527H178.3v-9.644Zm-42.666-.038,4.674-29.86h9.385c4.221,0,8.43,0,12.651.039a37.9,37.9,0,0,1,4.041.323c.748.09,1.639.4,1.91,2.052a12.136,12.136,0,0,1,.142,1.82q.02,12.82.013,25.626Z" fill="#302d2c"/>
      <path id="Path_3" data-name="Path 3" d="M338.92,120.256v10.191H337.4c-10.193,0-18.316-.007-28.509.013a9.424,9.424,0,0,0-2.627.3,5.975,5.975,0,0,0-4.26,5.679q-.048,19.249.011,38.5c.017,3.911,1.573,5.671,4.626,5.672,7.307,0,10.363,0,17.67,0,3.066,0,5.7-1.714,5.819-5.6.106-3.584.106-7.182-.006-10.766-.11-3.551-2.692-5.183-5.485-5.186-5.535-.006-8.291,0-13.92,0V148.917a7.871,7.871,0,0,1,.856-.1c5.771,0,10.44-.063,16.21.03,3.774.061,8.219,1.586,10.775,5.309a12.111,12.111,0,0,1,2.283,6.858c.03,5.762.137,11.549-.228,17.281a13.419,13.419,0,0,1-12.976,12.557c-8.889.005-14.037.059-22.926-.025-4.776-.045-10.264-2.31-12.108-8.146a22.4,22.4,0,0,1-1.049-6.212c-.084-13.774-.117-27.55-.021-41.323.059-8.339,6.5-14.663,13.052-14.815C316.586,120.056,326.762,120.256,338.92,120.256Z" fill="#302d2c"/>
      <path id="Path_4" data-name="Path 4" d="M266.5,128.136V120.2h-9.733v7.888h-45.39v-7.9h-9.7v8.055h-5.86v9.631h5.886l.013,12.728c-.013,9.6-.013,19.2.052,28.8.051,6.894,4.557,11.374,11.463,11.412,6.494.052,13.31.065,20.771.065,6.61,0,13.723-.013,21.52-.052a10.722,10.722,0,0,0,10.651-8.791,21.313,21.313,0,0,0,.348-4.389c.026-9.915.013-19.816.013-29.73V137.831h5.822v-9.695Zm-9.694,49.159c0,2.531-.853,3.5-3.357,3.834a9.954,9.954,0,0,1-1.523.065h-.336q-17.815,0-35.63-.013a11.387,11.387,0,0,1-2.1-.142c-1.9-.374-2.311-1.252-2.337-2.479-.077-3.769-.064-7.552-.051-11.347V166.09l.077-28.13h45.222v24.593l.051,1.11Z" fill="#302d2c"/>
      <path id="Path_5" data-name="Path 5" d="M397.619,190.811H388.48a1.42,1.42,0,0,1-1.621-1.265v-.013c-.757-3.033-1.541-6.106-2.311-9.191q-.719-2.925-1.435-5.874l-5.646-24.1s-2.564-10.973-3.812-15.323c-.664-2.324-1.09-4.028-2.763-4.028s-2.259,1.807-2.8,3.989c-.651,2.582-1.78,7.165-2.4,9.747-.173.735-.531,2.22-.531,2.22l-.014.052c-.956,3.963-9.019,38.186-10.135,42.485-.266.981-.585,1.394-1.448,1.368-2.511-.077-6.669-.026-9.379-.026.877-3.782,1.687-7.371,2.524-10.947q5.121-21.882,10.256-43.75c1.009-4.325,2.391-8.4,4.875-11.76a11.3,11.3,0,0,1,19.116,1.381,28.129,28.129,0,0,1,2.776,7.061c4.623,18.9,9.14,37.864,13.683,56.8C397.486,189.972,397.526,190.321,397.619,190.811Z" fill="#302d2c"/>
    </g>
    <g id="Group_6" data-name="Group 6">
      <path id="Path_6" data-name="Path 6" d="M732.255,175.218l-8.888,4.06-.461.211,8.895,4.271,8.888-4.06.461-.211Z" fill="#302d2c"/>
      <path id="Path_7" data-name="Path 7" d="M448.627,140.052a6.63,6.63,0,0,0-5.654-2.66H421.84v5.745h18.228a2.139,2.139,0,0,1,2.324,2.582c-2.827,15.556-10.65,29.033-21.546,41.181h10.483c8.817-11.567,16.395-26.3,18.641-40.768A8.242,8.242,0,0,0,448.627,140.052Zm12.574-.994V119.836h-7.9v65.076a1.86,1.86,0,0,1-1.755,1.91H439.4l3.24,5.745h9.824c3.086,0,5.332-.839,6.739-2.337a7.688,7.688,0,0,0,2-5.654V154.2c5.241,11.735,12.729,22.463,21.3,32.7h11.644A148.974,148.974,0,0,1,461.2,139.058Z" fill="#302d2c"/>
      <g id="Group_2" data-name="Group 2">
        <path id="Path_8" data-name="Path 8" d="M599.5,172.824s5.86-10.958,15.824-7.023,3.516,11.283,15.824,7.023c0,0-7.619,9.85-15.824,5.14S605.947,170.637,599.5,172.824Z" fill="#302d2c"/>
        <path id="Path_9" data-name="Path 9" d="M644.5,153.456V137.728h-7.565v15.728H587.093v5.99h49.844v24.627a2.78,2.78,0,0,1-2.673,2.827H607l3.5,5.912h26.1a8.141,8.141,0,0,0,5.822-2.246,7.011,7.011,0,0,0,2.079-5.241V159.446h15.4v-5.99Zm12.07-23.474a6.487,6.487,0,0,0-4.906-2.323H629.6A74.144,74.144,0,0,1,624.789,120h-9c1.084,2.247,3.253,5.9,4.338,7.656h-24.8a7.364,7.364,0,0,0-4.828,1.91,6.774,6.774,0,0,0-2.492,5v11.154h7.733v-10.16a2.176,2.176,0,0,1,2.078-2.156h51.018a2.086,2.086,0,0,1,2.079,1.911v10.4h7.564v-10.16A8.9,8.9,0,0,0,656.572,129.982Z" fill="#302d2c"/>
      </g>
      <path id="Path_10" data-name="Path 10" d="M698.592,186.822a9.5,9.5,0,0,1-4.583-1.329,72,72,0,0,1-8.068-6.158,73.868,73.868,0,0,0,3.911-11.567,6.953,6.953,0,0,0-.839-5.912c-.916-1.162-2.491-1.911-4.905-1.911h-3.834c2.414-3.912,6.248-10.741,7.913-14.149a5,5,0,0,0-.258-4.737,4.6,4.6,0,0,0-4.235-2.079H670.372v5.809h9.075a.806.806,0,0,1,.749,1.175c-1.743,3.576-5.99,10.4-8.159,13.736a3.885,3.885,0,0,0-.335,3.563,3.507,3.507,0,0,0,3.33,2.259h6.248a1.4,1.4,0,0,1,1.408,1.743c-2.737,8.817-6.817,18.228-12.974,25.457h9.152a85.163,85.163,0,0,0,4.57-7.733c2.505,1.911,5.086,3.821,7.488,5.332a16.46,16.46,0,0,0,8.249,2.4h41.349l2.672-5.9Zm-18.474-67.077h-8.326a85.516,85.516,0,0,0,7.578,14.9h9.475A60.993,60.993,0,0,1,680.118,119.745Zm49.844,46.771v-6.494h9.4v-5.409h-9.4v-4.57h-7.333v4.57h-10.9v-4.57h-7.32v4.57h-9.075v5.409h9.075v6.494H691.84v5.577h51.186v-5.577Zm-7.333,0h-10.9v-6.494h10.9Zm-19.39,7.578a54.729,54.729,0,0,1-10.973,9.062h12.393a62.975,62.975,0,0,0,8.572-9.062ZM702,142.3a1.647,1.647,0,0,1-1.743-1.743v-3.408H708.4c2.414,0,4.079-.671,5.073-1.923a6.643,6.643,0,0,0,1.343-4.4v-3.834a6.377,6.377,0,0,0-1.588-4.415,6.3,6.3,0,0,0-4.738-1.742h-8.907a6.509,6.509,0,0,0-4.828,1.665,6.736,6.736,0,0,0-1.833,5.164V141.3a6.82,6.82,0,0,0,1.588,4.828c1.161,1.252,2.9,1.743,5.15,1.743h15.4l2-5.577Zm-1.743-14.73c0-.749.413-1.239,1.407-1.239h4.415a1.528,1.528,0,0,1,1.407,1.5V130.4a1.4,1.4,0,0,1-1.407,1.588h-5.822Zm27.032,14.73c-.916,0-1.574-.413-1.574-1.42v-3.563H734.7a5.485,5.485,0,0,0,4.415-2,6.012,6.012,0,0,0,1.24-3.912v-4.079a6.845,6.845,0,0,0-1.821-4.906,5.989,5.989,0,0,0-4.337-1.587h-8.649a7.216,7.216,0,0,0-5,1.587,6.254,6.254,0,0,0-1.82,4.829v13.632q0,3.756,1.742,5.5c1.085,1.007,2.75,1.5,5.164,1.5h15.8l1.756-5.577Zm-1.574-14.472a1.321,1.321,0,0,1,1.5-1.5h4.493a1.509,1.509,0,0,1,1.5,1.575v2.414a1.458,1.458,0,0,1-1.5,1.575h-5.99Z" fill="#302d2c"/>
      <g id="Group_3" data-name="Group 3">
        <path id="Path_11" data-name="Path 11" d="M471.5,140.883a.391.391,0,0,0,.147.683c.154.081.7.48,1.269.9,2.644,1.942,7.565,5.556,10.383,5.556a6.835,6.835,0,1,0,0-13.669c-3.654,0-11.468,6.263-11.8,6.53Z" fill="#302d2c"/>
      </g>
      <g id="Group_4" data-name="Group 4">
        <path id="Path_12" data-name="Path 12" d="M555.206,141.411a.227.227,0,0,0-.4.085c-.047.089-.277.4-.52.733-1.122,1.528-3.211,4.372-3.211,6a3.95,3.95,0,1,0,7.9,0c0-2.112-3.62-6.628-3.774-6.819Z" fill="#302d2c"/>
      </g>
      <g id="Group_5" data-name="Group 5">
        <path id="Path_13" data-name="Path 13" d="M504.212,140.552c2.662,6.49,5.325,12.316,9.236,17.892h8.74a75.208,75.208,0,0,1-10.235-17.892Z" fill="#302d2c"/>
        <path id="Path_14" data-name="Path 14" d="M514.781,162.023C512.45,172.675,509.2,183.489,503.8,192.9h8.4a128.346,128.346,0,0,0,9.819-30.872Z" fill="#302d2c"/>
        <path id="Path_15" data-name="Path 15" d="M522.52,137.31a80.531,80.531,0,0,1-10.486-17.141h-8.07a80.408,80.408,0,0,0,9.4,17.141Z" fill="#302d2c"/>
        <path id="Path_16" data-name="Path 16" d="M569.618,164.852h-6.906c1,6.49,5.16,18.613,8.239,25.935h8.155C575.7,183.965,570.866,172.593,569.618,164.852Z" fill="#302d2c"/>
        <path id="Path_17" data-name="Path 17" d="M575.6,126.574V121H533.842a7.819,7.819,0,0,0-5.835,2.247,7.556,7.556,0,0,0-1.743,5.241v30.957c0,11.063-1.42,23.224-8.236,33.448h8.482c5.5-9.4,6.829-20.8,6.829-32.2V128.743a2.137,2.137,0,0,1,2.323-2.169h16.06a31.969,31.969,0,0,1-2.079,6.068H545.9a8.017,8.017,0,0,0-4.4,1.342,5.2,5.2,0,0,0-2.5,4.493v14.639a8.9,8.9,0,0,0,1.5,5.409,6.216,6.216,0,0,0,5.241,2.414h6.493v24.128a1.97,1.97,0,0,1-2,2h-7.487l2.659,5.822h7a7.218,7.218,0,0,0,5.241-1.911,6.468,6.468,0,0,0,1.833-4.738v-25.3h6.326a7.25,7.25,0,0,0,5.073-1.743,6.872,6.872,0,0,0,2-5.241V139.638a6.757,6.757,0,0,0-2.336-5.409,8.278,8.278,0,0,0-5.151-1.587h-8.159c.658-1.653,1.5-4.235,2.079-6.068Zm-11.889,11.4a1.887,1.887,0,0,1,1.82,1.743v13.568a2.29,2.29,0,0,1-2.247,2.246H548.4a2.01,2.01,0,0,1-2.169-2.156V139.716a1.773,1.773,0,0,1,1.833-1.743Z" fill="#302d2c"/>
        <path id="Path_18" data-name="Path 18" d="M541.244,164.852c-1.665,7.654-6.358,18.527-10.269,24.935h7.989a135.462,135.462,0,0,0,9.267-24.935Z" fill="#302d2c"/>
      </g>
    </g>
    <g id="Group_7" data-name="Group 7">
      <path id="Path_19" data-name="Path 19" d="M371.129,152.575a.3.3,0,0,0-.518.112c-.061.116-.363.527-.682.961-1.47,2-4.208,5.731-4.208,7.866a5.177,5.177,0,1,0,10.355,0c0-2.768-4.745-8.688-4.947-8.939Z" fill="#00a12f"/>
    </g>
    <g id="logo-ga-pattern" transform="translate(-922.302 56.272)">
      <g id="Group_8" data-name="Group 8" transform="translate(899.343 117.389)">
        <path id="Path_21" data-name="Path 21" d="M930.664,89.769a.571.571,0,0,0-.735.048L928.8,90.9c-9.534,9.176-15.879,9.46-26.109,1.174-1.418-1.15-2.808-2.4-4.151-3.6-1.705-1.53-3.47-3.114-5.328-4.53l-.409-.312c-1.765-1.355-3.6-2.756-5.524-2.594a2.053,2.053,0,0,0-1.738,1.275.575.575,0,0,0,.141.611c.1.1,10.26,9.826,15.684,14.2a19.328,19.328,0,0,0,12.19,4.477,18.534,18.534,0,0,0,3.929-.423,19.752,19.752,0,0,0,13.354-10.692A.571.571,0,0,0,930.664,89.769Z" transform="translate(-885.503 -80.754)" fill="url(#linear-gradient)"/>
        <path id="Path_22" data-name="Path 22" d="M893.542,84.727a75.426,75.426,0,0,0,6.167,6.247c3.932,3.409,7.694,5.113,11.341,5.113,3.411,0,6.721-1.492,9.974-4.473a.542.542,0,0,0-.6-.891c-6.093,2.846-11.3,2.516-15.915-1.011-1.114-.851-2.187-1.812-3.224-2.741-.893-.8-1.816-1.624-2.771-2.387-.367-.293-.727-.6-1.087-.914-1.787-1.538-3.634-3.129-6.241-2.726a.541.541,0,0,0-.308.912C891.778,82.793,892.659,83.758,893.542,84.727Z" transform="translate(-880.781 -80.882)" fill="url(#linear-gradient-2)"/>
      </g>
      <path id="Path_23" data-name="Path 23" d="M906.943,52.478l-5.724-6,5.724-6,5.724,6Z" transform="translate(28.04 0)" fill="#00a12f"/>
      <path id="Path_24" data-name="Path 24" d="M879.66,82.258,913.07,47.193a1.758,1.758,0,0,1,2.387-.148L936.847,66.7a3.241,3.241,0,0,0,4.081.015l6.418-5.373a1.774,1.774,0,0,1,2.3.063l27.5,24.739s-26.747-6.283-44.775.647c-17.788,6.837-33.544,10.648-52.6-3.278A.842.842,0,0,1,879.66,82.258Z" transform="translate(8.356 5.578)" fill="#00a12f"/>
      <path id="Path_25" data-name="Path 25" d="M872.267,66.754c5.194.017,19.4,21.985,59.747,12.346,7.031-1.681,21.591-8.4,34.5-9.314,12.555-.893,24.3,1.831,42.4,8-18.951-3.053-39.906-9.78-65.505,2.284-13.71,6.46-25.247,10.3-40.616,9.06-9.812-.79-21.665-4.426-28.588-11.957C870.878,73.555,868.133,66.741,872.267,66.754Z" transform="translate(0 23.744)" fill="url(#linear-gradient-3)"/>
      <path id="Path_26" data-name="Path 26" d="M923.644,74.673c-1.26-.893-1.629-3.946,3.622-2.627,5.354,1.346,7.488,5.609,26.089,1.542C953.355,73.588,937.187,84.267,923.644,74.673Z" transform="translate(47.582 28.231)" fill="url(#linear-gradient-4)"/>
      <path id="Path_27" data-name="Path 27" d="M962.84,76.24c-8.644-4.169-16.625-3.19-23.6,3.588-6.949,6.75-15,9.635-24.627,7.486-.152-.034-1.818-.405-1.043.531a43.277,43.277,0,0,0,4.686,4.829c4.627,3.79,9.774,3.2,14.881,1.212,3.285-1.275,6.426-2.926,9.641-4.384a.386.386,0,0,1,.482.56c-2.174,3.518-4.028,7.281-6.521,10.555-8.881,11.66-20.786,12.766-31.924,3.209-4.542-3.9-9.039-7.85-13.713-11.581-2.37-1.89-9.536-5.084-12.7-4.079l43.933,38.288a4.847,4.847,0,0,0,6.873-.029l55.649-47.944C974.146,85.062,966.844,78.174,962.84,76.24Z" transform="translate(7.421 30.064)" fill="url(#linear-gradient-5)"/>
    </g>
  </g>
</svg>
