<svg xmlns="http://www.w3.org/2000/svg" xmlns:xlink="http://www.w3.org/1999/xlink" width="796.908" height="145.407" viewBox="0 0 796.908 145.407">
  <defs>
    <linearGradient id="linear-gradient" x1="0.5" y1="-0.947" x2="0.5" y2="1.874" gradientUnits="objectBoundingBox">
      <stop offset="0" stop-color="#00a12f"/>
      <stop offset="0.12" stop-color="#008b4c"/>
      <stop offset="0.287" stop-color="#00726e"/>
      <stop offset="0.458" stop-color="#005e88"/>
      <stop offset="0.632" stop-color="#00509b"/>
      <stop offset="0.81" stop-color="#0047a7"/>
      <stop offset="1" stop-color="#0045ab"/>
    </linearGradient>
    <linearGradient id="linear-gradient-2" x1="0.5" y1="-1.263" x2="0.5" y2="2.554" xlink:href="#linear-gradient"/>
    <linearGradient id="linear-gradient-3" x1="0.5" y1="0.257" x2="0.5" y2="2.882" xlink:href="#linear-gradient"/>
    <linearGradient id="linear-gradient-4" x1="0.5" y1="-0.444" x2="0.5" y2="9.752" xlink:href="#linear-gradient"/>
    <linearGradient id="linear-gradient-5" x1="0.5" y1="-0.104" x2="0.5" y2="0.968" xlink:href="#linear-gradient"/>
  </defs>
  <g id="logo-ga-footer" transform="translate(-738 -1197)">
    <g id="logo-ga" transform="translate(44.241 508.256)">
      <g id="Group_24" data-name="Group 24" transform="translate(293.878 569.842)">
        <g id="Group_16" data-name="Group 16" transform="translate(597.602 118.908)">
          <path id="Path_81" data-name="Path 81" d="M525.5,119.9s6.621-12.378,17.876-7.933,3.972,12.748,17.876,7.933c0,0-8.606,11.127-17.876,5.807S532.78,117.431,525.5,119.9Z" transform="translate(-416.003 -81.812)" fill="#fff"/>
          <g id="Group_14" data-name="Group 14">
            <path id="Path_82" data-name="Path 82" d="M556.187,159.293v-8.058q.021-8.948-.025-17.876c-.025-6.254-3.541-10.468-9.62-11.6a36.111,36.111,0,0,0-6.254-.573c-4.525-.05-9.05-.036-13.59-.025H521.1l1.74-11.363h36.227v-9.126H487v9.24h26.257l-1.776,11.274H488.107V130.5h21.882L505.464,159.4H486.106v9.176h73.6v-9.287Zm-41.089-.039,4.5-28.756h9.037c4.067,0,8.119,0,12.183.039a36.666,36.666,0,0,1,3.892.309c.72.089,1.579.386,1.84,1.979a11.837,11.837,0,0,1,.136,1.751q.021,12.346.014,24.678Z" transform="translate(-486.106 -100.195)" fill="#fff"/>
            <path id="Path_83" data-name="Path 83" d="M597.483,100.718v9.815h-1.465c-9.815,0-17.637-.008-27.455.011a9.14,9.14,0,0,0-2.529.292,5.758,5.758,0,0,0-4.1,5.47q-.046,18.538.011,37.075c.017,3.766,1.515,5.462,4.456,5.462,7.038,0,9.979,0,17.017,0,2.952,0,5.493-1.651,5.6-5.387.1-3.452.1-6.919-.006-10.368-.106-3.422-2.593-4.992-5.284-5-5.329-.006-7.983,0-13.4,0V128.32a7.434,7.434,0,0,1,.823-.092c5.559,0,10.054-.061,15.613.028,3.633.061,7.914,1.529,10.374,5.115a11.656,11.656,0,0,1,2.2,6.6c.028,5.548.131,11.121-.222,16.642a12.92,12.92,0,0,1-12.495,12.092c-8.561.006-13.518.058-22.079-.022-4.6-.044-9.885-2.227-11.661-7.847a21.508,21.508,0,0,1-1.009-5.982c-.083-13.265-.114-26.532-.022-39.8.058-8.03,6.263-14.118,12.57-14.265C575.976,100.527,585.775,100.718,597.483,100.718Z" transform="translate(-369.206 -100.232)" fill="#fff"/>
            <path id="Path_84" data-name="Path 84" d="M586.721,108.309v-7.644h-9.376v7.594h-43.71v-7.608H524.3v7.758h-5.646v9.276h5.671l.011,12.256c-.011,9.251-.011,18.488.05,27.738.05,6.638,4.389,10.952,11.041,10.991,6.251.047,12.817.061,20,.061,6.365,0,13.215-.014,20.725-.05a10.323,10.323,0,0,0,10.257-8.467,20.608,20.608,0,0,0,.333-4.228q.038-14.318.014-28.631v-9.709h5.607v-9.337Zm-9.337,47.343c0,2.435-.823,3.369-3.233,3.691a9.622,9.622,0,0,1-1.468.061h-.322q-17.157,0-34.315-.011a11.155,11.155,0,0,1-2.026-.136c-1.826-.361-2.224-1.206-2.249-2.388-.075-3.63-.061-7.272-.05-10.927v-1.081l.075-27.091h43.549v23.683l.05,1.07Z" transform="translate(-428.183 -100.234)" fill="#fff"/>
            <path id="Path_85" data-name="Path 85" d="M621.517,168.936h-8.8a1.371,1.371,0,0,1-1.562-1.22V167.7c-.728-2.921-1.481-5.882-2.224-8.853-.461-1.876-.923-3.766-1.381-5.657l-5.437-23.21s-2.471-10.568-3.672-14.757c-.639-2.238-1.051-3.878-2.663-3.878s-2.174,1.74-2.7,3.841c-.625,2.485-1.712,6.9-2.315,9.384-.167.709-.512,2.14-.512,2.14l-.014.05c-.92,3.816-8.687,36.772-9.76,40.914-.256.945-.564,1.343-1.4,1.318-2.418-.075-6.421-.025-9.031-.025.845-3.644,1.623-7.1,2.43-10.543q4.932-21.073,9.876-42.131a30.357,30.357,0,0,1,4.7-11.327,10.882,10.882,0,0,1,18.41,1.331,26.908,26.908,0,0,1,2.674,6.8c4.453,18.2,8.8,36.464,13.179,54.7C621.39,168.128,621.428,168.464,621.517,168.936Z" transform="translate(-336.71 -100.501)" fill="#fff"/>
          </g>
          <g id="Group_15" data-name="Group 15" transform="translate(254.089 31.504)">
            <path id="Path_86" data-name="Path 86" d="M582.725,111.941a.287.287,0,0,0-.5.108c-.058.111-.35.506-.656.926-1.418,1.929-4.053,5.518-4.053,7.575a4.985,4.985,0,1,0,9.971,0c0-2.666-4.567-8.367-4.762-8.609Z" transform="translate(-577.516 -111.835)" fill="#fff"/>
          </g>
        </g>
        <g id="Group_21" data-name="Group 21" transform="translate(895.404 118.902)">
          <path id="Path_87" data-name="Path 87" d="M703.584,119.158l-8.31,3.8-.431.2,8.316,3.994,8.31-3.8.431-.2Z" transform="translate(-412.426 -67.292)" fill="#fff"/>
          <path id="Path_88" data-name="Path 88" d="M619.215,119.431a6.2,6.2,0,0,0-5.287-2.485H594.17v5.37h17.042a2,2,0,0,1,2.174,2.416c-2.643,14.543-9.96,27.143-20.144,38.5h9.8c8.244-10.813,15.33-24.586,17.431-38.115A7.725,7.725,0,0,0,619.215,119.431Zm11.755-.928V100.529h-7.386v60.847a1.739,1.739,0,0,1-1.643,1.785H610.584l3.03,5.373H622.8c2.885,0,4.984-.787,6.3-2.185a7.186,7.186,0,0,0,1.871-5.287v-28.4c4.9,10.974,11.9,21,19.916,30.574h10.888A139.282,139.282,0,0,1,630.97,118.5Z" transform="translate(-593.242 -100.446)" fill="#fff"/>
          <g id="Group_17" data-name="Group 17" transform="translate(155.436 0.242)">
            <path id="Path_89" data-name="Path 89" d="M653.334,123.067s5.482-10.246,14.8-6.566,3.289,10.549,14.8,6.566c0,0-7.124,9.209-14.8,4.806S659.363,121.022,653.334,123.067Z" transform="translate(-641.735 -73.681)" fill="#fff"/>
            <path id="Path_90" data-name="Path 90" d="M702.836,131.863v-14.7h-7.074v14.7h-46.6v5.6h46.6v23.024a2.6,2.6,0,0,1-2.5,2.643h-25.49l3.269,5.529h24.4a7.62,7.62,0,0,0,5.445-2.1,6.566,6.566,0,0,0,1.943-4.9v-24.2h14.4v-5.6Zm11.285-21.948a6.064,6.064,0,0,0-4.587-2.171H688.907a69.591,69.591,0,0,1-4.5-7.158h-8.411c1.015,2.1,3.041,5.515,4.056,7.158H656.861a6.892,6.892,0,0,0-4.514,1.785,6.347,6.347,0,0,0-2.329,4.673V124.63h7.23v-9.5a2.035,2.035,0,0,1,1.943-2.015h47.7a1.951,1.951,0,0,1,1.943,1.787v9.729h7.074v-9.5A8.321,8.321,0,0,0,714.122,109.915Z" transform="translate(-649.161 -100.586)" fill="#fff"/>
          </g>
          <path id="Path_91" data-name="Path 91" d="M703.953,163.214a8.872,8.872,0,0,1-4.286-1.242,67.525,67.525,0,0,1-7.541-5.757A69.258,69.258,0,0,0,695.78,145.4,6.508,6.508,0,0,0,695,139.87c-.856-1.084-2.329-1.785-4.586-1.785h-3.586c2.257-3.658,5.843-10.043,7.4-13.228a4.682,4.682,0,0,0-.242-4.431,4.3,4.3,0,0,0-3.958-1.943H677.568v5.431h8.483a.753.753,0,0,1,.7,1.1c-1.629,3.344-5.6,9.729-7.628,12.842a3.632,3.632,0,0,0-.314,3.333,3.279,3.279,0,0,0,3.113,2.113h5.843a1.307,1.307,0,0,1,1.315,1.629c-2.557,8.244-6.371,17.042-12.131,23.8h8.559a80.034,80.034,0,0,0,4.272-7.23c2.343,1.785,4.756,3.572,7,4.984a15.383,15.383,0,0,0,7.711,2.246h38.662l2.5-5.518ZM686.68,100.5h-7.786a80.374,80.374,0,0,0,7.085,13.929h8.862A56.987,56.987,0,0,1,686.68,100.5Zm46.6,43.73v-6.071h8.786V133.1h-8.786v-4.272h-6.857V133.1H716.239v-4.272H709.4V133.1h-8.484v5.059H709.4v6.071H697.64v5.215H745.5v-5.215Zm-6.857,0H716.239v-6.071h10.187ZM708.3,151.314a51.088,51.088,0,0,1-10.26,8.472h11.588a58.892,58.892,0,0,0,8.014-8.472Zm-1.159-29.729a1.541,1.541,0,0,1-1.629-1.629v-3.188h7.616c2.257,0,3.813-.625,4.745-1.8a6.207,6.207,0,0,0,1.254-4.114V107.27a5.965,5.965,0,0,0-1.484-4.128,5.886,5.886,0,0,0-4.431-1.629h-8.328a6.085,6.085,0,0,0-4.514,1.557,6.3,6.3,0,0,0-1.712,4.828v12.759a6.377,6.377,0,0,0,1.485,4.514c1.087,1.17,2.716,1.629,4.814,1.629h14.4l1.871-5.215Zm-1.629-13.773c0-.7.386-1.156,1.315-1.156h4.128a1.429,1.429,0,0,1,1.317,1.4v2.4a1.31,1.31,0,0,1-1.317,1.484h-5.443Zm25.276,13.773c-.859,0-1.473-.386-1.473-1.329v-3.33h8.4a5.123,5.123,0,0,0,4.128-1.871A5.626,5.626,0,0,0,743,111.4v-3.814A6.4,6.4,0,0,0,741.3,103a5.6,5.6,0,0,0-4.055-1.484h-8.086A6.741,6.741,0,0,0,724.483,103a5.839,5.839,0,0,0-1.7,4.514v12.745q0,3.515,1.629,5.142c1.015.942,2.571,1.4,4.828,1.4h14.774l1.64-5.215Zm-1.473-13.531a1.235,1.235,0,0,1,1.4-1.4h4.2a1.408,1.408,0,0,1,1.4,1.47v2.257a1.362,1.362,0,0,1-1.4,1.473h-5.6Z" transform="translate(-444.268 -100.499)" fill="#fff"/>
          <g id="Group_18" data-name="Group 18" transform="translate(47.224 13.659)">
            <path id="Path_92" data-name="Path 92" d="M610.367,111.517a.368.368,0,0,0,.136.639c.145.075.651.448,1.187.842,2.471,1.815,7.074,5.192,9.709,5.192a6.389,6.389,0,1,0,0-12.778c-3.416,0-10.724,5.854-11.032,6.1Z" transform="translate(-610.231 -105.413)" fill="#fff"/>
          </g>
          <g id="Group_19" data-name="Group 19" transform="translate(121.763 20.179)">
            <path id="Path_93" data-name="Path 93" d="M640.905,107.838a.2.2,0,0,0-.233-.067.209.209,0,0,0-.136.145c-.042.083-.259.375-.486.687-1.048,1.429-3,4.086-3,5.609a3.694,3.694,0,0,0,7.388,0c0-1.974-3.386-6.2-3.53-6.374Z" transform="translate(-637.047 -107.758)" fill="#fff"/>
          </g>
          <g id="Group_20" data-name="Group 20" transform="translate(77.555 0.397)">
            <path id="Path_94" data-name="Path 94" d="M621.283,107.5a82.788,82.788,0,0,0,8.636,16.728h8.169a70.415,70.415,0,0,1-9.57-16.728Z" transform="translate(-620.894 -88.441)" fill="#fff"/>
            <path id="Path_95" data-name="Path 95" d="M631.414,114.72c-2.179,9.96-5.215,20.069-10.271,28.864H629a120.018,120.018,0,0,0,9.179-28.864Z" transform="translate(-621.143 -75.588)" fill="#fff"/>
            <path id="Path_96" data-name="Path 96" d="M638.55,116.667a75.2,75.2,0,0,1-9.8-16.025H621.2a75.19,75.19,0,0,0,8.792,16.025Z" transform="translate(-621.043 -100.642)" fill="#fff"/>
            <path id="Path_97" data-name="Path 97" d="M647.417,115.671H640.96c.934,6.068,4.825,17.4,7.7,24.25h7.625C653.1,133.541,648.585,122.909,647.417,115.671Z" transform="translate(-585.875 -73.895)" fill="#fff"/>
            <path id="Path_98" data-name="Path 98" d="M679.761,106.135V100.92H640.715a7.3,7.3,0,0,0-5.454,2.1,7.065,7.065,0,0,0-1.632,4.9v28.942c0,10.346-1.326,21.715-7.7,31.274h7.93c5.142-8.786,6.385-19.444,6.385-30.1V108.164a2,2,0,0,1,2.171-2.029h15.016a29.849,29.849,0,0,1-1.943,5.673h-3.5a7.48,7.48,0,0,0-4.117,1.256,4.857,4.857,0,0,0-2.34,4.2v13.687a8.326,8.326,0,0,0,1.4,5.056,5.819,5.819,0,0,0,4.9,2.257H657.9v22.56a1.841,1.841,0,0,1-1.871,1.871h-7l2.488,5.443h6.541a6.747,6.747,0,0,0,4.9-1.785,6.049,6.049,0,0,0,1.715-4.431V138.265h5.912a6.78,6.78,0,0,0,4.745-1.629,6.43,6.43,0,0,0,1.871-4.9V118.349a6.312,6.312,0,0,0-2.185-5.056,7.749,7.749,0,0,0-4.817-1.484h-7.627c.614-1.545,1.4-3.958,1.943-5.673Zm-11.116,10.657a1.764,1.764,0,0,1,1.7,1.629v12.686a2.141,2.141,0,0,1-2.1,2.1H654.33a1.879,1.879,0,0,1-2.026-2.015V118.421a1.658,1.658,0,0,1,1.712-1.629Z" transform="translate(-612.624 -100.147)" fill="#fff"/>
            <path id="Path_99" data-name="Path 99" d="M639.886,115.671c-1.557,7.158-5.946,17.323-9.6,23.316h7.469a126.73,126.73,0,0,0,8.664-23.316Z" transform="translate(-604.873 -73.895)" fill="#fff"/>
          </g>
        </g>
        <g id="Group_23" data-name="Group 23" transform="translate(399.881 118.908)">
          <g id="Group_22" data-name="Group 22" transform="translate(37.222 93.642)">
            <path id="Path_100" data-name="Path 100" d="M493.093,131.588a.729.729,0,0,0-.938.059l-1.447,1.385c-12.17,11.717-20.269,12.077-33.33,1.5-1.81-1.466-3.584-3.059-5.3-4.6-2.177-1.953-4.431-3.978-6.8-5.785l-.522-.4c-2.255-1.73-4.59-3.515-7.052-3.31a2.615,2.615,0,0,0-2.217,1.627.727.727,0,0,0,.177.779c.13.127,13.1,12.543,20.024,18.129a24.659,24.659,0,0,0,15.561,5.717,23.613,23.613,0,0,0,5.015-.543A25.2,25.2,0,0,0,493.31,132.5.725.725,0,0,0,493.093,131.588Z" transform="translate(-435.442 -120.079)" fill="url(#linear-gradient)"/>
            <path id="Path_101" data-name="Path 101" d="M443.123,125.22a96.313,96.313,0,0,0,7.872,7.978c5.021,4.351,9.822,6.524,14.474,6.524,4.357,0,8.583-1.9,12.735-5.708a.693.693,0,0,0-.761-1.14c-7.779,3.633-14.424,3.211-20.315-1.289-1.422-1.087-2.792-2.313-4.118-3.5-1.14-1.019-2.317-2.071-3.537-3.046-.469-.376-.929-.77-1.388-1.165-2.279-1.966-4.636-4-7.965-3.481a.691.691,0,0,0-.394,1.165C440.871,122.754,442,123.987,443.123,125.22Z" transform="translate(-426.832 -120.313)" fill="url(#linear-gradient-2)"/>
          </g>
          <path id="Path_102" data-name="Path 102" d="M455.73,105.483l-7.306-7.662,7.306-7.662,7.306,7.662Z" transform="translate(-370.889 -90.158)" fill="#db2422"/>
          <path id="Path_103" data-name="Path 103" d="M430.984,138.984,473.63,94.223a2.245,2.245,0,0,1,3.046-.189l27.309,25.088a4.129,4.129,0,0,0,5.208.019l8.192-6.857a2.267,2.267,0,0,1,2.938.078l35.109,31.582s-34.144-8.021-57.154.826c-22.706,8.726-42.82,13.592-67.148-4.183A1.077,1.077,0,0,1,430.984,138.984Z" transform="translate(-408.22 -83.066)" fill="#00a12f"/>
          <path id="Path_104" data-name="Path 104" d="M426.118,109.259c6.627.022,24.756,28.063,76.265,15.757,8.977-2.143,27.563-10.717,44.037-11.887,16.027-1.14,31.016,2.338,54.127,10.214-24.194-3.9-50.94-12.487-83.618,2.913-17.5,8.251-32.228,13.151-51.847,11.568-12.524-1.009-27.656-5.649-36.491-15.263C424.341,117.939,420.839,109.24,426.118,109.259Z" transform="translate(-423.456 -49.943)" fill="url(#linear-gradient-3)"/>
          <path id="Path_105" data-name="Path 105" d="M465.676,116.915c-1.605-1.14-2.077-5.037,4.624-3.354,6.835,1.717,9.561,7.161,33.3,1.969C503.6,115.53,482.966,129.159,465.676,116.915Z" transform="translate(-336.696 -41.762)" fill="url(#linear-gradient-4)"/>
          <path id="Path_106" data-name="Path 106" d="M537.674,117.914c-11.034-5.326-21.222-4.074-30.128,4.577-8.869,8.617-19.148,12.3-31.436,9.555-.193-.043-2.32-.516-1.332.68a55.663,55.663,0,0,0,5.981,6.164c5.91,4.835,12.478,4.077,19,1.546,4.192-1.627,8.2-3.733,12.307-5.6a.493.493,0,0,1,.615.714c-2.776,4.49-5.143,9.294-8.326,13.474-11.335,14.884-26.532,16.3-40.752,4.1-5.8-4.975-11.536-10.021-17.5-14.782-3.025-2.413-12.173-6.49-16.213-5.208l56.08,48.876a6.187,6.187,0,0,0,8.773-.037l71.039-61.2C552.1,129.171,542.785,120.38,537.674,117.914Z" transform="translate(-409.924 -38.42)" fill="url(#linear-gradient-5)"/>
        </g>
      </g>
      <rect id="Rectangle_33" data-name="Rectangle 33" width="324" height="59.023" transform="translate(888.774 775.128)" fill="#4e4a48"/>
      <path id="Path_107" data-name="Path 107" d="M29.123-24.173a.224.224,0,0,0,.253-.253v-1.843a.224.224,0,0,0-.253-.253H24.245a.224.224,0,0,0-.253.253v1.843a.224.224,0,0,0,.253.253Zm0,4.264a.224.224,0,0,0,.253-.253v-1.915a.224.224,0,0,0-.253-.253H24.245a.224.224,0,0,0-.253.253v1.915a.224.224,0,0,0,.253.253ZM8.383-22.33q-.289,0-.289.253v1.915q0,.253.289.253h4.553q.289,0,.289-.253v-1.915q0-.253-.289-.253Zm0-4.191q-.289,0-.289.253v1.843q0,.253.289.253h4.553q.289,0,.289-.253v-1.843q0-.253-.289-.253Zm12.9,4.444q0-.253-.289-.253H16.151q-.289,0-.289.253v1.915q0,.253.289.253h4.842q.289,0,.289-.253Zm0-4.191q0-.253-.289-.253H16.151q-.289,0-.289.253v1.843q0,.253.289.253h4.842q.289,0,.289-.253Zm8.636-2.1a2.079,2.079,0,0,1,1.5.614,2.032,2.032,0,0,1,.632,1.518v6.07a2.032,2.032,0,0,1-.632,1.518,2.079,2.079,0,0,1-1.5.614H7.7a2.062,2.062,0,0,1-1.518-.614,2.062,2.062,0,0,1-.614-1.518v-6.07a2.062,2.062,0,0,1,.614-1.518A2.062,2.062,0,0,1,7.7-28.364h5.239a.255.255,0,0,0,.289-.289v-.976a1.315,1.315,0,0,1,.379-.939,1.247,1.247,0,0,1,.939-.4,1.247,1.247,0,0,1,.939.4,1.315,1.315,0,0,1,.379.939v.976a.255.255,0,0,0,.289.289h4.842a.255.255,0,0,0,.289-.289v-.976a1.284,1.284,0,0,1,.4-.939,1.305,1.305,0,0,1,.958-.4,1.305,1.305,0,0,1,.958.4,1.284,1.284,0,0,1,.4.939v.976q0,.289.253.289ZM30.46-6.07q.072-.036.054-.09a.083.083,0,0,0-.09-.054H20.74a.146.146,0,0,0-.145.072A.118.118,0,0,0,20.632-6,12.148,12.148,0,0,0,23.667-3.18a.53.53,0,0,0,.506.036A51.267,51.267,0,0,0,30.46-6.07ZM13.73-.976q0,.289.253.253l7.371-.9a.085.085,0,0,0,.09-.072.15.15,0,0,0-.054-.145,14.64,14.64,0,0,1-3.5-4.119.442.442,0,0,0-.4-.253h-3.5a.224.224,0,0,0-.253.253ZM31.291-6.215q-.036,0-.072.054t.036.126a1.231,1.231,0,0,1,.47.976v.217A1.236,1.236,0,0,1,30.93-3.83q-2.2.976-4.733,1.843a.116.116,0,0,0-.072.108.116.116,0,0,0,.072.108A26.979,26.979,0,0,0,33.929.289a.775.775,0,0,1,.614.488.751.751,0,0,1-.072.777,2.183,2.183,0,0,1-1.807,1.084A1.838,1.838,0,0,1,32.3,2.6,23.026,23.026,0,0,1,21.824-1.518a.154.154,0,0,0-.145,0q-.072.036-.072.181A2.3,2.3,0,0,1,21.1.108a2.467,2.467,0,0,1-1.409.759Q15.284,1.409,9.358,2.2a1.1,1.1,0,0,1-.885-.235,1.218,1.218,0,0,1-.452-.795A1.072,1.072,0,0,1,8.256.307a1.206,1.206,0,0,1,.777-.452Q10.117-.253,10.8-.325a.283.283,0,0,0,.253-.325V-5.962a.224.224,0,0,0-.253-.253H7.7a.263.263,0,0,0-.289.253A20.864,20.864,0,0,1,4.733,1.771a1.169,1.169,0,0,1-.849.56,1.583,1.583,0,0,1-1.066-.2,1.382,1.382,0,0,1-.578-.795A1.188,1.188,0,0,1,2.2,1.048,1.218,1.218,0,0,1,2.421.361q2.746-4.3,2.746-11.888v-2.565a2.049,2.049,0,0,1,.632-1.5,2.049,2.049,0,0,1,1.5-.632h25.69a1.009,1.009,0,0,1,.741.307,1.009,1.009,0,0,1,.307.741,1.009,1.009,0,0,1-.307.741,1.009,1.009,0,0,1-.741.307H8.094q-.289,0-.289.253v2.385Q7.8-9.973,7.7-8.6q-.036.289.217.289H33.82A1.053,1.053,0,0,1,34.6-8a1.009,1.009,0,0,1,.307.741,1.009,1.009,0,0,1-.307.741,1.053,1.053,0,0,1-.777.307Zm-.7-5.691a.908.908,0,0,1,.271.668.908.908,0,0,1-.271.668.908.908,0,0,1-.668.271H10.876a.97.97,0,0,1-.687-.271.88.88,0,0,1-.289-.668.88.88,0,0,1,.289-.668.97.97,0,0,1,.687-.271H29.918A.908.908,0,0,1,30.586-11.906Zm35.038-2.439a.187.187,0,0,0-.018-.181.19.19,0,0,0-.163-.072H53.664a.19.19,0,0,0-.163.072.129.129,0,0,0-.018.145,23.617,23.617,0,0,0,6.143,8.274.263.263,0,0,0,.4,0A22.117,22.117,0,0,0,65.624-14.345Zm1.445-2.927a1.166,1.166,0,0,1,.759.036l.578.253a1.3,1.3,0,0,1,.578.614,1.232,1.232,0,0,1,.072.831A25.517,25.517,0,0,1,62.264-4.444q-.217.181,0,.325A26.56,26.56,0,0,0,67.07-1.644,38.209,38.209,0,0,0,72.706.072a.877.877,0,0,1,.65.578,1.344,1.344,0,0,1,.036.325.915.915,0,0,1-.181.542,2.252,2.252,0,0,1-1.012.831,1.907,1.907,0,0,1-.795.181,2.633,2.633,0,0,1-.434-.036,30.082,30.082,0,0,1-10.8-4.806.305.305,0,0,0-.434,0,33.827,33.827,0,0,1-9.611,4.77,1.477,1.477,0,0,1-.47.072A1.59,1.59,0,0,1,49,2.385a1.761,1.761,0,0,1-.867-.759.9.9,0,0,1-.145-.849.876.876,0,0,1,.614-.6,30.286,30.286,0,0,0,8.925-4.264q.217-.181.036-.361a26.932,26.932,0,0,1-6.034-8.383.123.123,0,0,0-.09-.036q-.054,0-.09.072Q48.714-4.228,43.8.65a1.45,1.45,0,0,1-1.012.4h-.072A1.965,1.965,0,0,1,41.6.614a1.138,1.138,0,0,1-.506-.976,1.132,1.132,0,0,1,.4-.867q6.974-6.54,9.105-20.632.036-.253-.253-.253H42.9a1.268,1.268,0,0,1-.958-.4,1.315,1.315,0,0,1-.379-.939,1.315,1.315,0,0,1,.379-.939,1.268,1.268,0,0,1,.958-.4h7.769a.294.294,0,0,0,.325-.289q.217-2.2.361-4.48a1.312,1.312,0,0,1,.434-1.012,1.45,1.45,0,0,1,1.012-.4,1.3,1.3,0,0,1,.976.416,1.265,1.265,0,0,1,.361.994q-.145,2.457-.361,4.517-.036.253.217.253H71.912a1.268,1.268,0,0,1,.958.4,1.315,1.315,0,0,1,.379.939,1.315,1.315,0,0,1-.379.939,1.268,1.268,0,0,1-.958.4H53.664a.283.283,0,0,0-.325.253q-.361,2.638-.759,4.372-.072.253.181.253h14.2A.277.277,0,0,0,67.07-17.271ZM89.487,6.685a.9.9,0,0,1-.759-.4.766.766,0,0,1-.181-.506,1.188,1.188,0,0,1,.036-.289l10.37-33.6a1.743,1.743,0,0,1,.614-.867,1.585,1.585,0,0,1,.976-.325.808.808,0,0,1,.723.4.766.766,0,0,1,.181.506,1.188,1.188,0,0,1-.036.289L91.076,5.492a1.743,1.743,0,0,1-.614.867A1.585,1.585,0,0,1,89.487,6.685Zm48.721-28.473a.187.187,0,0,0-.018-.181.19.19,0,0,0-.163-.072H127.693a.156.156,0,0,0-.126.072.1.1,0,0,0,.018.145,13.22,13.22,0,0,1,1.3,2.457.81.81,0,0,1-.036.777.864.864,0,0,1-.614.452q-.036,0-.018.018l.018.018h8.491q-.325-.108-.145-.4A32.153,32.153,0,0,0,138.208-21.788Zm10.37,13.857a1.142,1.142,0,0,1,.325.813,1.142,1.142,0,0,1-.325.813,1.1,1.1,0,0,1-.831.343h-10.84a.085.085,0,0,0-.09.072.108.108,0,0,0,.018.108,28.058,28.058,0,0,0,5.275,3.089A37.485,37.485,0,0,0,148.361-.47a.878.878,0,0,1,.614.614.888.888,0,0,1,.072.325.961.961,0,0,1-.217.578,2.59,2.59,0,0,1-1.048.795,1.85,1.85,0,0,1-.687.145,1.636,1.636,0,0,1-.578-.108,39.5,39.5,0,0,1-6.667-2.963,29.129,29.129,0,0,1-5.583-3.975.071.071,0,0,0-.108-.036.116.116,0,0,0-.072.108V1.445a1.326,1.326,0,0,1-.4.976,1.352,1.352,0,0,1-1.915,0,1.326,1.326,0,0,1-.4-.976V-4.806a.116.116,0,0,0-.072-.108.071.071,0,0,0-.108.036,29.763,29.763,0,0,1-5.583,3.794,41.533,41.533,0,0,1-6.63,2.854,1.637,1.637,0,0,1-.578.108,1.945,1.945,0,0,1-.614-.108,2.447,2.447,0,0,1-1.012-.759.961.961,0,0,1-.217-.578A1.188,1.188,0,0,1,116.6.145a.878.878,0,0,1,.614-.614,37.864,37.864,0,0,0,6.2-2.24,28.673,28.673,0,0,0,5.257-3.071.108.108,0,0,0,.018-.108.085.085,0,0,0-.09-.072H117.937a1.111,1.111,0,0,1-.813-.343,1.111,1.111,0,0,1-.343-.813,1.111,1.111,0,0,1,.343-.813,1.111,1.111,0,0,1,.813-.343h13.188q.253,0,.253-.289v-2.2a.224.224,0,0,0-.253-.253H121.3a1.009,1.009,0,0,1-.741-.307,1.009,1.009,0,0,1-.307-.741,1.07,1.07,0,0,1,.307-.759.982.982,0,0,1,.741-.325h9.828a.224.224,0,0,0,.253-.253v-2.168a.224.224,0,0,0-.253-.253h-11.6a1.053,1.053,0,0,1-.795-.343,1.121,1.121,0,0,1-.325-.795,1.121,1.121,0,0,1,.325-.795,1.053,1.053,0,0,1,.795-.343h6.648a.19.19,0,0,0,.163-.072.293.293,0,0,0,.054-.181,16.2,16.2,0,0,0-1.12-2.421.85.85,0,0,1-.054-.777.736.736,0,0,1,.6-.452v-.036h-7.732a1.111,1.111,0,0,1-.813-.343,1.153,1.153,0,0,1-.343-.849,1.153,1.153,0,0,1,.343-.849,1.111,1.111,0,0,1,.813-.343h4.444a.19.19,0,0,0,.163-.072.187.187,0,0,0,.018-.181,23.95,23.95,0,0,0-2.168-4.083.89.89,0,0,1-.09-.831.92.92,0,0,1,.6-.578,1.587,1.587,0,0,1,1.03-.018,1.581,1.581,0,0,1,.849.632q.939,1.409,1.7,2.818a1.393,1.393,0,0,1,.181.687,1.355,1.355,0,0,1-.145.614,1.633,1.633,0,0,1-.976.939q-.036,0-.018.036l.018.036h4.047q.289,0,.289-.253V-29.7a1.213,1.213,0,0,1,.379-.885,1.234,1.234,0,0,1,.9-.379,1.234,1.234,0,0,1,.9.379,1.213,1.213,0,0,1,.379.885v5.022a.224.224,0,0,0,.253.253H134.7a.224.224,0,0,0,.253-.253v-4.986a1.254,1.254,0,0,1,.379-.921,1.254,1.254,0,0,1,.921-.379,1.254,1.254,0,0,1,.921.379,1.254,1.254,0,0,1,.379.921v4.986q0,.253.289.253h4.047v-.036a.974.974,0,0,1-.65-.614,1,1,0,0,1,.072-.9q.831-1.481,1.59-3.18a1.559,1.559,0,0,1,.831-.831,1.6,1.6,0,0,1,.723-.181,2.633,2.633,0,0,1,.434.036,1.088,1.088,0,0,1,.759.65,1.082,1.082,0,0,1-.072,1.012,44.068,44.068,0,0,1-2.385,3.83.154.154,0,0,0,0,.145.116.116,0,0,0,.108.072h4.3a1.111,1.111,0,0,1,.813.343,1.153,1.153,0,0,1,.343.849,1.153,1.153,0,0,1-.343.849,1.111,1.111,0,0,1-.813.343h-5.962a.453.453,0,0,0-.4.217q-1.12,2.132-2.023,3.5a.154.154,0,0,0,0,.145.146.146,0,0,0,.145.072h6.974a1.111,1.111,0,0,1,.813.343,1.091,1.091,0,0,1,.343.795,1.091,1.091,0,0,1-.343.795,1.111,1.111,0,0,1-.813.343h-12a.224.224,0,0,0-.253.253v2.168a.224.224,0,0,0,.253.253H144.6a.982.982,0,0,1,.741.325,1.07,1.07,0,0,1,.307.759,1.009,1.009,0,0,1-.307.741,1.009,1.009,0,0,1-.741.307H134.342a.224.224,0,0,0-.253.253v2.2q0,.289.253.289h13.405A1.1,1.1,0,0,1,148.578-7.931ZM170.626-19.4a.255.255,0,0,0,.289.289h2.06a.719.719,0,0,0,.47-.181,60.882,60.882,0,0,0,5.2-4.372q.072-.072.036-.126a.122.122,0,0,0-.108-.054h-7.66q-.289,0-.289.253Zm9.756,12.61a.255.255,0,0,0,.289-.289v-3.107a.256.256,0,0,0-.289-.289H165.965a.255.255,0,0,0-.289.289v3.107a.255.255,0,0,0,.289.289ZM165.676-1.048q0,.253.289.253h14.417q.289,0,.289-.253V-4.336a.255.255,0,0,0-.289-.289H165.965a.255.255,0,0,0-.289.289Zm21.969-17.705a1.183,1.183,0,0,1,.361.867,1.183,1.183,0,0,1-.361.867,1.226,1.226,0,0,1-.9.361H174.42a.719.719,0,0,0-.47.181q-2.746,1.915-5.528,3.541a.082.082,0,0,0-.018.09q.018.054.054.054h12.9a2.079,2.079,0,0,1,1.5.614,2.032,2.032,0,0,1,.632,1.518V1.265a1.356,1.356,0,0,1-.416.994,1.356,1.356,0,0,1-.994.416h-.506a.867.867,0,0,1-.632-.271.908.908,0,0,1-.271-.668.1.1,0,0,0-.108-.108H165.821a.128.128,0,0,0-.145.145,1.009,1.009,0,0,1-.307.741,1.009,1.009,0,0,1-.741.307h-.289a1.326,1.326,0,0,1-.976-.4,1.326,1.326,0,0,1-.4-.976V-9.72a.146.146,0,0,0-.072-.145.154.154,0,0,0-.145,0q-2.674,1.265-5.2,2.276a2.046,2.046,0,0,1-.65.108,2.24,2.24,0,0,1-.542-.072,1.969,1.969,0,0,1-.976-.687,1.006,1.006,0,0,1-.217-.614,1.188,1.188,0,0,1,.036-.289.886.886,0,0,1,.614-.65,71.011,71.011,0,0,0,13.622-6.721q.072-.036.054-.09a.083.083,0,0,0-.09-.054H156.535a1.226,1.226,0,0,1-.9-.361,1.183,1.183,0,0,1-.361-.867,1.183,1.183,0,0,1,.361-.867,1.226,1.226,0,0,1,.9-.361h11.129a.255.255,0,0,0,.289-.289v-4.191q0-.253-.289-.253h-7.949a1.183,1.183,0,0,1-.867-.361,1.183,1.183,0,0,1-.361-.867,1.183,1.183,0,0,1,.361-.867,1.183,1.183,0,0,1,.867-.361h7.949a.255.255,0,0,0,.289-.289v-3a1.315,1.315,0,0,1,.379-.939,1.247,1.247,0,0,1,.939-.4,1.305,1.305,0,0,1,.958.4,1.285,1.285,0,0,1,.4.939v3a.255.255,0,0,0,.289.289h7.516a1.284,1.284,0,0,1,.939.4,1.285,1.285,0,0,1,.4.939q0,.036.054.054a.3.3,0,0,0,.09.018,47.216,47.216,0,0,0,3.288-3.722,1.481,1.481,0,0,1,.9-.578,1.587,1.587,0,0,1,1.048.145,1.087,1.087,0,0,1,.578.759,1.021,1.021,0,0,1-.217.9,56.244,56.244,0,0,1-7.985,8.094.108.108,0,0,0-.018.108.085.085,0,0,0,.09.072h9.142A1.226,1.226,0,0,1,187.645-18.753Zm24.361,4.95q-.253,0-.253.289v1.481a.224.224,0,0,0,.253.253l6.468-.108a.058.058,0,0,0,.054-.036q.018-.036-.054-.072a15.487,15.487,0,0,0-1.554-.65.656.656,0,0,1-.4-.488.617.617,0,0,1,.181-.6q.036,0,.018-.036a.058.058,0,0,0-.054-.036Zm-11.671-2.132a.255.255,0,0,0,.289.289h8.2q.253,0,.253-.289v-1.734q0-.289-.253-.289h-8.2a.255.255,0,0,0-.289.289Zm.289-6q-.289,0-.289.253v1.7q0,.253.289.253h8.2a.224.224,0,0,0,.253-.253v-1.7a.224.224,0,0,0-.253-.253Zm20.126.253q0-.253-.289-.253h-8.455a.224.224,0,0,0-.253.253v1.7a.224.224,0,0,0,.253.253h8.455q.289,0,.289-.253Zm-.289,6.034a.255.255,0,0,0,.289-.289v-1.734a.256.256,0,0,0-.289-.289h-8.455q-.253,0-.253.289v1.734q0,.289.253.289Zm5.6,7.985a1.081,1.081,0,0,1,.795.325,1.081,1.081,0,0,1,.325.795,1.081,1.081,0,0,1-.325.795,1.081,1.081,0,0,1-.795.325h-7.407a.255.255,0,0,0-.289.289V-.108a3.615,3.615,0,0,1-.307,1.662,1.94,1.94,0,0,1-1.174.867,17.3,17.3,0,0,1-4.7.4,1.531,1.531,0,0,1-.976-.343,2.1,2.1,0,0,1-.65-.885.814.814,0,0,1,.09-.759.752.752,0,0,1,.668-.361q1.373.036,2.313.036.867,0,1.337-.036a.837.837,0,0,0,.578-.145.705.705,0,0,0,.145-.506v-4.95q0-.289-.253-.289H201.961a.083.083,0,0,0-.09.054q-.018.054.054.09a29.712,29.712,0,0,1,4.842,3.5,1.078,1.078,0,0,1,.416.9,1.289,1.289,0,0,1-.416.921,1.274,1.274,0,0,1-.958.361,1.447,1.447,0,0,1-.958-.379,28.363,28.363,0,0,0-3.4-2.71,1.591,1.591,0,0,1-.723-1.373,1.471,1.471,0,0,1,.578-1.192q.036-.036,0-.108t-.072-.072h-6.287a1.081,1.081,0,0,1-.795-.325,1.081,1.081,0,0,1-.325-.795,1.081,1.081,0,0,1,.325-.795,1.081,1.081,0,0,1,.795-.325h20.487a.224.224,0,0,0,.253-.253V-9.684a.224.224,0,0,0-.253-.253q-9.72.289-18.97.4a1,1,0,0,1-.777-.271,1,1,0,0,1-.343-.777.947.947,0,0,1,.271-.759.982.982,0,0,1,.741-.325q5.456,0,12.466-.108a.224.224,0,0,0,.253-.253v-1.481q0-.289-.253-.289H199.9a2.032,2.032,0,0,1-1.518-.632,2.079,2.079,0,0,1-.614-1.5V-21.68a2.062,2.062,0,0,1,.614-1.518,2.062,2.062,0,0,1,1.518-.614h8.925q.253,0,.253-.289v-1.518q0-.289-.253-.289H196.035a1.081,1.081,0,0,1-.795-.325,1.06,1.06,0,0,1-.325-.777,1.06,1.06,0,0,1,.325-.777,1.081,1.081,0,0,1,.795-.325h12.791q.253,0,.253-.289v-1.156a1.285,1.285,0,0,1,.4-.939,1.284,1.284,0,0,1,.939-.4,1.284,1.284,0,0,1,.939.4,1.285,1.285,0,0,1,.4.939V-28.4q0,.289.253.289H224.58a1.081,1.081,0,0,1,.795.325,1.06,1.06,0,0,1,.325.777,1.06,1.06,0,0,1-.325.777,1.081,1.081,0,0,1-.795.325H212.006q-.253,0-.253.289V-24.1q0,.289.253.289h9.286a2.062,2.062,0,0,1,1.518.614,2.062,2.062,0,0,1,.614,1.518v5.745a2.079,2.079,0,0,1-.614,1.5,2.032,2.032,0,0,1-1.518.632h-1.879a.058.058,0,0,0-.054.036q-.018.036.054.072a31.319,31.319,0,0,1,5.456,2.818.842.842,0,0,1,.379.687.978.978,0,0,1-.307.759,1.24,1.24,0,0,1-.813.361,1.3,1.3,0,0,1-.885-.253q-.47-.325-.976-.687a.721.721,0,0,0-.506-.108l-3.107.072a.255.255,0,0,0-.289.289v1.843q0,.253.289.253ZM264.8-1.481a1.243,1.243,0,0,1,.885.361,1.175,1.175,0,0,1,.379.885,1.234,1.234,0,0,1-.379.9,1.213,1.213,0,0,1-.885.379h-27.5q-.217,0-.217.181v.217a1.326,1.326,0,0,1-.4.976,1.352,1.352,0,0,1-1.915,0,1.326,1.326,0,0,1-.4-.976V-27.244a2.049,2.049,0,0,1,.632-1.5,2.049,2.049,0,0,1,1.5-.632h27.353a1.183,1.183,0,0,1,.867.361,1.183,1.183,0,0,1,.361.867,1.243,1.243,0,0,1-.361.885,1.155,1.155,0,0,1-.867.379H237.378q-.289,0-.289.253v24.9q0,.253.289.253Zm-9.792-16.729q.289,0,.289-.253v-3.722a.255.255,0,0,0-.289-.289H247.1a.255.255,0,0,0-.289.289v3.722q0,.253.289.253Zm.867-6.215a2.049,2.049,0,0,1,1.5.632,2.049,2.049,0,0,1,.632,1.5v3.938a2.032,2.032,0,0,1-.632,1.518,2.079,2.079,0,0,1-1.5.614h-9.467a2.062,2.062,0,0,1-1.518-.614,2.062,2.062,0,0,1-.614-1.518v-3.938a2.079,2.079,0,0,1,.614-1.5,2.032,2.032,0,0,1,1.518-.632ZM242.834-11.743q-.253,0-.253.289V-6.54q0,.289.253.289h4.372a.255.255,0,0,0,.289-.289v-4.914a.256.256,0,0,0-.289-.289ZM242.4-4.264a2.079,2.079,0,0,1-1.5-.614,2.032,2.032,0,0,1-.632-1.518v-5.2a2.049,2.049,0,0,1,.632-1.5,2.049,2.049,0,0,1,1.5-.632h5.348a2.032,2.032,0,0,1,1.518.632,2.079,2.079,0,0,1,.614,1.5v5.2a2.062,2.062,0,0,1-.614,1.518,2.062,2.062,0,0,1-1.518.614Zm17.2-1.987a.255.255,0,0,0,.289-.289v-4.914a.255.255,0,0,0-.289-.289h-4.589q-.253,0-.253.289V-6.54q0,.289.253.289Zm.578-7.479a2.032,2.032,0,0,1,1.518.632,2.079,2.079,0,0,1,.614,1.5v5.2a2.062,2.062,0,0,1-.614,1.518,2.062,2.062,0,0,1-1.518.614h-5.673a2.079,2.079,0,0,1-1.5-.614,2.032,2.032,0,0,1-.632-1.518v-5.2a2.049,2.049,0,0,1,.632-1.5,2.049,2.049,0,0,1,1.5-.632Z" transform="translate(913 818)" fill="#fff"/>
    </g>
  </g>
</svg>
